<svg width="404" height="299" viewBox="0 0 404 299" fill="none" xmlns="http://www.w3.org/2000/svg">
<g clip-path="url(#clip0_2_12)">
<rect width="404" height="299" fill="black"/>
<path d="M34.1205 90.5C34.0542 89.6714 33.7435 89.0251 33.1883 88.5611C32.6415 88.0971 31.8087 87.8651 30.6901 87.8651C29.9775 87.8651 29.3934 87.9521 28.9376 88.1261C28.4902 88.2918 28.1588 88.5196 27.9433 88.8097C27.7279 89.0997 27.616 89.4311 27.6077 89.804C27.5912 90.1106 27.645 90.3881 27.7693 90.6367C27.9019 90.877 28.109 91.0966 28.3908 91.2955C28.6725 91.486 29.0329 91.66 29.4721 91.8175C29.9112 91.9749 30.4333 92.1158 31.0381 92.2401L33.1262 92.6875C34.5348 92.9858 35.7404 93.3794 36.743 93.8683C37.7456 94.3571 38.5659 94.933 39.204 95.5959C39.842 96.2505 40.3101 96.9879 40.6084 97.8082C40.915 98.6286 41.0725 99.5234 41.0807 100.493C41.0725 102.167 40.654 103.584 39.8254 104.744C38.9968 105.904 37.8119 106.786 36.2707 107.391C34.7378 107.996 32.8942 108.298 30.7398 108.298C28.5275 108.298 26.5968 107.971 24.9479 107.316C23.3073 106.662 22.0313 105.655 21.1198 104.296C20.2166 102.929 19.7609 101.181 19.7526 99.0511H26.3151C26.3565 99.83 26.5513 100.485 26.8993 101.015C27.2473 101.545 27.7362 101.947 28.3659 102.221C29.0039 102.494 29.7621 102.631 30.6404 102.631C31.3779 102.631 31.9952 102.54 32.4923 102.357C32.9895 102.175 33.3665 101.922 33.6234 101.599C33.8802 101.276 34.0128 100.907 34.0211 100.493C34.0128 100.103 33.8844 99.7637 33.6358 99.4737C33.3955 99.1754 32.9978 98.9103 32.4426 98.6783C31.8874 98.438 31.1376 98.2143 30.193 98.0071L27.6574 97.4602C25.4037 96.9714 23.6263 96.1552 22.3254 95.0117C21.0328 93.86 20.3906 92.2898 20.3989 90.3011C20.3906 88.6854 20.8215 87.2726 21.6915 86.0629C22.5699 84.8448 23.7838 83.8961 25.3332 83.2166C26.891 82.5372 28.6766 82.1974 30.6901 82.1974C32.745 82.1974 34.5224 82.5413 36.0222 83.229C37.5219 83.9168 38.6778 84.8862 39.4898 86.1374C40.3101 87.3803 40.7244 88.8345 40.7327 90.5H34.1205ZM55.1938 88.9091V93.8807H42.6157V88.9091H55.1938ZM45.0518 84.3352H51.9126V101.86C51.9126 102.125 51.9582 102.349 52.0493 102.531C52.1405 102.705 52.2813 102.838 52.4719 102.929C52.6625 103.012 52.9069 103.053 53.2052 103.053C53.4124 103.053 53.6527 103.028 53.9261 102.979C54.2078 102.929 54.415 102.888 54.5475 102.854L55.5419 107.677C55.2353 107.768 54.7961 107.88 54.2244 108.012C53.6609 108.145 52.9898 108.232 52.2109 108.273C50.6366 108.356 49.3149 108.195 48.246 107.789C47.1772 107.374 46.3734 106.724 45.8348 105.837C45.2962 104.951 45.0352 103.84 45.0518 102.506V84.3352ZM57.9935 108V88.9091H64.6554V92.5384H64.8543C65.2023 91.196 65.7533 90.2141 66.5073 89.5927C67.2696 88.9712 68.1604 88.6605 69.1796 88.6605C69.4779 88.6605 69.772 88.6854 70.062 88.7351C70.3603 88.7765 70.6462 88.8387 70.9196 88.9215V94.7756C70.5799 94.6596 70.1614 94.5726 69.6643 94.5146C69.1671 94.4566 68.7404 94.4276 68.3841 94.4276C67.7129 94.4276 67.1081 94.5808 66.5695 94.8874C66.0392 95.1857 65.6207 95.6083 65.3141 96.1552C65.0076 96.6938 64.8543 97.3277 64.8543 98.0568V108H57.9935ZM77.6002 108.298C76.3821 108.298 75.305 108.099 74.3687 107.702C73.4406 107.296 72.7115 106.683 72.1812 105.862C71.6508 105.042 71.3857 103.998 71.3857 102.73C71.3857 101.686 71.5638 100.795 71.9201 100.058C72.2764 99.3121 72.7736 98.7031 73.4116 98.2308C74.0496 97.7585 74.7912 97.3981 75.6364 97.1495C76.4899 96.9009 77.4096 96.7393 78.3956 96.6648C79.4645 96.5819 80.3221 96.4825 80.9684 96.3665C81.623 96.2422 82.0953 96.0723 82.3853 95.8569C82.6754 95.6332 82.8204 95.339 82.8204 94.9744V94.9247C82.8204 94.4276 82.6298 94.0464 82.2486 93.7812C81.8675 93.5161 81.3786 93.3835 80.782 93.3835C80.1274 93.3835 79.593 93.5285 79.1787 93.8185C78.7727 94.1003 78.5282 94.5353 78.4454 95.1236H72.1314C72.2143 93.9635 72.583 92.8946 73.2376 91.9169C73.9005 90.9309 74.8658 90.1437 76.1336 89.5554C77.4013 88.9588 78.9839 88.6605 80.8814 88.6605C82.2486 88.6605 83.475 88.8221 84.5604 89.1452C85.6459 89.4601 86.5698 89.9034 87.3321 90.4751C88.0944 91.0386 88.6744 91.7015 89.0721 92.4638C89.4781 93.2178 89.6812 94.0381 89.6812 94.9247V108H83.2678V105.315H83.1187C82.7375 106.028 82.2735 106.604 81.7266 107.043C81.188 107.482 80.5707 107.801 79.8747 108C79.187 108.199 78.4288 108.298 77.6002 108.298ZM79.8374 103.973C80.3594 103.973 80.8483 103.865 81.304 103.65C81.768 103.434 82.145 103.124 82.4351 102.718C82.7251 102.312 82.8701 101.819 82.8701 101.239V99.6477C82.6878 99.7223 82.4931 99.7927 82.2859 99.859C82.087 99.9253 81.8716 99.9875 81.6396 100.045C81.4159 100.103 81.1756 100.157 80.9187 100.207C80.6701 100.257 80.4091 100.302 80.1357 100.344C79.6054 100.427 79.1704 100.563 78.8307 100.754C78.4992 100.936 78.2506 101.164 78.0849 101.438C77.9275 101.703 77.8488 102.001 77.8488 102.332C77.8488 102.863 78.0352 103.269 78.4081 103.55C78.7809 103.832 79.2574 103.973 79.8374 103.973ZM104.344 88.9091V93.8807H91.7661V88.9091H104.344ZM94.2022 84.3352H101.063V101.86C101.063 102.125 101.109 102.349 101.2 102.531C101.291 102.705 101.432 102.838 101.622 102.929C101.813 103.012 102.057 103.053 102.356 103.053C102.563 103.053 102.803 103.028 103.076 102.979C103.358 102.929 103.565 102.888 103.698 102.854L104.692 107.677C104.386 107.768 103.947 107.88 103.375 108.012C102.811 108.145 102.14 108.232 101.361 108.273C99.7869 108.356 98.4653 108.195 97.3964 107.789C96.3275 107.374 95.5238 106.724 94.9852 105.837C94.4466 104.951 94.1856 103.84 94.2022 102.506V84.3352ZM116.087 108.348C114.048 108.348 112.292 107.959 110.817 107.18C109.35 106.393 108.219 105.266 107.424 103.799C106.636 102.324 106.243 100.559 106.243 98.5043C106.243 96.5322 106.64 94.8087 107.436 93.3338C108.231 91.8589 109.354 90.7113 110.804 89.891C112.254 89.0707 113.965 88.6605 115.937 88.6605C117.379 88.6605 118.684 88.8842 119.852 89.3317C121.021 89.7791 122.019 90.4296 122.848 91.283C123.676 92.1282 124.314 93.1557 124.762 94.3654C125.209 95.5752 125.433 96.9382 125.433 98.4545V100.045H108.381V96.267H119.119C119.111 95.7202 118.97 95.2396 118.697 94.8253C118.431 94.4027 118.071 94.0754 117.615 93.8434C117.168 93.6031 116.658 93.483 116.087 93.483C115.531 93.483 115.022 93.6031 114.558 93.8434C114.094 94.0754 113.721 94.3986 113.439 94.8129C113.166 95.2272 113.021 95.7119 113.004 96.267V100.344C113.004 100.957 113.133 101.504 113.389 101.984C113.646 102.465 114.015 102.842 114.496 103.115C114.976 103.389 115.556 103.526 116.236 103.526C116.708 103.526 117.139 103.459 117.528 103.327C117.926 103.194 118.266 103.004 118.547 102.755C118.829 102.498 119.036 102.192 119.169 101.835H125.433C125.218 103.161 124.708 104.313 123.904 105.29C123.101 106.26 122.036 107.014 120.71 107.553C119.393 108.083 117.851 108.348 116.087 108.348ZM137.43 115.557C135.516 115.557 133.875 115.283 132.508 114.737C131.149 114.198 130.093 113.452 129.339 112.499C128.593 111.555 128.175 110.469 128.084 109.243H134.696C134.762 109.649 134.928 109.976 135.193 110.225C135.458 110.473 135.798 110.652 136.212 110.759C136.635 110.875 137.107 110.933 137.629 110.933C138.516 110.933 139.249 110.718 139.829 110.287C140.417 109.856 140.711 109.077 140.711 107.95V104.719H140.513C140.264 105.365 139.883 105.916 139.369 106.372C138.855 106.819 138.238 107.163 137.517 107.403C136.796 107.635 136.005 107.751 135.143 107.751C133.784 107.751 132.533 107.437 131.39 106.807C130.255 106.177 129.343 105.179 128.655 103.811C127.976 102.444 127.636 100.659 127.636 98.4545C127.636 96.151 127.992 94.2784 128.705 92.8366C129.426 91.3949 130.354 90.3384 131.489 89.6673C132.633 88.9961 133.834 88.6605 135.094 88.6605C136.038 88.6605 136.867 88.8262 137.579 89.1577C138.292 89.4808 138.889 89.9158 139.369 90.4627C139.85 91.0013 140.214 91.5937 140.463 92.2401H140.612V88.9091H147.473V107.95C147.473 109.566 147.054 110.937 146.217 112.064C145.389 113.199 144.221 114.065 142.712 114.662C141.204 115.259 139.444 115.557 137.43 115.557ZM137.679 102.879C138.308 102.879 138.847 102.705 139.295 102.357C139.75 102.001 140.098 101.496 140.339 100.841C140.587 100.178 140.711 99.3826 140.711 98.4545C140.711 97.5099 140.587 96.7021 140.339 96.0309C140.098 95.3514 139.75 94.8336 139.295 94.4773C138.847 94.1127 138.308 93.9304 137.679 93.9304C137.049 93.9304 136.51 94.1127 136.063 94.4773C135.624 94.8336 135.284 95.3514 135.044 96.0309C134.812 96.7021 134.696 97.5099 134.696 98.4545C134.696 99.3991 134.812 100.203 135.044 100.866C135.284 101.52 135.624 102.022 136.063 102.37C136.51 102.709 137.049 102.879 137.679 102.879ZM155.138 115.159C154.351 115.159 153.601 115.097 152.889 114.973C152.176 114.857 151.551 114.695 151.012 114.488L152.503 109.616C153.067 109.815 153.581 109.943 154.045 110.001C154.517 110.059 154.919 110.026 155.25 109.902C155.59 109.777 155.834 109.541 155.984 109.193L156.133 108.845L149.421 88.9091H156.58L159.663 102.134H159.861L162.993 88.9091H170.202L163.242 109.591C162.894 110.643 162.389 111.588 161.726 112.425C161.071 113.27 160.209 113.937 159.14 114.426C158.072 114.915 156.738 115.159 155.138 115.159ZM186.733 106.857V88.4616H192.301V106.857H186.733ZM180.319 100.443V94.875H198.714V100.443H180.319ZM219.514 108.348C217.476 108.348 215.719 107.959 214.244 107.18C212.778 106.393 211.647 105.266 210.851 103.799C210.064 102.324 209.67 100.559 209.67 98.5043C209.67 96.5322 210.068 94.8087 210.864 93.3338C211.659 91.8589 212.782 90.7113 214.232 89.891C215.682 89.0707 217.393 88.6605 219.365 88.6605C220.807 88.6605 222.112 88.8842 223.28 89.3317C224.449 89.7791 225.447 90.4296 226.276 91.283C227.104 92.1282 227.742 93.1557 228.19 94.3654C228.637 95.5752 228.861 96.9382 228.861 98.4545V100.045H211.808V96.267H222.547C222.539 95.7202 222.398 95.2396 222.124 94.8253C221.859 94.4027 221.499 94.0754 221.043 93.8434C220.596 93.6031 220.086 93.483 219.514 93.483C218.959 93.483 218.449 93.6031 217.985 93.8434C217.521 94.0754 217.149 94.3986 216.867 94.8129C216.593 95.2272 216.448 95.7119 216.432 96.267V100.344C216.432 100.957 216.56 101.504 216.817 101.984C217.074 102.465 217.443 102.842 217.923 103.115C218.404 103.389 218.984 103.526 219.663 103.526C220.136 103.526 220.567 103.459 220.956 103.327C221.354 103.194 221.693 103.004 221.975 102.755C222.257 102.498 222.464 102.192 222.597 101.835H228.861C228.645 103.161 228.136 104.313 227.332 105.29C226.528 106.26 225.464 107.014 224.138 107.553C222.82 108.083 221.279 108.348 219.514 108.348ZM237.372 88.9091L240.156 94.8253L243.089 88.9091H249.9L244.779 98.4545L250.149 108H243.387L240.156 101.935L237.024 108H230.163L235.582 98.4545L230.511 88.9091H237.372ZM260.837 108.348C258.799 108.348 257.043 107.959 255.568 107.18C254.101 106.393 252.97 105.266 252.174 103.799C251.387 102.324 250.994 100.559 250.994 98.5043C250.994 96.5322 251.391 94.8087 252.187 93.3338C252.982 91.8589 254.105 90.7113 255.555 89.891C257.005 89.0707 258.716 88.6605 260.688 88.6605C262.13 88.6605 263.435 88.8842 264.603 89.3317C265.772 89.7791 266.77 90.4296 267.599 91.283C268.427 92.1282 269.065 93.1557 269.513 94.3654C269.96 95.5752 270.184 96.9382 270.184 98.4545V100.045H253.132V96.267H263.87C263.862 95.7202 263.721 95.2396 263.448 94.8253C263.182 94.4027 262.822 94.0754 262.366 93.8434C261.919 93.6031 261.409 93.483 260.837 93.483C260.282 93.483 259.773 93.6031 259.309 93.8434C258.845 94.0754 258.472 94.3986 258.19 94.8129C257.917 95.2272 257.772 95.7119 257.755 96.267V100.344C257.755 100.957 257.884 101.504 258.14 101.984C258.397 102.465 258.766 102.842 259.247 103.115C259.727 103.389 260.307 103.526 260.987 103.526C261.459 103.526 261.89 103.459 262.279 103.327C262.677 103.194 263.017 103.004 263.298 102.755C263.58 102.498 263.787 102.192 263.92 101.835H270.184C269.969 103.161 269.459 104.313 268.655 105.29C267.852 106.26 266.787 107.014 265.461 107.553C264.144 108.083 262.602 108.348 260.837 108.348ZM282.181 108.348C280.11 108.348 278.336 107.938 276.862 107.118C275.387 106.289 274.256 105.137 273.468 103.662C272.681 102.179 272.288 100.46 272.288 98.5043C272.288 96.5488 272.681 94.8336 273.468 93.3587C274.256 91.8755 275.387 90.7237 276.862 89.9034C278.336 89.0748 280.11 88.6605 282.181 88.6605C284.054 88.6605 285.674 89.0002 287.041 89.6797C288.416 90.3509 289.481 91.3037 290.235 92.5384C290.989 93.7647 291.37 95.2064 291.379 96.8636H285.015C284.924 95.861 284.634 95.0987 284.145 94.5767C283.664 94.0464 283.043 93.7812 282.281 93.7812C281.684 93.7812 281.162 93.9553 280.715 94.3033C280.267 94.643 279.919 95.1609 279.67 95.8569C279.422 96.5446 279.298 97.4105 279.298 98.4545C279.298 99.4986 279.422 100.369 279.67 101.065C279.919 101.752 280.267 102.27 280.715 102.618C281.162 102.958 281.684 103.128 282.281 103.128C282.786 103.128 283.233 103.012 283.623 102.78C284.012 102.54 284.327 102.192 284.568 101.736C284.816 101.272 284.965 100.708 285.015 100.045H291.379C291.354 101.728 290.968 103.194 290.223 104.445C289.477 105.688 288.42 106.649 287.053 107.329C285.694 108.008 284.07 108.348 282.181 108.348ZM306.589 99.6477V88.9091H313.449V108H306.937V104.371H306.738C306.323 105.589 305.598 106.542 304.563 107.229C303.527 107.909 302.296 108.249 300.871 108.249C299.537 108.249 298.369 107.942 297.366 107.329C296.372 106.716 295.597 105.871 295.042 104.793C294.495 103.716 294.218 102.482 294.209 101.089V88.9091H301.07V99.6477C301.078 100.592 301.319 101.334 301.791 101.873C302.272 102.411 302.943 102.68 303.804 102.68C304.376 102.68 304.869 102.56 305.284 102.32C305.706 102.071 306.029 101.723 306.253 101.276C306.485 100.82 306.597 100.277 306.589 99.6477ZM328.324 88.9091V93.8807H315.746V88.9091H328.324ZM318.182 84.3352H325.042V101.86C325.042 102.125 325.088 102.349 325.179 102.531C325.27 102.705 325.411 102.838 325.602 102.929C325.792 103.012 326.037 103.053 326.335 103.053C326.542 103.053 326.783 103.028 327.056 102.979C327.338 102.929 327.545 102.888 327.677 102.854L328.672 107.677C328.365 107.768 327.926 107.88 327.354 108.012C326.791 108.145 326.12 108.232 325.341 108.273C323.766 108.356 322.445 108.195 321.376 107.789C320.307 107.374 319.503 106.724 318.965 105.837C318.426 104.951 318.165 103.84 318.182 102.506V84.3352ZM331.123 108V88.9091H337.984V108H331.123ZM334.554 86.9205C333.626 86.9205 332.83 86.6139 332.167 86.0007C331.505 85.3875 331.173 84.6501 331.173 83.7884C331.173 82.9266 331.505 82.1892 332.167 81.576C332.83 80.9628 333.626 80.6562 334.554 80.6562C335.49 80.6562 336.286 80.9628 336.94 81.576C337.603 82.1892 337.934 82.9266 337.934 83.7884C337.934 84.6501 337.603 85.3875 336.94 86.0007C336.286 86.6139 335.49 86.9205 334.554 86.9205ZM350.677 108.348C348.606 108.348 346.833 107.938 345.358 107.118C343.883 106.289 342.752 105.137 341.965 103.662C341.177 102.179 340.784 100.46 340.784 98.5043C340.784 96.5488 341.177 94.8336 341.965 93.3587C342.752 91.8755 343.883 90.7237 345.358 89.9034C346.833 89.0748 348.606 88.6605 350.677 88.6605C352.749 88.6605 354.522 89.0748 355.997 89.9034C357.472 90.7237 358.603 91.8755 359.39 93.3587C360.177 94.8336 360.571 96.5488 360.571 98.5043C360.571 100.46 360.177 102.179 359.39 103.662C358.603 105.137 357.472 106.289 355.997 107.118C354.522 107.938 352.749 108.348 350.677 108.348ZM350.727 103.277C351.307 103.277 351.808 103.082 352.231 102.693C352.653 102.303 352.981 101.748 353.213 101.027C353.445 100.306 353.561 99.4489 353.561 98.4545C353.561 97.4519 353.445 96.5943 353.213 95.8817C352.981 95.1609 352.653 94.6057 352.231 94.2163C351.808 93.8268 351.307 93.6321 350.727 93.6321C350.114 93.6321 349.588 93.8268 349.148 94.2163C348.709 94.6057 348.374 95.1609 348.142 95.8817C347.91 96.5943 347.794 97.4519 347.794 98.4545C347.794 99.4489 347.91 100.306 348.142 101.027C348.374 101.748 348.709 102.303 349.148 102.693C349.588 103.082 350.114 103.277 350.727 103.277ZM370.216 97.2614V108H363.355V88.9091H369.868V92.5384H370.066C370.481 91.3286 371.21 90.3799 372.254 89.6921C373.306 89.0044 374.533 88.6605 375.933 88.6605C377.284 88.6605 378.456 88.9712 379.45 89.5927C380.453 90.2058 381.228 91.051 381.775 92.1282C382.33 93.2054 382.603 94.4358 382.595 95.8196V108H375.734V97.2614C375.742 96.3168 375.502 95.5752 375.013 95.0366C374.533 94.498 373.861 94.2287 373 94.2287C372.436 94.2287 371.943 94.353 371.521 94.6016C371.106 94.8419 370.787 95.1899 370.564 95.6456C370.34 96.093 370.224 96.6316 370.216 97.2614ZM39.6064 137.124H33.2924C33.2593 136.734 33.1226 136.399 32.8823 136.117C32.642 135.835 32.3313 135.62 31.9501 135.471C31.5772 135.313 31.1629 135.234 30.7072 135.234C30.1189 135.234 29.6135 135.342 29.1909 135.558C28.7683 135.773 28.5611 136.08 28.5694 136.477C28.5611 136.759 28.6813 137.02 28.9299 137.26C29.1867 137.501 29.6797 137.687 30.4089 137.82L34.2868 138.516C36.2422 138.872 37.6964 139.473 38.6493 140.318C39.6105 141.155 40.0952 142.277 40.1035 143.686C40.0952 145.045 39.6892 146.226 38.8855 147.228C38.09 148.223 37.0004 148.993 35.6167 149.54C34.2412 150.079 32.671 150.348 30.9061 150.348C27.9894 150.348 25.7066 149.751 24.0577 148.558C22.4171 147.365 21.5015 145.791 21.3109 143.835H28.122C28.2131 144.44 28.5114 144.908 29.0169 145.24C29.5306 145.563 30.1769 145.724 30.9558 145.724C31.5855 145.724 32.1034 145.617 32.5094 145.401C32.9237 145.186 33.135 144.879 33.1433 144.482C33.135 144.117 32.9527 143.827 32.5964 143.612C32.2484 143.396 31.7015 143.222 30.9558 143.089L27.5751 142.493C25.6279 142.153 24.1696 141.507 23.2001 140.554C22.2306 139.601 21.7501 138.375 21.7583 136.875C21.7501 135.549 22.0981 134.426 22.8024 133.507C23.515 132.579 24.53 131.874 25.8475 131.394C27.1732 130.905 28.7434 130.661 30.5581 130.661C33.3173 130.661 35.4924 131.232 37.0833 132.376C38.6825 133.519 39.5235 135.102 39.6064 137.124ZM55.1115 141.648V130.909H61.9723V150H55.4595V146.371H55.2607C54.8464 147.589 54.1213 148.542 53.0856 149.229C52.0498 149.909 50.8194 150.249 49.3942 150.249C48.0601 150.249 46.8918 149.942 45.8892 149.329C44.8949 148.716 44.1201 147.871 43.565 146.793C43.0181 145.716 42.7405 144.482 42.7322 143.089V130.909H49.593V141.648C49.6013 142.592 49.8416 143.334 50.3139 143.873C50.7945 144.411 51.4657 144.68 52.3274 144.68C52.8991 144.68 53.3922 144.56 53.8065 144.32C54.229 144.071 54.5522 143.723 54.7759 143.276C55.0079 142.82 55.1198 142.277 55.1115 141.648ZM65.4617 157.159V130.909H72.2728V134.24H72.422C72.6705 133.594 73.0351 133.001 73.5157 132.463C73.9963 131.916 74.5929 131.481 75.3055 131.158C76.0181 130.826 76.8467 130.661 77.7913 130.661C79.0508 130.661 80.2481 130.996 81.3833 131.667C82.5267 132.338 83.4548 133.395 84.1673 134.837C84.8882 136.278 85.2487 138.151 85.2487 140.455C85.2487 142.659 84.9048 144.486 84.2171 145.936C83.5376 147.386 82.6262 148.467 81.4827 149.18C80.3475 149.892 79.1005 150.249 77.7416 150.249C76.8467 150.249 76.0471 150.104 75.3428 149.814C74.6468 149.515 74.0502 149.113 73.553 148.608C73.0641 148.094 72.6871 147.514 72.422 146.868H72.3225V157.159H65.4617ZM72.1734 140.455C72.1734 141.383 72.2935 142.186 72.5338 142.866C72.7824 143.537 73.1304 144.059 73.5779 144.432C74.0336 144.796 74.5763 144.979 75.2061 144.979C75.8358 144.979 76.3702 144.801 76.8094 144.444C77.2568 144.08 77.5966 143.562 77.8286 142.891C78.0689 142.211 78.189 141.399 78.189 140.455C78.189 139.51 78.0689 138.702 77.8286 138.031C77.5966 137.351 77.2568 136.834 76.8094 136.477C76.3702 136.113 75.8358 135.93 75.2061 135.93C74.5763 135.93 74.0336 136.113 73.5779 136.477C73.1304 136.834 72.7824 137.351 72.5338 138.031C72.2935 138.702 72.1734 139.51 72.1734 140.455ZM88.1229 157.159V130.909H94.9339V134.24H95.0831C95.3317 133.594 95.6963 133.001 96.1768 132.463C96.6574 131.916 97.254 131.481 97.9666 131.158C98.6792 130.826 99.5078 130.661 100.452 130.661C101.712 130.661 102.909 130.996 104.044 131.667C105.188 132.338 106.116 133.395 106.828 134.837C107.549 136.278 107.91 138.151 107.91 140.455C107.91 142.659 107.566 144.486 106.878 145.936C106.199 147.386 105.287 148.467 104.144 149.18C103.009 149.892 101.762 150.249 100.403 150.249C99.5078 150.249 98.7082 150.104 98.0039 149.814C97.3079 149.515 96.7113 149.113 96.2141 148.608C95.7253 148.094 95.3482 147.514 95.0831 146.868H94.9837V157.159H88.1229ZM94.8345 140.455C94.8345 141.383 94.9547 142.186 95.195 142.866C95.4435 143.537 95.7915 144.059 96.239 144.432C96.6947 144.796 97.2375 144.979 97.8672 144.979C98.4969 144.979 99.0314 144.801 99.4705 144.444C99.918 144.08 100.258 143.562 100.49 142.891C100.73 142.211 100.85 141.399 100.85 140.455C100.85 139.51 100.73 138.702 100.49 138.031C100.258 137.351 99.918 136.834 99.4705 136.477C99.0314 136.113 98.4969 135.93 97.8672 135.93C97.2375 135.93 96.6947 136.113 96.239 136.477C95.7915 136.834 95.4435 137.351 95.195 138.031C94.9547 138.702 94.8345 139.51 94.8345 140.455ZM119.981 150.348C117.91 150.348 116.137 149.938 114.662 149.118C113.187 148.289 112.056 147.137 111.269 145.662C110.482 144.179 110.088 142.46 110.088 140.504C110.088 138.549 110.482 136.834 111.269 135.359C112.056 133.875 113.187 132.724 114.662 131.903C116.137 131.075 117.91 130.661 119.981 130.661C122.053 130.661 123.826 131.075 125.301 131.903C126.776 132.724 127.907 133.875 128.694 135.359C129.481 136.834 129.875 138.549 129.875 140.504C129.875 142.46 129.481 144.179 128.694 145.662C127.907 147.137 126.776 148.289 125.301 149.118C123.826 149.938 122.053 150.348 119.981 150.348ZM120.031 145.277C120.611 145.277 121.112 145.082 121.535 144.693C121.958 144.303 122.285 143.748 122.517 143.027C122.749 142.306 122.865 141.449 122.865 140.455C122.865 139.452 122.749 138.594 122.517 137.882C122.285 137.161 121.958 136.606 121.535 136.216C121.112 135.827 120.611 135.632 120.031 135.632C119.418 135.632 118.892 135.827 118.453 136.216C118.014 136.606 117.678 137.161 117.446 137.882C117.214 138.594 117.098 139.452 117.098 140.455C117.098 141.449 117.214 142.306 117.446 143.027C117.678 143.748 118.014 144.303 118.453 144.693C118.892 145.082 119.418 145.277 120.031 145.277ZM132.659 150V130.909H139.321V134.538H139.52C139.868 133.196 140.419 132.214 141.173 131.593C141.935 130.971 142.826 130.661 143.845 130.661C144.143 130.661 144.438 130.685 144.728 130.735C145.026 130.777 145.312 130.839 145.585 130.922V136.776C145.245 136.66 144.827 136.573 144.33 136.515C143.833 136.457 143.406 136.428 143.05 136.428C142.378 136.428 141.774 136.581 141.235 136.887C140.705 137.186 140.286 137.608 139.98 138.155C139.673 138.694 139.52 139.328 139.52 140.057V150H132.659ZM160.006 130.909V135.881H147.428V130.909H160.006ZM149.864 126.335H156.725V143.86C156.725 144.125 156.77 144.349 156.861 144.531C156.952 144.705 157.093 144.838 157.284 144.929C157.474 145.012 157.719 145.053 158.017 145.053C158.224 145.053 158.465 145.028 158.738 144.979C159.02 144.929 159.227 144.888 159.36 144.854L160.354 149.677C160.047 149.768 159.608 149.88 159.036 150.012C158.473 150.145 157.802 150.232 157.023 150.273C155.449 150.356 154.127 150.195 153.058 149.789C151.989 149.374 151.185 148.724 150.647 147.837C150.108 146.951 149.847 145.84 149.864 144.506V126.335Z" fill="#330AFF"/>
<path d="M176.689 150.249C175.33 150.249 174.079 149.892 172.935 149.18C171.8 148.467 170.888 147.386 170.201 145.936C169.521 144.486 169.182 142.659 169.182 140.455C169.182 138.151 169.538 136.278 170.25 134.837C170.971 133.395 171.899 132.338 173.035 131.667C174.178 130.996 175.379 130.661 176.639 130.661C177.584 130.661 178.412 130.826 179.125 131.158C179.837 131.481 180.434 131.916 180.915 132.463C181.395 133.001 181.76 133.594 182.008 134.24H182.108V124.545H188.968V150H182.157V146.868H182.008C181.743 147.514 181.362 148.094 180.865 148.608C180.376 149.113 179.779 149.515 179.075 149.814C178.379 150.104 177.584 150.249 176.689 150.249ZM179.224 144.979C179.854 144.979 180.392 144.796 180.84 144.432C181.296 144.059 181.644 143.537 181.884 142.866C182.133 142.186 182.257 141.383 182.257 140.455C182.257 139.51 182.133 138.702 181.884 138.031C181.644 137.351 181.296 136.834 180.84 136.477C180.392 136.113 179.854 135.93 179.224 135.93C178.594 135.93 178.056 136.113 177.608 136.477C177.169 136.834 176.83 137.351 176.589 138.031C176.357 138.702 176.241 139.51 176.241 140.455C176.241 141.399 176.357 142.211 176.589 142.891C176.83 143.562 177.169 144.08 177.608 144.444C178.056 144.801 178.594 144.979 179.224 144.979ZM201.484 150.348C199.446 150.348 197.689 149.959 196.215 149.18C194.748 148.393 193.617 147.266 192.821 145.799C192.034 144.324 191.641 142.559 191.641 140.504C191.641 138.532 192.038 136.809 192.834 135.334C193.629 133.859 194.752 132.711 196.202 131.891C197.652 131.071 199.363 130.661 201.335 130.661C202.777 130.661 204.082 130.884 205.25 131.332C206.419 131.779 207.417 132.43 208.246 133.283C209.074 134.128 209.712 135.156 210.16 136.365C210.607 137.575 210.831 138.938 210.831 140.455V142.045H193.778V138.267H204.517C204.509 137.72 204.368 137.24 204.095 136.825C203.829 136.403 203.469 136.075 203.013 135.843C202.566 135.603 202.056 135.483 201.484 135.483C200.929 135.483 200.42 135.603 199.956 135.843C199.492 136.075 199.119 136.399 198.837 136.813C198.564 137.227 198.419 137.712 198.402 138.267V142.344C198.402 142.957 198.531 143.504 198.787 143.984C199.044 144.465 199.413 144.842 199.894 145.115C200.374 145.389 200.954 145.526 201.634 145.526C202.106 145.526 202.537 145.459 202.926 145.327C203.324 145.194 203.664 145.004 203.945 144.755C204.227 144.498 204.434 144.192 204.567 143.835H210.831C210.616 145.161 210.106 146.313 209.302 147.29C208.499 148.26 207.434 149.014 206.108 149.553C204.791 150.083 203.249 150.348 201.484 150.348ZM220.491 124.545V150H213.631V124.545H220.491ZM223.987 150V130.909H230.848V150H223.987ZM227.418 128.92C226.489 128.92 225.694 128.614 225.031 128.001C224.368 127.388 224.037 126.65 224.037 125.788C224.037 124.927 224.368 124.189 225.031 123.576C225.694 122.963 226.489 122.656 227.418 122.656C228.354 122.656 229.149 122.963 229.804 123.576C230.467 124.189 230.798 124.927 230.798 125.788C230.798 126.65 230.467 127.388 229.804 128.001C229.149 128.614 228.354 128.92 227.418 128.92ZM253.584 130.909L247.17 150H239.216L232.802 130.909H240.011L243.094 143.537H243.292L246.375 130.909H253.584ZM264.102 150.348C262.063 150.348 260.307 149.959 258.832 149.18C257.365 148.393 256.234 147.266 255.439 145.799C254.651 144.324 254.258 142.559 254.258 140.504C254.258 138.532 254.656 136.809 255.451 135.334C256.247 133.859 257.369 132.711 258.819 131.891C260.269 131.071 261.98 130.661 263.953 130.661C265.394 130.661 266.699 130.884 267.868 131.332C269.036 131.779 270.034 132.43 270.863 133.283C271.692 134.128 272.33 135.156 272.777 136.365C273.225 137.575 273.448 138.938 273.448 140.455V142.045H256.396V138.267H267.134C267.126 137.72 266.985 137.24 266.712 136.825C266.447 136.403 266.086 136.075 265.63 135.843C265.183 135.603 264.673 135.483 264.102 135.483C263.546 135.483 263.037 135.603 262.573 135.843C262.109 136.075 261.736 136.399 261.454 136.813C261.181 137.227 261.036 137.712 261.019 138.267V142.344C261.019 142.957 261.148 143.504 261.405 143.984C261.661 144.465 262.03 144.842 262.511 145.115C262.991 145.389 263.571 145.526 264.251 145.526C264.723 145.526 265.154 145.459 265.543 145.327C265.941 145.194 266.281 145.004 266.563 144.755C266.844 144.498 267.051 144.192 267.184 143.835H273.448C273.233 145.161 272.723 146.313 271.919 147.29C271.116 148.26 270.051 149.014 268.725 149.553C267.408 150.083 265.867 150.348 264.102 150.348ZM276.248 150V130.909H282.91V134.538H283.109C283.457 133.196 284.008 132.214 284.762 131.593C285.524 130.971 286.415 130.661 287.434 130.661C287.732 130.661 288.026 130.685 288.316 130.735C288.615 130.777 288.901 130.839 289.174 130.922V136.776C288.834 136.66 288.416 136.573 287.919 136.515C287.422 136.457 286.995 136.428 286.638 136.428C285.967 136.428 285.362 136.581 284.824 136.887C284.294 137.186 283.875 137.608 283.569 138.155C283.262 138.694 283.109 139.328 283.109 140.057V150H276.248ZM299.478 150.348C297.439 150.348 295.683 149.959 294.208 149.18C292.741 148.393 291.61 147.266 290.815 145.799C290.027 144.324 289.634 142.559 289.634 140.504C289.634 138.532 290.032 136.809 290.827 135.334C291.623 133.859 292.745 132.711 294.195 131.891C295.645 131.071 297.356 130.661 299.328 130.661C300.77 130.661 302.075 130.884 303.244 131.332C304.412 131.779 305.41 132.43 306.239 133.283C307.068 134.128 307.706 135.156 308.153 136.365C308.6 137.575 308.824 138.938 308.824 140.455V142.045H291.772V138.267H302.51C302.502 137.72 302.361 137.24 302.088 136.825C301.823 136.403 301.462 136.075 301.006 135.843C300.559 135.603 300.049 135.483 299.478 135.483C298.922 135.483 298.413 135.603 297.949 135.843C297.485 136.075 297.112 136.399 296.83 136.813C296.557 137.227 296.412 137.712 296.395 138.267V142.344C296.395 142.957 296.524 143.504 296.781 143.984C297.037 144.465 297.406 144.842 297.887 145.115C298.367 145.389 298.947 145.526 299.627 145.526C300.099 145.526 300.53 145.459 300.919 145.327C301.317 145.194 301.657 145.004 301.939 144.755C302.22 144.498 302.427 144.192 302.56 143.835H308.824C308.609 145.161 308.099 146.313 307.295 147.29C306.492 148.26 305.427 149.014 304.101 149.553C302.784 150.083 301.243 150.348 299.478 150.348ZM318.534 150.249C317.175 150.249 315.924 149.892 314.781 149.18C313.646 148.467 312.734 147.386 312.046 145.936C311.367 144.486 311.027 142.659 311.027 140.455C311.027 138.151 311.384 136.278 312.096 134.837C312.817 133.395 313.745 132.338 314.88 131.667C316.024 130.996 317.225 130.661 318.485 130.661C319.429 130.661 320.258 130.826 320.97 131.158C321.683 131.481 322.28 131.916 322.76 132.463C323.241 133.001 323.605 133.594 323.854 134.24H323.953V124.545H330.814V150H324.003V146.868H323.854C323.589 147.514 323.208 148.094 322.71 148.608C322.222 149.113 321.625 149.515 320.921 149.814C320.225 150.104 319.429 150.249 318.534 150.249ZM321.07 144.979C321.7 144.979 322.238 144.796 322.686 144.432C323.141 144.059 323.489 143.537 323.73 142.866C323.978 142.186 324.103 141.383 324.103 140.455C324.103 139.51 323.978 138.702 323.73 138.031C323.489 137.351 323.141 136.834 322.686 136.477C322.238 136.113 321.7 135.93 321.07 135.93C320.44 135.93 319.902 136.113 319.454 136.477C319.015 136.834 318.675 137.351 318.435 138.031C318.203 138.702 318.087 139.51 318.087 140.455C318.087 141.399 318.203 142.211 318.435 142.891C318.675 143.562 319.015 144.08 319.454 144.444C319.902 144.801 320.44 144.979 321.07 144.979ZM341.056 150V124.545H347.916V134.24H348.016C348.264 133.594 348.629 133.001 349.11 132.463C349.59 131.916 350.187 131.481 350.899 131.158C351.612 130.826 352.441 130.661 353.385 130.661C354.645 130.661 355.842 130.996 356.977 131.667C358.121 132.338 359.049 133.395 359.761 134.837C360.482 136.278 360.843 138.151 360.843 140.455C360.843 142.659 360.499 144.486 359.811 145.936C359.132 147.386 358.22 148.467 357.077 149.18C355.941 149.892 354.694 150.249 353.335 150.249C352.441 150.249 351.641 150.104 350.937 149.814C350.241 149.515 349.644 149.113 349.147 148.608C348.658 148.094 348.281 147.514 348.016 146.868H347.867V150H341.056ZM347.767 140.455C347.767 141.383 347.887 142.186 348.128 142.866C348.376 143.537 348.724 144.059 349.172 144.432C349.628 144.796 350.17 144.979 350.8 144.979C351.43 144.979 351.964 144.801 352.403 144.444C352.851 144.08 353.19 143.562 353.422 142.891C353.663 142.211 353.783 141.399 353.783 140.455C353.783 139.51 353.663 138.702 353.422 138.031C353.19 137.351 352.851 136.834 352.403 136.477C351.964 136.113 351.43 135.93 350.8 135.93C350.17 135.93 349.628 136.113 349.172 136.477C348.724 136.834 348.376 137.351 348.128 138.031C347.887 138.702 347.767 139.51 347.767 140.455ZM367.309 157.159C366.522 157.159 365.772 157.097 365.059 156.973C364.347 156.857 363.721 156.695 363.182 156.488L364.674 151.616C365.237 151.815 365.751 151.943 366.215 152.001C366.687 152.059 367.089 152.026 367.421 151.902C367.76 151.777 368.005 151.541 368.154 151.193L368.303 150.845L361.591 130.909H368.751L371.833 144.134H372.032L375.164 130.909H382.373L375.412 151.591C375.064 152.643 374.559 153.588 373.896 154.425C373.242 155.27 372.38 155.937 371.311 156.426C370.242 156.915 368.908 157.159 367.309 157.159ZM8.96271 192V172.909H15.6246V176.538H15.8235C16.1715 175.196 16.7225 174.214 17.4766 173.593C18.2389 172.971 19.1296 172.661 20.1488 172.661C20.4471 172.661 20.7412 172.685 21.0312 172.735C21.3295 172.777 21.6154 172.839 21.8888 172.922V178.776C21.5491 178.66 21.1307 178.573 20.6335 178.515C20.1364 178.457 19.7096 178.428 19.3533 178.428C18.6822 178.428 18.0773 178.581 17.5387 178.887C17.0084 179.186 16.59 179.608 16.2834 180.155C15.9768 180.694 15.8235 181.328 15.8235 182.057V192H8.96271ZM32.1925 192.348C30.1541 192.348 28.3975 191.959 26.9226 191.18C25.456 190.393 24.3249 189.266 23.5295 187.799C22.7423 186.324 22.3487 184.559 22.3487 182.504C22.3487 180.532 22.7464 178.809 23.5419 177.334C24.3374 175.859 25.4601 174.711 26.9102 173.891C28.3602 173.071 30.0713 172.661 32.0433 172.661C33.4851 172.661 34.7901 172.884 35.9585 173.332C37.1268 173.779 38.1252 174.43 38.9538 175.283C39.7824 176.128 40.4205 177.156 40.8679 178.365C41.3153 179.575 41.5391 180.938 41.5391 182.455V184.045H24.4865V180.267H35.2251C35.2169 179.72 35.076 179.24 34.8026 178.825C34.5374 178.403 34.177 178.075 33.7212 177.843C33.2738 177.603 32.7642 177.483 32.1925 177.483C31.6373 177.483 31.1277 177.603 30.6637 177.843C30.1997 178.075 29.8268 178.399 29.5451 178.813C29.2717 179.227 29.1267 179.712 29.1101 180.267V184.344C29.1101 184.957 29.2385 185.504 29.4954 185.984C29.7522 186.465 30.121 186.842 30.6016 187.115C31.0821 187.389 31.6622 187.526 32.3416 187.526C32.8139 187.526 33.2448 187.459 33.6342 187.327C34.032 187.194 34.3717 187.004 34.6534 186.755C34.9351 186.498 35.1423 186.192 35.2749 185.835H41.5391C41.3236 187.161 40.814 188.313 40.0103 189.29C39.2066 190.26 38.1418 191.014 36.8161 191.553C35.4986 192.083 33.9574 192.348 32.1925 192.348ZM49.6583 192.298C48.4403 192.298 47.3631 192.099 46.4268 191.702C45.4987 191.296 44.7696 190.683 44.2393 189.862C43.709 189.042 43.4438 187.998 43.4438 186.73C43.4438 185.686 43.622 184.795 43.9782 184.058C44.3345 183.312 44.8317 182.703 45.4697 182.231C46.1077 181.759 46.8493 181.398 47.6945 181.15C48.548 180.901 49.4677 180.739 50.4537 180.665C51.5226 180.582 52.3802 180.482 53.0265 180.366C53.6811 180.242 54.1534 180.072 54.4434 179.857C54.7335 179.633 54.8785 179.339 54.8785 178.974V178.925C54.8785 178.428 54.6879 178.046 54.3067 177.781C53.9256 177.516 53.4367 177.384 52.8401 177.384C52.1855 177.384 51.6511 177.529 51.2368 177.819C50.8308 178.1 50.5863 178.535 50.5035 179.124H44.1895C44.2724 177.964 44.6411 176.895 45.2957 175.917C45.9586 174.931 46.9239 174.144 48.1917 173.555C49.4594 172.959 51.0421 172.661 52.9395 172.661C54.3067 172.661 55.5331 172.822 56.6185 173.145C57.704 173.46 58.6279 173.903 59.3902 174.475C60.1525 175.039 60.7325 175.701 61.1302 176.464C61.5363 177.218 61.7393 178.038 61.7393 178.925V192H55.3259V189.315H55.1768C54.7956 190.028 54.3316 190.604 53.7847 191.043C53.2461 191.482 52.6288 191.801 51.9328 192C51.2451 192.199 50.4869 192.298 49.6583 192.298ZM51.8955 187.973C52.4175 187.973 52.9064 187.865 53.3621 187.65C53.8261 187.434 54.2032 187.124 54.4932 186.718C54.7832 186.312 54.9282 185.819 54.9282 185.239V183.648C54.7459 183.722 54.5512 183.793 54.344 183.859C54.1452 183.925 53.9297 183.987 53.6977 184.045C53.474 184.103 53.2337 184.157 52.9768 184.207C52.7283 184.257 52.4672 184.302 52.1938 184.344C51.6635 184.427 51.2285 184.563 50.8888 184.754C50.5573 184.936 50.3087 185.164 50.143 185.438C49.9856 185.703 49.9069 186.001 49.9069 186.332C49.9069 186.863 50.0933 187.269 50.4662 187.55C50.839 187.832 51.3155 187.973 51.8955 187.973ZM71.8782 166.545V192H65.0174V166.545H71.8782ZM91.5439 199.557C89.6299 199.557 87.9893 199.283 86.6221 198.737C85.2632 198.198 84.2067 197.452 83.4527 196.499C82.7069 195.555 82.2885 194.469 82.1974 193.243H88.8096C88.8759 193.649 89.0416 193.976 89.3067 194.225C89.5719 194.473 89.9116 194.652 90.3259 194.759C90.7485 194.875 91.2208 194.933 91.7428 194.933C92.6294 194.933 93.3627 194.718 93.9427 194.287C94.531 193.856 94.8252 193.077 94.8252 191.95V188.719H94.6263C94.3778 189.365 93.9966 189.916 93.4829 190.372C92.9691 190.819 92.3518 191.163 91.6309 191.403C90.9101 191.635 90.1188 191.751 89.257 191.751C87.8981 191.751 86.6469 191.437 85.5035 190.807C84.3683 190.177 83.4568 189.179 82.7691 187.811C82.0896 186.444 81.7499 184.659 81.7499 182.455C81.7499 180.151 82.1062 178.278 82.8188 176.837C83.5397 175.395 84.4677 174.338 85.6029 173.667C86.7464 172.996 87.9478 172.661 89.2073 172.661C90.1519 172.661 90.9805 172.826 91.6931 173.158C92.4057 173.481 93.0023 173.916 93.4829 174.463C93.9635 175.001 94.328 175.594 94.5766 176.24H94.7258V172.909H101.587V191.95C101.587 193.566 101.168 194.937 100.331 196.064C99.5026 197.199 98.3343 198.065 96.8263 198.662C95.3182 199.259 93.5574 199.557 91.5439 199.557ZM91.7925 186.879C92.4223 186.879 92.9608 186.705 93.4083 186.357C93.864 186.001 94.212 185.496 94.4523 184.841C94.7009 184.178 94.8252 183.383 94.8252 182.455C94.8252 181.51 94.7009 180.702 94.4523 180.031C94.212 179.351 93.864 178.834 93.4083 178.477C92.9608 178.113 92.4223 177.93 91.7925 177.93C91.1628 177.93 90.6242 178.113 90.1768 178.477C89.7376 178.834 89.3979 179.351 89.1576 180.031C88.9256 180.702 88.8096 181.51 88.8096 182.455C88.8096 183.399 88.9256 184.203 89.1576 184.866C89.3979 185.52 89.7376 186.022 90.1768 186.37C90.6242 186.709 91.1628 186.879 91.7925 186.879ZM105.076 192V172.909H111.738V176.538H111.937C112.285 175.196 112.836 174.214 113.59 173.593C114.352 172.971 115.243 172.661 116.262 172.661C116.56 172.661 116.855 172.685 117.145 172.735C117.443 172.777 117.729 172.839 118.002 172.922V178.776C117.662 178.66 117.244 178.573 116.747 178.515C116.25 178.457 115.823 178.428 115.467 178.428C114.795 178.428 114.191 178.581 113.652 178.887C113.122 179.186 112.703 179.608 112.397 180.155C112.09 180.694 111.937 181.328 111.937 182.057V192H105.076ZM128.355 192.348C126.284 192.348 124.511 191.938 123.036 191.118C121.561 190.289 120.43 189.137 119.643 187.662C118.856 186.179 118.462 184.46 118.462 182.504C118.462 180.549 118.856 178.834 119.643 177.359C120.43 175.875 121.561 174.724 123.036 173.903C124.511 173.075 126.284 172.661 128.355 172.661C130.427 172.661 132.2 173.075 133.675 173.903C135.15 174.724 136.281 175.875 137.068 177.359C137.855 178.834 138.249 180.549 138.249 182.504C138.249 184.46 137.855 186.179 137.068 187.662C136.281 189.137 135.15 190.289 133.675 191.118C132.2 191.938 130.427 192.348 128.355 192.348ZM128.405 187.277C128.985 187.277 129.487 187.082 129.909 186.693C130.332 186.303 130.659 185.748 130.891 185.027C131.123 184.306 131.239 183.449 131.239 182.455C131.239 181.452 131.123 180.594 130.891 179.882C130.659 179.161 130.332 178.606 129.909 178.216C129.487 177.827 128.985 177.632 128.405 177.632C127.792 177.632 127.266 177.827 126.827 178.216C126.388 178.606 126.052 179.161 125.82 179.882C125.588 180.594 125.472 181.452 125.472 182.455C125.472 183.449 125.588 184.306 125.82 185.027C126.052 185.748 126.388 186.303 126.827 186.693C127.266 187.082 127.792 187.277 128.405 187.277ZM144.072 192L139.299 172.909H146.16L148.347 184.543H148.497L150.933 172.909H157.595L160.13 184.443H160.279L162.367 172.909H169.228L164.455 192H157.048L154.363 181.759H154.164L151.48 192H144.072ZM182.701 172.909V177.881H170.123V172.909H182.701ZM172.559 168.335H179.42V185.86C179.42 186.125 179.465 186.349 179.557 186.531C179.648 186.705 179.789 186.838 179.979 186.929C180.17 187.012 180.414 187.053 180.713 187.053C180.92 187.053 181.16 187.028 181.433 186.979C181.715 186.929 181.922 186.888 182.055 186.854L183.049 191.677C182.743 191.768 182.303 191.88 181.732 192.012C181.168 192.145 180.497 192.232 179.718 192.273C178.144 192.356 176.822 192.195 175.753 191.789C174.684 191.374 173.881 190.724 173.342 189.837C172.804 188.951 172.543 187.84 172.559 186.506V168.335ZM192.772 181.261V192H185.911V166.545H192.523V176.538H192.722C193.153 175.32 193.87 174.372 194.872 173.692C195.875 173.004 197.08 172.661 198.489 172.661C199.84 172.661 201.012 172.967 202.006 173.58C203.009 174.193 203.784 175.039 204.331 176.116C204.886 177.193 205.159 178.428 205.151 179.82V192H198.29V181.261C198.299 180.317 198.062 179.575 197.582 179.037C197.109 178.498 196.434 178.229 195.556 178.229C195.001 178.229 194.512 178.353 194.089 178.602C193.675 178.842 193.352 179.19 193.12 179.646C192.896 180.093 192.78 180.632 192.772 181.261ZM232.961 179.124H226.647C226.614 178.734 226.477 178.399 226.237 178.117C225.996 177.835 225.686 177.62 225.305 177.471C224.932 177.313 224.517 177.234 224.062 177.234C223.473 177.234 222.968 177.342 222.545 177.558C222.123 177.773 221.916 178.08 221.924 178.477C221.916 178.759 222.036 179.02 222.284 179.26C222.541 179.501 223.034 179.687 223.763 179.82L227.641 180.516C229.597 180.872 231.051 181.473 232.004 182.318C232.965 183.155 233.45 184.277 233.458 185.686C233.45 187.045 233.044 188.226 232.24 189.228C231.445 190.223 230.355 190.993 228.971 191.54C227.596 192.079 226.025 192.348 224.261 192.348C221.344 192.348 219.061 191.751 217.412 190.558C215.772 189.365 214.856 187.791 214.665 185.835H221.476C221.568 186.44 221.866 186.908 222.371 187.24C222.885 187.563 223.531 187.724 224.31 187.724C224.94 187.724 225.458 187.617 225.864 187.401C226.278 187.186 226.489 186.879 226.498 186.482C226.489 186.117 226.307 185.827 225.951 185.612C225.603 185.396 225.056 185.222 224.31 185.089L220.93 184.493C218.982 184.153 217.524 183.507 216.555 182.554C215.585 181.601 215.105 180.375 215.113 178.875C215.105 177.549 215.453 176.426 216.157 175.507C216.869 174.579 217.884 173.874 219.202 173.394C220.528 172.905 222.098 172.661 223.913 172.661C226.672 172.661 228.847 173.232 230.438 174.376C232.037 175.519 232.878 177.102 232.961 179.124ZM247.472 172.909V177.881H234.894V172.909H247.472ZM237.33 168.335H244.19V185.86C244.19 186.125 244.236 186.349 244.327 186.531C244.418 186.705 244.559 186.838 244.75 186.929C244.94 187.012 245.185 187.053 245.483 187.053C245.69 187.053 245.93 187.028 246.204 186.979C246.486 186.929 246.693 186.888 246.825 186.854L247.82 191.677C247.513 191.768 247.074 191.88 246.502 192.012C245.939 192.145 245.268 192.232 244.489 192.273C242.914 192.356 241.593 192.195 240.524 191.789C239.455 191.374 238.651 190.724 238.113 189.837C237.574 188.951 237.313 187.84 237.33 186.506V168.335ZM250.271 192V172.909H256.933V176.538H257.132C257.48 175.196 258.031 174.214 258.785 173.593C259.547 172.971 260.438 172.661 261.457 172.661C261.756 172.661 262.05 172.685 262.34 172.735C262.638 172.777 262.924 172.839 263.197 172.922V178.776C262.858 178.66 262.439 178.573 261.942 178.515C261.445 178.457 261.018 178.428 260.662 178.428C259.991 178.428 259.386 178.581 258.847 178.887C258.317 179.186 257.899 179.608 257.592 180.155C257.285 180.694 257.132 181.328 257.132 182.057V192H250.271ZM269.878 192.298C268.66 192.298 267.583 192.099 266.646 191.702C265.718 191.296 264.989 190.683 264.459 189.862C263.929 189.042 263.664 187.998 263.664 186.73C263.664 185.686 263.842 184.795 264.198 184.058C264.554 183.312 265.051 182.703 265.689 182.231C266.327 181.759 267.069 181.398 267.914 181.15C268.768 180.901 269.687 180.739 270.673 180.665C271.742 180.582 272.6 180.482 273.246 180.366C273.901 180.242 274.373 180.072 274.663 179.857C274.953 179.633 275.098 179.339 275.098 178.974V178.925C275.098 178.428 274.908 178.046 274.526 177.781C274.145 177.516 273.656 177.384 273.06 177.384C272.405 177.384 271.871 177.529 271.456 177.819C271.05 178.1 270.806 178.535 270.723 179.124H264.409C264.492 177.964 264.861 176.895 265.515 175.917C266.178 174.931 267.144 174.144 268.411 173.555C269.679 172.959 271.262 172.661 273.159 172.661C274.526 172.661 275.753 172.822 276.838 173.145C277.924 173.46 278.848 173.903 279.61 174.475C280.372 175.039 280.952 175.701 281.35 176.464C281.756 177.218 281.959 178.038 281.959 178.925V192H275.546V189.315H275.396C275.015 190.028 274.551 190.604 274.004 191.043C273.466 191.482 272.849 191.801 272.153 192C271.465 192.199 270.707 192.298 269.878 192.298ZM272.115 187.973C272.637 187.973 273.126 187.865 273.582 187.65C274.046 187.434 274.423 187.124 274.713 186.718C275.003 186.312 275.148 185.819 275.148 185.239V183.648C274.966 183.722 274.771 183.793 274.564 183.859C274.365 183.925 274.149 183.987 273.917 184.045C273.694 184.103 273.453 184.157 273.197 184.207C272.948 184.257 272.687 184.302 272.414 184.344C271.883 184.427 271.448 184.563 271.108 184.754C270.777 184.936 270.528 185.164 270.363 185.438C270.205 185.703 270.127 186.001 270.127 186.332C270.127 186.863 270.313 187.269 270.686 187.55C271.059 187.832 271.535 187.973 272.115 187.973ZM296.622 172.909V177.881H284.044V172.909H296.622ZM286.48 168.335H293.341V185.86C293.341 186.125 293.386 186.349 293.478 186.531C293.569 186.705 293.71 186.838 293.9 186.929C294.091 187.012 294.335 187.053 294.633 187.053C294.841 187.053 295.081 187.028 295.354 186.979C295.636 186.929 295.843 186.888 295.976 186.854L296.97 191.677C296.664 191.768 296.224 191.88 295.653 192.012C295.089 192.145 294.418 192.232 293.639 192.273C292.065 192.356 290.743 192.195 289.674 191.789C288.605 191.374 287.802 190.724 287.263 189.837C286.724 188.951 286.463 187.84 286.48 186.506V168.335ZM308.364 192.348C306.326 192.348 304.569 191.959 303.094 191.18C301.628 190.393 300.497 189.266 299.701 187.799C298.914 186.324 298.521 184.559 298.521 182.504C298.521 180.532 298.918 178.809 299.714 177.334C300.509 175.859 301.632 174.711 303.082 173.891C304.532 173.071 306.243 172.661 308.215 172.661C309.657 172.661 310.962 172.884 312.13 173.332C313.299 173.779 314.297 174.43 315.126 175.283C315.954 176.128 316.592 177.156 317.04 178.365C317.487 179.575 317.711 180.938 317.711 182.455V184.045H300.658V180.267H311.397C311.389 179.72 311.248 179.24 310.974 178.825C310.709 178.403 310.349 178.075 309.893 177.843C309.446 177.603 308.936 177.483 308.364 177.483C307.809 177.483 307.3 177.603 306.836 177.843C306.372 178.075 305.999 178.399 305.717 178.813C305.444 179.227 305.299 179.712 305.282 180.267V184.344C305.282 184.957 305.41 185.504 305.667 185.984C305.924 186.465 306.293 186.842 306.773 187.115C307.254 187.389 307.834 187.526 308.513 187.526C308.986 187.526 309.417 187.459 309.806 187.327C310.204 187.194 310.544 187.004 310.825 186.755C311.107 186.498 311.314 186.192 311.447 185.835H317.711C317.496 187.161 316.986 188.313 316.182 189.29C315.378 190.26 314.314 191.014 312.988 191.553C311.67 192.083 310.129 192.348 308.364 192.348ZM329.708 199.557C327.794 199.557 326.153 199.283 324.786 198.737C323.427 198.198 322.371 197.452 321.617 196.499C320.871 195.555 320.453 194.469 320.361 193.243H326.974C327.04 193.649 327.206 193.976 327.471 194.225C327.736 194.473 328.076 194.652 328.49 194.759C328.913 194.875 329.385 194.933 329.907 194.933C330.793 194.933 331.527 194.718 332.107 194.287C332.695 193.856 332.989 193.077 332.989 191.95V188.719H332.79C332.542 189.365 332.161 189.916 331.647 190.372C331.133 190.819 330.516 191.163 329.795 191.403C329.074 191.635 328.283 191.751 327.421 191.751C326.062 191.751 324.811 191.437 323.668 190.807C322.532 190.177 321.621 189.179 320.933 187.811C320.254 186.444 319.914 184.659 319.914 182.455C319.914 180.151 320.27 178.278 320.983 176.837C321.704 175.395 322.632 174.338 323.767 173.667C324.91 172.996 326.112 172.661 327.371 172.661C328.316 172.661 329.145 172.826 329.857 173.158C330.57 173.481 331.166 173.916 331.647 174.463C332.128 175.001 332.492 175.594 332.741 176.24H332.89V172.909H339.751V191.95C339.751 193.566 339.332 194.937 338.495 196.064C337.667 197.199 336.498 198.065 334.99 198.662C333.482 199.259 331.722 199.557 329.708 199.557ZM329.957 186.879C330.586 186.879 331.125 186.705 331.572 186.357C332.028 186.001 332.376 185.496 332.616 184.841C332.865 184.178 332.989 183.383 332.989 182.455C332.989 181.51 332.865 180.702 332.616 180.031C332.376 179.351 332.028 178.834 331.572 178.477C331.125 178.113 330.586 177.93 329.957 177.93C329.327 177.93 328.788 178.113 328.341 178.477C327.902 178.834 327.562 179.351 327.322 180.031C327.09 180.702 326.974 181.51 326.974 182.455C326.974 183.399 327.09 184.203 327.322 184.866C327.562 185.52 327.902 186.022 328.341 186.37C328.788 186.709 329.327 186.879 329.957 186.879ZM343.24 192V172.909H350.101V192H343.24ZM346.67 170.92C345.742 170.92 344.947 170.614 344.284 170.001C343.621 169.388 343.29 168.65 343.29 167.788C343.29 166.927 343.621 166.189 344.284 165.576C344.947 164.963 345.742 164.656 346.67 164.656C347.607 164.656 348.402 164.963 349.057 165.576C349.72 166.189 350.051 166.927 350.051 167.788C350.051 168.65 349.72 169.388 349.057 170.001C348.402 170.614 347.607 170.92 346.67 170.92ZM371.047 179.124H364.733C364.7 178.734 364.563 178.399 364.323 178.117C364.082 177.835 363.772 177.62 363.391 177.471C363.018 177.313 362.603 177.234 362.148 177.234C361.559 177.234 361.054 177.342 360.631 177.558C360.209 177.773 360.002 178.08 360.01 178.477C360.002 178.759 360.122 179.02 360.37 179.26C360.627 179.501 361.12 179.687 361.849 179.82L365.727 180.516C367.683 180.872 369.137 181.473 370.09 182.318C371.051 183.155 371.536 184.277 371.544 185.686C371.536 187.045 371.13 188.226 370.326 189.228C369.53 190.223 368.441 190.993 367.057 191.54C365.682 192.079 364.111 192.348 362.347 192.348C359.43 192.348 357.147 191.751 355.498 190.558C353.858 189.365 352.942 187.791 352.751 185.835H359.562C359.654 186.44 359.952 186.908 360.457 187.24C360.971 187.563 361.617 187.724 362.396 187.724C363.026 187.724 363.544 187.617 363.95 187.401C364.364 187.186 364.575 186.879 364.584 186.482C364.575 186.117 364.393 185.827 364.037 185.612C363.689 185.396 363.142 185.222 362.396 185.089L359.016 184.493C357.068 184.153 355.61 183.507 354.641 182.554C353.671 181.601 353.19 180.375 353.199 178.875C353.19 177.549 353.539 176.426 354.243 175.507C354.955 174.579 355.97 173.874 357.288 173.394C358.614 172.905 360.184 172.661 361.998 172.661C364.758 172.661 366.933 173.232 368.524 174.376C370.123 175.519 370.964 177.102 371.047 179.124ZM385.558 172.909V177.881H372.979V172.909H385.558ZM375.416 168.335H382.276V185.86C382.276 186.125 382.322 186.349 382.413 186.531C382.504 186.705 382.645 186.838 382.836 186.929C383.026 187.012 383.271 187.053 383.569 187.053C383.776 187.053 384.016 187.028 384.29 186.979C384.572 186.929 384.779 186.888 384.911 186.854L385.906 191.677C385.599 191.768 385.16 191.88 384.588 192.012C384.025 192.145 383.354 192.232 382.575 192.273C381 192.356 379.679 192.195 378.61 191.789C377.541 191.374 376.737 190.724 376.199 189.837C375.66 188.951 375.399 187.84 375.416 186.506V168.335ZM395.019 188.52L394.92 189.912C394.837 191.105 394.638 192.249 394.323 193.342C394.017 194.436 393.689 195.406 393.341 196.251C393.002 197.096 392.732 197.75 392.533 198.214H388.308C388.44 197.75 388.627 197.079 388.867 196.201C389.115 195.331 389.339 194.345 389.538 193.243C389.745 192.149 389.849 191.039 389.849 189.912V188.52H395.019ZM13.1746 223.261V234H6.31379V214.909H12.8266V218.538H13.0254C13.4397 217.329 14.1689 216.38 15.2129 215.692C16.2653 215.004 17.4916 214.661 18.8919 214.661C20.2425 214.661 21.415 214.971 22.4093 215.593C23.4119 216.206 24.1867 217.051 24.7335 218.128C25.2887 219.205 25.5621 220.436 25.5538 221.82V234H18.693V223.261C18.7013 222.317 18.461 221.575 17.9722 221.037C17.4916 220.498 16.8204 220.229 15.9587 220.229C15.3952 220.229 14.9022 220.353 14.4796 220.602C14.0653 220.842 13.7463 221.19 13.5226 221.646C13.2989 222.093 13.1829 222.632 13.1746 223.261ZM38.1382 234.348C36.0667 234.348 34.2935 233.938 32.8186 233.118C31.3437 232.289 30.2126 231.137 29.4255 229.662C28.6383 228.179 28.2447 226.46 28.2447 224.504C28.2447 222.549 28.6383 220.834 29.4255 219.359C30.2126 217.875 31.3437 216.724 32.8186 215.903C34.2935 215.075 36.0667 214.661 38.1382 214.661C40.2097 214.661 41.9829 215.075 43.4578 215.903C44.9327 216.724 46.0637 217.875 46.8509 219.359C47.6381 220.834 48.0317 222.549 48.0317 224.504C48.0317 226.46 47.6381 228.179 46.8509 229.662C46.0637 231.137 44.9327 232.289 43.4578 233.118C41.9829 233.938 40.2097 234.348 38.1382 234.348ZM38.1879 229.277C38.7679 229.277 39.2692 229.082 39.6918 228.693C40.1144 228.303 40.4417 227.748 40.6737 227.027C40.9057 226.306 41.0217 225.449 41.0217 224.455C41.0217 223.452 40.9057 222.594 40.6737 221.882C40.4417 221.161 40.1144 220.606 39.6918 220.216C39.2692 219.827 38.7679 219.632 38.1879 219.632C37.5747 219.632 37.0486 219.827 36.6094 220.216C36.1703 220.606 35.8347 221.161 35.6027 221.882C35.3707 222.594 35.2547 223.452 35.2547 224.455C35.2547 225.449 35.3707 226.306 35.6027 227.027C35.8347 227.748 36.1703 228.303 36.6094 228.693C37.0486 229.082 37.5747 229.277 38.1879 229.277ZM62.2007 214.909V219.881H49.6226V214.909H62.2007ZM52.0586 210.335H58.9194V227.86C58.9194 228.125 58.965 228.349 59.0562 228.531C59.1473 228.705 59.2882 228.838 59.4787 228.929C59.6693 229.012 59.9138 229.053 60.212 229.053C60.4192 229.053 60.6595 229.028 60.9329 228.979C61.2147 228.929 61.4218 228.888 61.5544 228.854L62.5487 233.677C62.2421 233.768 61.803 233.88 61.2312 234.012C60.6678 234.145 59.9966 234.232 59.2177 234.273C57.6434 234.356 56.3218 234.195 55.2529 233.789C54.184 233.374 53.3803 232.724 52.8417 231.837C52.3031 230.951 52.0421 229.84 52.0586 228.506V210.335ZM77.2926 234.298C76.0745 234.298 74.9974 234.099 74.061 233.702C73.133 233.296 72.4038 232.683 71.8735 231.862C71.3432 231.042 71.0781 229.998 71.0781 228.73C71.0781 227.686 71.2562 226.795 71.6125 226.058C71.9688 225.312 72.466 224.703 73.104 224.231C73.742 223.759 74.4836 223.398 75.3288 223.15C76.1822 222.901 77.102 222.739 78.088 222.665C79.1569 222.582 80.0145 222.482 80.6608 222.366C81.3154 222.242 81.7877 222.072 82.0777 221.857C82.3677 221.633 82.5127 221.339 82.5127 220.974V220.925C82.5127 220.428 82.3222 220.046 81.941 219.781C81.5599 219.516 81.071 219.384 80.4744 219.384C79.8198 219.384 79.2853 219.529 78.871 219.819C78.465 220.1 78.2206 220.535 78.1377 221.124H71.8238C71.9067 219.964 72.2754 218.895 72.93 217.917C73.5929 216.931 74.5582 216.144 75.826 215.555C77.0937 214.959 78.6763 214.661 80.5738 214.661C81.941 214.661 83.1673 214.822 84.2528 215.145C85.3383 215.46 86.2621 215.903 87.0245 216.475C87.7868 217.039 88.3668 217.701 88.7645 218.464C89.1705 219.218 89.3735 220.038 89.3735 220.925V234H82.9602V231.315H82.811C82.4299 232.028 81.9659 232.604 81.419 233.043C80.8804 233.482 80.2631 233.801 79.5671 234C78.8793 234.199 78.1212 234.298 77.2926 234.298ZM79.5298 229.973C80.0518 229.973 80.5407 229.865 80.9964 229.65C81.4604 229.434 81.8374 229.124 82.1274 228.718C82.4175 228.312 82.5625 227.819 82.5625 227.239V225.648C82.3802 225.722 82.1854 225.793 81.9783 225.859C81.7794 225.925 81.564 225.987 81.332 226.045C81.1083 226.103 80.868 226.157 80.6111 226.207C80.3625 226.257 80.1015 226.302 79.8281 226.344C79.2978 226.427 78.8628 226.563 78.523 226.754C78.1916 226.936 77.943 227.164 77.7773 227.438C77.6199 227.703 77.5411 228.001 77.5411 228.332C77.5411 228.863 77.7276 229.269 78.1005 229.55C78.4733 229.832 78.9498 229.973 79.5298 229.973ZM101.849 234.348C99.7776 234.348 98.0044 233.938 96.5295 233.118C95.0546 232.289 93.9236 231.137 93.1364 229.662C92.3492 228.179 91.9557 226.46 91.9557 224.504C91.9557 222.549 92.3492 220.834 93.1364 219.359C93.9236 217.875 95.0546 216.724 96.5295 215.903C98.0044 215.075 99.7776 214.661 101.849 214.661C103.722 214.661 105.342 215 106.709 215.68C108.084 216.351 109.149 217.304 109.903 218.538C110.657 219.765 111.038 221.206 111.047 222.864H104.683C104.592 221.861 104.302 221.099 103.813 220.577C103.332 220.046 102.711 219.781 101.949 219.781C101.352 219.781 100.83 219.955 100.383 220.303C99.9351 220.643 99.587 221.161 99.3385 221.857C99.0899 222.545 98.9656 223.411 98.9656 224.455C98.9656 225.499 99.0899 226.369 99.3385 227.065C99.587 227.752 99.9351 228.27 100.383 228.618C100.83 228.958 101.352 229.128 101.949 229.128C102.454 229.128 102.901 229.012 103.291 228.78C103.68 228.54 103.995 228.192 104.235 227.736C104.484 227.272 104.633 226.708 104.683 226.045H111.047C111.022 227.728 110.636 229.194 109.891 230.445C109.145 231.688 108.088 232.649 106.721 233.329C105.362 234.008 103.738 234.348 101.849 234.348ZM123.075 234.348C121.003 234.348 119.23 233.938 117.755 233.118C116.28 232.289 115.149 231.137 114.362 229.662C113.575 228.179 113.181 226.46 113.181 224.504C113.181 222.549 113.575 220.834 114.362 219.359C115.149 217.875 116.28 216.724 117.755 215.903C119.23 215.075 121.003 214.661 123.075 214.661C124.947 214.661 126.567 215 127.934 215.68C129.31 216.351 130.375 217.304 131.129 218.538C131.883 219.765 132.264 221.206 132.272 222.864H125.909C125.817 221.861 125.527 221.099 125.038 220.577C124.558 220.046 123.936 219.781 123.174 219.781C122.578 219.781 122.056 219.955 121.608 220.303C121.161 220.643 120.813 221.161 120.564 221.857C120.315 222.545 120.191 223.411 120.191 224.455C120.191 225.499 120.315 226.369 120.564 227.065C120.813 227.752 121.161 228.27 121.608 228.618C122.056 228.958 122.578 229.128 123.174 229.128C123.68 229.128 124.127 229.012 124.516 228.78C124.906 228.54 125.221 228.192 125.461 227.736C125.71 227.272 125.859 226.708 125.909 226.045H132.272C132.247 227.728 131.862 229.194 131.116 230.445C130.371 231.688 129.314 232.649 127.947 233.329C126.588 234.008 124.964 234.348 123.075 234.348ZM144.3 234.348C142.229 234.348 140.456 233.938 138.981 233.118C137.506 232.289 136.375 231.137 135.588 229.662C134.8 228.179 134.407 226.46 134.407 224.504C134.407 222.549 134.8 220.834 135.588 219.359C136.375 217.875 137.506 216.724 138.981 215.903C140.456 215.075 142.229 214.661 144.3 214.661C146.372 214.661 148.145 215.075 149.62 215.903C151.095 216.724 152.226 217.875 153.013 219.359C153.8 220.834 154.194 222.549 154.194 224.504C154.194 226.46 153.8 228.179 153.013 229.662C152.226 231.137 151.095 232.289 149.62 233.118C148.145 233.938 146.372 234.348 144.3 234.348ZM144.35 229.277C144.93 229.277 145.431 229.082 145.854 228.693C146.277 228.303 146.604 227.748 146.836 227.027C147.068 226.306 147.184 225.449 147.184 224.455C147.184 223.452 147.068 222.594 146.836 221.882C146.604 221.161 146.277 220.606 145.854 220.216C145.431 219.827 144.93 219.632 144.35 219.632C143.737 219.632 143.211 219.827 142.772 220.216C142.332 220.606 141.997 221.161 141.765 221.882C141.533 222.594 141.417 223.452 141.417 224.455C141.417 225.449 141.533 226.306 141.765 227.027C141.997 227.748 142.332 228.303 142.772 228.693C143.211 229.082 143.737 229.277 144.35 229.277ZM169.357 225.648V214.909H176.218V234H169.705V230.371H169.506C169.092 231.589 168.367 232.542 167.331 233.229C166.295 233.909 165.065 234.249 163.64 234.249C162.306 234.249 161.137 233.942 160.135 233.329C159.14 232.716 158.366 231.871 157.811 230.793C157.264 229.716 156.986 228.482 156.978 227.089V214.909H163.839V225.648C163.847 226.592 164.087 227.334 164.56 227.873C165.04 228.411 165.711 228.68 166.573 228.68C167.145 228.68 167.638 228.56 168.052 228.32C168.475 228.071 168.798 227.723 169.022 227.276C169.254 226.82 169.365 226.277 169.357 225.648ZM186.568 223.261V234H179.707V214.909H186.22V218.538H186.419C186.833 217.329 187.562 216.38 188.606 215.692C189.659 215.004 190.885 214.661 192.285 214.661C193.636 214.661 194.809 214.971 195.803 215.593C196.805 216.206 197.58 217.051 198.127 218.128C198.682 219.205 198.956 220.436 198.947 221.82V234H192.087V223.261C192.095 222.317 191.855 221.575 191.366 221.037C190.885 220.498 190.214 220.229 189.352 220.229C188.789 220.229 188.296 220.353 187.873 220.602C187.459 220.842 187.14 221.19 186.916 221.646C186.692 222.093 186.576 222.632 186.568 223.261ZM213.719 214.909V219.881H201.141V214.909H213.719ZM203.577 210.335H210.438V227.86C210.438 228.125 210.484 228.349 210.575 228.531C210.666 228.705 210.807 228.838 210.997 228.929C211.188 229.012 211.432 229.053 211.731 229.053C211.938 229.053 212.178 229.028 212.451 228.979C212.733 228.929 212.94 228.888 213.073 228.854L214.067 233.677C213.761 233.768 213.322 233.88 212.75 234.012C212.186 234.145 211.515 234.232 210.736 234.273C209.162 234.356 207.84 234.195 206.771 233.789C205.703 233.374 204.899 232.724 204.36 231.837C203.822 230.951 203.561 229.84 203.577 228.506V210.335ZM223.492 234V214.909H230.004V218.538H230.203C230.601 217.345 231.28 216.401 232.242 215.705C233.203 215.009 234.346 214.661 235.672 214.661C237.014 214.661 238.17 215.017 239.14 215.729C240.109 216.434 240.693 217.37 240.892 218.538H241.091C241.414 217.37 242.102 216.434 243.154 215.729C244.206 215.017 245.441 214.661 246.858 214.661C248.689 214.661 250.172 215.249 251.308 216.425C252.451 217.602 253.023 219.168 253.023 221.124V234H246.162V222.864C246.162 222.027 245.951 221.372 245.528 220.9C245.106 220.419 244.538 220.179 243.825 220.179C243.121 220.179 242.562 220.419 242.147 220.9C241.741 221.372 241.538 222.027 241.538 222.864V234H234.976V222.864C234.976 222.027 234.765 221.372 234.342 220.9C233.919 220.419 233.352 220.179 232.639 220.179C232.167 220.179 231.761 220.287 231.421 220.502C231.081 220.718 230.816 221.028 230.626 221.434C230.443 221.832 230.352 222.308 230.352 222.864V234H223.492ZM261.726 234.298C260.508 234.298 259.431 234.099 258.495 233.702C257.567 233.296 256.837 232.683 256.307 231.862C255.777 231.042 255.512 229.998 255.512 228.73C255.512 227.686 255.69 226.795 256.046 226.058C256.402 225.312 256.9 224.703 257.538 224.231C258.176 223.759 258.917 223.398 259.762 223.15C260.616 222.901 261.536 222.739 262.522 222.665C263.591 222.582 264.448 222.482 265.094 222.366C265.749 222.242 266.221 222.072 266.511 221.857C266.801 221.633 266.946 221.339 266.946 220.974V220.925C266.946 220.428 266.756 220.046 266.375 219.781C265.993 219.516 265.505 219.384 264.908 219.384C264.253 219.384 263.719 219.529 263.305 219.819C262.899 220.1 262.654 220.535 262.571 221.124H256.257C256.34 219.964 256.709 218.895 257.364 217.917C258.026 216.931 258.992 216.144 260.26 215.555C261.527 214.959 263.11 214.661 265.007 214.661C266.375 214.661 267.601 214.822 268.686 215.145C269.772 215.46 270.696 215.903 271.458 216.475C272.22 217.039 272.8 217.701 273.198 218.464C273.604 219.218 273.807 220.038 273.807 220.925V234H267.394V231.315H267.245C266.863 232.028 266.399 232.604 265.853 233.043C265.314 233.482 264.697 233.801 264.001 234C263.313 234.199 262.555 234.298 261.726 234.298ZM263.963 229.973C264.485 229.973 264.974 229.865 265.43 229.65C265.894 229.434 266.271 229.124 266.561 228.718C266.851 228.312 266.996 227.819 266.996 227.239V225.648C266.814 225.722 266.619 225.793 266.412 225.859C266.213 225.925 265.998 225.987 265.766 226.045C265.542 226.103 265.302 226.157 265.045 226.207C264.796 226.257 264.535 226.302 264.262 226.344C263.731 226.427 263.296 226.563 262.957 226.754C262.625 226.936 262.377 227.164 262.211 227.438C262.053 227.703 261.975 228.001 261.975 228.332C261.975 228.863 262.161 229.269 262.534 229.55C262.907 229.832 263.383 229.973 263.963 229.973ZM283.946 223.261V234H277.085V214.909H283.598V218.538H283.797C284.211 217.329 284.94 216.38 285.984 215.692C287.037 215.004 288.263 214.661 289.663 214.661C291.014 214.661 292.186 214.971 293.181 215.593C294.183 216.206 294.958 217.051 295.505 218.128C296.06 219.205 296.334 220.436 296.325 221.82V234H289.465V223.261C289.473 222.317 289.233 221.575 288.744 221.037C288.263 220.498 287.592 220.229 286.73 220.229C286.167 220.229 285.674 220.353 285.251 220.602C284.837 220.842 284.518 221.19 284.294 221.646C284.07 222.093 283.954 222.632 283.946 223.261ZM305.032 234.298C303.814 234.298 302.737 234.099 301.8 233.702C300.872 233.296 300.143 232.683 299.613 231.862C299.082 231.042 298.817 229.998 298.817 228.73C298.817 227.686 298.995 226.795 299.352 226.058C299.708 225.312 300.205 224.703 300.843 224.231C301.481 223.759 302.223 223.398 303.068 223.15C303.922 222.901 304.841 222.739 305.827 222.665C306.896 222.582 307.754 222.482 308.4 222.366C309.055 222.242 309.527 222.072 309.817 221.857C310.107 221.633 310.252 221.339 310.252 220.974V220.925C310.252 220.428 310.061 220.046 309.68 219.781C309.299 219.516 308.81 219.384 308.214 219.384C307.559 219.384 307.025 219.529 306.61 219.819C306.204 220.1 305.96 220.535 305.877 221.124H299.563C299.646 219.964 300.015 218.895 300.669 217.917C301.332 216.931 302.297 216.144 303.565 215.555C304.833 214.959 306.416 214.661 308.313 214.661C309.68 214.661 310.907 214.822 311.992 215.145C313.078 215.46 314.001 215.903 314.764 216.475C315.526 217.039 316.106 217.701 316.504 218.464C316.91 219.218 317.113 220.038 317.113 220.925V234H310.699V231.315H310.55C310.169 232.028 309.705 232.604 309.158 233.043C308.62 233.482 308.002 233.801 307.306 234C306.619 234.199 305.86 234.298 305.032 234.298ZM307.269 229.973C307.791 229.973 308.28 229.865 308.736 229.65C309.2 229.434 309.577 229.124 309.867 228.718C310.157 228.312 310.302 227.819 310.302 227.239V225.648C310.119 225.722 309.925 225.793 309.718 225.859C309.519 225.925 309.303 225.987 309.071 226.045C308.848 226.103 308.607 226.157 308.35 226.207C308.102 226.257 307.841 226.302 307.567 226.344C307.037 226.427 306.602 226.563 306.262 226.754C305.931 226.936 305.682 227.164 305.517 227.438C305.359 227.703 305.28 228.001 305.28 228.332C305.28 228.863 305.467 229.269 305.84 229.55C306.213 229.832 306.689 229.973 307.269 229.973ZM329.588 241.557C327.674 241.557 326.034 241.283 324.667 240.737C323.308 240.198 322.251 239.452 321.497 238.499C320.751 237.555 320.333 236.469 320.242 235.243H326.854C326.92 235.649 327.086 235.976 327.351 236.225C327.616 236.473 327.956 236.652 328.37 236.759C328.793 236.875 329.265 236.933 329.787 236.933C330.674 236.933 331.407 236.718 331.987 236.287C332.575 235.856 332.87 235.077 332.87 233.95V230.719H332.671C332.422 231.365 332.041 231.916 331.527 232.372C331.014 232.819 330.396 233.163 329.675 233.403C328.955 233.635 328.163 233.751 327.301 233.751C325.943 233.751 324.691 233.437 323.548 232.807C322.413 232.177 321.501 231.179 320.814 229.811C320.134 228.444 319.794 226.659 319.794 224.455C319.794 222.151 320.151 220.278 320.863 218.837C321.584 217.395 322.512 216.338 323.647 215.667C324.791 214.996 325.992 214.661 327.252 214.661C328.196 214.661 329.025 214.826 329.738 215.158C330.45 215.481 331.047 215.916 331.527 216.463C332.008 217.001 332.372 217.594 332.621 218.24H332.77V214.909H339.631V233.95C339.631 235.566 339.213 236.937 338.376 238.064C337.547 239.199 336.379 240.065 334.871 240.662C333.363 241.259 331.602 241.557 329.588 241.557ZM329.837 228.879C330.467 228.879 331.005 228.705 331.453 228.357C331.908 228.001 332.256 227.496 332.497 226.841C332.745 226.178 332.87 225.383 332.87 224.455C332.87 223.51 332.745 222.702 332.497 222.031C332.256 221.351 331.908 220.834 331.453 220.477C331.005 220.113 330.467 219.93 329.837 219.93C329.207 219.93 328.669 220.113 328.221 220.477C327.782 220.834 327.442 221.351 327.202 222.031C326.97 222.702 326.854 223.51 326.854 224.455C326.854 225.399 326.97 226.203 327.202 226.866C327.442 227.52 327.782 228.022 328.221 228.37C328.669 228.709 329.207 228.879 329.837 228.879ZM352.268 234.348C350.23 234.348 348.473 233.959 346.998 233.18C345.532 232.393 344.401 231.266 343.605 229.799C342.818 228.324 342.424 226.559 342.424 224.504C342.424 222.532 342.822 220.809 343.618 219.334C344.413 217.859 345.536 216.711 346.986 215.891C348.436 215.071 350.147 214.661 352.119 214.661C353.561 214.661 354.866 214.884 356.034 215.332C357.202 215.779 358.201 216.43 359.03 217.283C359.858 218.128 360.496 219.156 360.944 220.365C361.391 221.575 361.615 222.938 361.615 224.455V226.045H344.562V222.267H355.301C355.293 221.72 355.152 221.24 354.878 220.825C354.613 220.403 354.253 220.075 353.797 219.843C353.349 219.603 352.84 219.483 352.268 219.483C351.713 219.483 351.203 219.603 350.739 219.843C350.275 220.075 349.903 220.399 349.621 220.813C349.347 221.227 349.202 221.712 349.186 222.267V226.344C349.186 226.957 349.314 227.504 349.571 227.984C349.828 228.465 350.197 228.842 350.677 229.115C351.158 229.389 351.738 229.526 352.417 229.526C352.89 229.526 353.32 229.459 353.71 229.327C354.108 229.194 354.447 229.004 354.729 228.755C355.011 228.498 355.218 228.192 355.351 227.835H361.615C361.399 229.161 360.89 230.313 360.086 231.29C359.282 232.26 358.217 233.014 356.892 233.553C355.574 234.083 354.033 234.348 352.268 234.348ZM364.414 234V214.909H371.076V218.538H371.275C371.623 217.196 372.174 216.214 372.928 215.593C373.691 214.971 374.581 214.661 375.6 214.661C375.899 214.661 376.193 214.685 376.483 214.735C376.781 214.777 377.067 214.839 377.341 214.922V220.776C377.001 220.66 376.582 220.573 376.085 220.515C375.588 220.457 375.161 220.428 374.805 220.428C374.134 220.428 373.529 220.581 372.99 220.887C372.46 221.186 372.042 221.608 371.735 222.155C371.428 222.694 371.275 223.328 371.275 224.057V234H364.414ZM397.04 221.124H390.727C390.693 220.734 390.557 220.399 390.316 220.117C390.076 219.835 389.765 219.62 389.384 219.471C389.011 219.313 388.597 219.234 388.141 219.234C387.553 219.234 387.048 219.342 386.625 219.558C386.202 219.773 385.995 220.08 386.004 220.477C385.995 220.759 386.115 221.02 386.364 221.26C386.621 221.501 387.114 221.687 387.843 221.82L391.721 222.516C393.676 222.872 395.131 223.473 396.083 224.318C397.045 225.155 397.529 226.277 397.538 227.686C397.529 229.045 397.123 230.226 396.32 231.228C395.524 232.223 394.434 232.993 393.051 233.54C391.675 234.079 390.105 234.348 388.34 234.348C385.423 234.348 383.141 233.751 381.492 232.558C379.851 231.365 378.936 229.791 378.745 227.835H385.556C385.647 228.44 385.946 228.908 386.451 229.24C386.965 229.563 387.611 229.724 388.39 229.724C389.02 229.724 389.537 229.617 389.943 229.401C390.358 229.186 390.569 228.879 390.577 228.482C390.569 228.117 390.387 227.827 390.03 227.612C389.682 227.396 389.136 227.222 388.39 227.089L385.009 226.493C383.062 226.153 381.604 225.507 380.634 224.554C379.665 223.601 379.184 222.375 379.192 220.875C379.184 219.549 379.532 218.426 380.236 217.507C380.949 216.579 381.964 215.874 383.282 215.394C384.607 214.905 386.178 214.661 387.992 214.661C390.751 214.661 392.926 215.232 394.517 216.376C396.117 217.519 396.958 219.102 397.04 221.124Z" fill="white"/>
<path d="M185.667 43.025L179.833 39.7C179.483 39.5056 179.201 39.2232 178.986 38.853C178.772 38.4828 178.665 38.0853 178.667 37.6607V31.0107C178.667 30.5829 178.774 30.1839 178.989 29.8137C179.203 29.4434 179.485 29.1611 179.833 28.9667L185.667 25.6417C186.017 25.4472 186.406 25.35 186.833 25.35C187.261 25.35 187.65 25.4472 188 25.6417L193.833 28.9667C194.183 29.1611 194.466 29.4434 194.68 29.8137C194.895 30.1839 195.002 30.5821 195 31.0083V37.6583C195 38.0861 194.893 38.4851 194.68 38.8553C194.467 39.2256 194.185 39.5071 193.833 39.7L188 43.025C187.65 43.2194 187.261 43.3167 186.833 43.3167C186.406 43.3167 186.017 43.2194 185.667 43.025ZM186.833 38.3L190.333 36.3167V32.35L186.833 30.3667L183.333 32.35V36.3167L186.833 38.3ZM212.5 45.475V40.05L218.333 43.4917C219.072 43.9194 219.646 44.4934 220.055 45.2137C220.464 45.9339 220.668 46.7016 220.667 47.5167V58.4833C220.667 59.3 220.463 60.0684 220.055 60.7887C219.648 61.5089 219.074 62.0821 218.333 62.5083L209 67.9333C208.261 68.3611 207.483 68.575 206.667 68.575C205.85 68.575 205.072 68.3611 204.333 67.9333L195 62.5083C194.261 62.0806 193.688 61.5073 193.28 60.7887C192.873 60.07 192.668 59.3016 192.667 58.4833V47.5167C192.667 46.7 192.871 45.9323 193.28 45.2137C193.689 44.495 194.263 43.921 195 43.4917L200.833 40.05V45.475L197.333 47.5167V58.4833L206.667 63.9083L216 58.4833V47.5167L212.5 45.475ZM209 36.6667V48.3333C209 48.9944 208.776 49.549 208.328 49.997C207.88 50.445 207.326 50.6682 206.667 50.6667C206.007 50.6651 205.453 50.4411 205.005 49.9947C204.557 49.5482 204.333 48.9944 204.333 48.3333V25C204.333 24.3389 204.557 23.7851 205.005 23.3387C205.453 22.8922 206.007 22.6682 206.667 22.6667H220.958C221.892 22.6667 222.592 23.075 223.058 23.8917C223.525 24.7083 223.486 25.5056 222.942 26.2833L221.542 28.3833C221.269 28.7722 221.133 29.2 221.133 29.6667C221.133 30.1333 221.269 30.5611 221.542 30.95L222.942 33.05C223.486 33.8278 223.525 34.625 223.058 35.4417C222.592 36.2583 221.892 36.6667 220.958 36.6667H209Z" fill="white"/>
</g>
<defs>
<clipPath id="clip0_2_12">
<rect width="404" height="299" fill="white"/>
</clipPath>
</defs>
</svg>
