<svg width="100" height="100" viewBox="0 0 100 100" fill="none" xmlns="http://www.w3.org/2000/svg">
<rect width="100" height="100" fill="#2B75FF"/>
<path d="M60.1766 47.8395L44.5311 40.0143C44.0888 39.793 43.5972 39.6885 43.1031 39.7107C42.6091 39.7329 42.1289 39.8811 41.7082 40.1412C41.2875 40.4013 40.9404 40.7646 40.6997 41.1967C40.4591 41.6288 40.333 42.1153 40.3333 42.6098V57.3902C40.333 57.8848 40.4591 58.3712 40.6997 58.8033C40.9404 59.2354 41.2875 59.5987 41.7082 59.8588C42.1289 60.1189 42.6091 60.2671 43.1031 60.2893C43.5972 60.3115 44.0888 60.207 44.5311 59.9857L60.1766 52.1605C60.5774 51.9596 60.9145 51.6511 61.1501 51.2695C61.3856 50.888 61.5104 50.4484 61.5104 50C61.5104 49.5516 61.3856 49.112 61.1501 48.7305C60.9145 48.3489 60.5774 48.0404 60.1766 47.8395Z" stroke="white" stroke-width="2" stroke-linecap="round" stroke-linejoin="round"/>
<path d="M50 71.75C62.0122 71.75 71.75 62.0122 71.75 50C71.75 37.9878 62.0122 28.25 50 28.25C37.9878 28.25 28.25 37.9878 28.25 50C28.25 62.0122 37.9878 71.75 50 71.75Z" stroke="white" stroke-width="2"/>
</svg>
