<svg width="404" height="299" viewBox="0 0 404 299" fill="none" xmlns="http://www.w3.org/2000/svg">
<g clip-path="url(#clip0_2_23)">
<rect width="404" height="299" fill="black"/>
<path d="M28.9252 108H21.4678L29.8698 82.5455H39.3158L47.7178 108H40.2604L34.6922 89.5554H34.4934L28.9252 108ZM27.5332 97.9574H41.553V103.128H27.5332V97.9574ZM57.0799 82.5455V108H50.1694V82.5455H57.0799ZM78.812 88.9091V93.8807H66.2339V88.9091H78.812ZM68.67 84.3352H75.5308V101.86C75.5308 102.125 75.5763 102.349 75.6675 102.531C75.7586 102.705 75.8995 102.838 76.0901 102.929C76.2806 103.012 76.5251 103.053 76.8234 103.053C77.0305 103.053 77.2708 103.028 77.5443 102.979C77.826 102.929 78.0331 102.888 78.1657 102.854L79.16 107.677C78.8534 107.768 78.4143 107.88 77.8426 108.012C77.2791 108.145 76.6079 108.232 75.8291 108.273C74.2547 108.356 72.9331 108.195 71.8642 107.789C70.7953 107.374 69.9916 106.724 69.453 105.837C68.9144 104.951 68.6534 103.84 68.67 102.506V84.3352ZM81.6116 108V88.9091H88.2736V92.5384H88.4724C88.8204 91.196 89.3715 90.2141 90.1255 89.5927C90.8878 88.9712 91.7785 88.6605 92.7977 88.6605C93.096 88.6605 93.3902 88.6854 93.6802 88.7351C93.9785 88.7765 94.2643 88.8387 94.5378 88.9215V94.7756C94.198 94.6596 93.7796 94.5726 93.2824 94.5146C92.7853 94.4566 92.3586 94.4276 92.0023 94.4276C91.3311 94.4276 90.7262 94.5808 90.1876 94.8874C89.6573 95.1857 89.2389 95.6083 88.9323 96.1552C88.6257 96.6938 88.4724 97.3277 88.4724 98.0568V108H81.6116ZM101.218 108.298C100 108.298 98.9231 108.099 97.9868 107.702C97.0588 107.296 96.3296 106.683 95.7993 105.862C95.269 105.042 95.0039 103.998 95.0039 102.73C95.0039 101.686 95.182 100.795 95.5383 100.058C95.8946 99.3121 96.3918 98.7031 97.0298 98.2308C97.6678 97.7585 98.4094 97.3981 99.2546 97.1495C100.108 96.9009 101.028 96.7393 102.014 96.6648C103.083 96.5819 103.94 96.4825 104.587 96.3665C105.241 96.2422 105.713 96.0723 106.004 95.8569C106.294 95.6332 106.439 95.339 106.439 94.9744V94.9247C106.439 94.4276 106.248 94.0464 105.867 93.7812C105.486 93.5161 104.997 93.3835 104.4 93.3835C103.746 93.3835 103.211 93.5285 102.797 93.8185C102.391 94.1003 102.146 94.5353 102.064 95.1236H95.7496C95.8325 93.9635 96.2012 92.8946 96.8558 91.9169C97.5187 90.9309 98.484 90.1437 99.7517 89.5554C101.019 88.9588 102.602 88.6605 104.5 88.6605C105.867 88.6605 107.093 88.8221 108.179 89.1452C109.264 89.4601 110.188 89.9034 110.95 90.4751C111.713 91.0386 112.293 91.7015 112.69 92.4638C113.096 93.2178 113.299 94.0381 113.299 94.9247V108H106.886V105.315H106.737C106.356 106.028 105.892 106.604 105.345 107.043C104.806 107.482 104.189 107.801 103.493 108C102.805 108.199 102.047 108.298 101.218 108.298ZM103.456 103.973C103.978 103.973 104.466 103.865 104.922 103.65C105.386 103.434 105.763 103.124 106.053 102.718C106.343 102.312 106.488 101.819 106.488 101.239V99.6477C106.306 99.7223 106.111 99.7927 105.904 99.859C105.705 99.9253 105.49 99.9875 105.258 100.045C105.034 100.103 104.794 100.157 104.537 100.207C104.288 100.257 104.027 100.302 103.754 100.344C103.224 100.427 102.789 100.563 102.449 100.754C102.117 100.936 101.869 101.164 101.703 101.438C101.546 101.703 101.467 102.001 101.467 102.332C101.467 102.863 101.653 103.269 102.026 103.55C102.399 103.832 102.876 103.973 103.456 103.973ZM116.577 108V88.9091H123.438V108H116.577ZM120.008 86.9205C119.08 86.9205 118.284 86.6139 117.621 86.0007C116.959 85.3875 116.627 84.6501 116.627 83.7884C116.627 82.9266 116.959 82.1892 117.621 81.576C118.284 80.9628 119.08 80.6562 120.008 80.6562C120.944 80.6562 121.74 80.9628 122.394 81.576C123.057 82.1892 123.389 82.9266 123.389 83.7884C123.389 84.6501 123.057 85.3875 122.394 86.0007C121.74 86.6139 120.944 86.9205 120.008 86.9205ZM133.795 97.2614V108H126.934V88.9091H133.447V92.5384H133.646C134.06 91.3286 134.789 90.3799 135.833 89.6921C136.885 89.0044 138.112 88.6605 139.512 88.6605C140.863 88.6605 142.035 88.9712 143.029 89.5927C144.032 90.2058 144.807 91.051 145.354 92.1282C145.909 93.2054 146.182 94.4358 146.174 95.8196V108H139.313V97.2614C139.321 96.3168 139.081 95.5752 138.592 95.0366C138.112 94.498 137.441 94.2287 136.579 94.2287C136.015 94.2287 135.522 94.353 135.1 94.6016C134.685 94.8419 134.366 95.1899 134.143 95.6456C133.919 96.093 133.803 96.6316 133.795 97.2614ZM158.709 108.348C156.67 108.348 154.914 107.959 153.439 107.18C151.972 106.393 150.841 105.266 150.046 103.799C149.258 102.324 148.865 100.559 148.865 98.5043C148.865 96.5322 149.263 94.8087 150.058 93.3338C150.853 91.8589 151.976 90.7113 153.426 89.891C154.876 89.0707 156.587 88.6605 158.559 88.6605C160.001 88.6605 161.306 88.8842 162.475 89.3317C163.643 89.7791 164.641 90.4296 165.47 91.283C166.299 92.1282 166.937 93.1557 167.384 94.3654C167.831 95.5752 168.055 96.9382 168.055 98.4545V100.045H151.003V96.267H161.741C161.733 95.7202 161.592 95.2396 161.319 94.8253C161.054 94.4027 160.693 94.0754 160.237 93.8434C159.79 93.6031 159.28 93.483 158.709 93.483C158.153 93.483 157.644 93.6031 157.18 93.8434C156.716 94.0754 156.343 94.3986 156.061 94.8129C155.788 95.2272 155.643 95.7119 155.626 96.267V100.344C155.626 100.957 155.755 101.504 156.011 101.984C156.268 102.465 156.637 102.842 157.118 103.115C157.598 103.389 158.178 103.526 158.858 103.526C159.33 103.526 159.761 103.459 160.15 103.327C160.548 103.194 160.888 103.004 161.17 102.755C161.451 102.498 161.658 102.192 161.791 101.835H168.055C167.84 103.161 167.33 104.313 166.526 105.29C165.723 106.26 164.658 107.014 163.332 107.553C162.015 108.083 160.473 108.348 158.709 108.348ZM177.765 108.249C176.406 108.249 175.155 107.892 174.012 107.18C172.877 106.467 171.965 105.386 171.277 103.936C170.598 102.486 170.258 100.659 170.258 98.4545C170.258 96.151 170.615 94.2784 171.327 92.8366C172.048 91.3949 172.976 90.3384 174.111 89.6673C175.255 88.9961 176.456 88.6605 177.716 88.6605C178.66 88.6605 179.489 88.8262 180.201 89.1577C180.914 89.4808 181.511 89.9158 181.991 90.4627C182.472 91.0013 182.836 91.5937 183.085 92.2401H183.184V82.5455H190.045V108H183.234V104.868H183.085C182.82 105.514 182.439 106.094 181.941 106.608C181.453 107.113 180.856 107.515 180.152 107.814C179.456 108.104 178.66 108.249 177.765 108.249ZM180.301 102.979C180.931 102.979 181.469 102.796 181.917 102.432C182.372 102.059 182.72 101.537 182.961 100.866C183.209 100.186 183.333 99.3826 183.333 98.4545C183.333 97.5099 183.209 96.7021 182.961 96.0309C182.72 95.3514 182.372 94.8336 181.917 94.4773C181.469 94.1127 180.931 93.9304 180.301 93.9304C179.671 93.9304 179.133 94.1127 178.685 94.4773C178.246 94.8336 177.906 95.3514 177.666 96.0309C177.434 96.7021 177.318 97.5099 177.318 98.4545C177.318 99.3991 177.434 100.211 177.666 100.891C177.906 101.562 178.246 102.08 178.685 102.444C179.133 102.801 179.671 102.979 180.301 102.979ZM209.583 108.348C207.512 108.348 205.739 107.938 204.264 107.118C202.789 106.289 201.658 105.137 200.871 103.662C200.084 102.179 199.69 100.46 199.69 98.5043C199.69 96.5488 200.084 94.8336 200.871 93.3587C201.658 91.8755 202.789 90.7237 204.264 89.9034C205.739 89.0748 207.512 88.6605 209.583 88.6605C211.655 88.6605 213.428 89.0748 214.903 89.9034C216.378 90.7237 217.509 91.8755 218.296 93.3587C219.083 94.8336 219.477 96.5488 219.477 98.5043C219.477 100.46 219.083 102.179 218.296 103.662C217.509 105.137 216.378 106.289 214.903 107.118C213.428 107.938 211.655 108.348 209.583 108.348ZM209.633 103.277C210.213 103.277 210.715 103.082 211.137 102.693C211.56 102.303 211.887 101.748 212.119 101.027C212.351 100.306 212.467 99.4489 212.467 98.4545C212.467 97.4519 212.351 96.5943 212.119 95.8817C211.887 95.1609 211.56 94.6057 211.137 94.2163C210.715 93.8268 210.213 93.6321 209.633 93.6321C209.02 93.6321 208.494 93.8268 208.055 94.2163C207.616 94.6057 207.28 95.1609 207.048 95.8817C206.816 96.5943 206.7 97.4519 206.7 98.4545C206.7 99.4489 206.816 100.306 207.048 101.027C207.28 101.748 207.616 102.303 208.055 102.693C208.494 103.082 209.02 103.277 209.633 103.277ZM229.122 97.2614V108H222.261V88.9091H228.774V92.5384H228.973C229.387 91.3286 230.116 90.3799 231.16 89.6921C232.213 89.0044 233.439 88.6605 234.839 88.6605C236.19 88.6605 237.362 88.9712 238.357 89.5927C239.359 90.2058 240.134 91.051 240.681 92.1282C241.236 93.2054 241.509 94.4358 241.501 95.8196V108H234.64V97.2614C234.649 96.3168 234.408 95.5752 233.919 95.0366C233.439 94.498 232.768 94.2287 231.906 94.2287C231.342 94.2287 230.849 94.353 230.427 94.6016C230.013 94.8419 229.694 95.1899 229.47 95.6456C229.246 96.093 229.13 96.6316 229.122 97.2614ZM261.008 108.348C258.97 108.348 257.213 107.959 255.739 107.18C254.272 106.393 253.141 105.266 252.345 103.799C251.558 102.324 251.165 100.559 251.165 98.5043C251.165 96.5322 251.562 94.8087 252.358 93.3338C253.153 91.8589 254.276 90.7113 255.726 89.891C257.176 89.0707 258.887 88.6605 260.859 88.6605C262.301 88.6605 263.606 88.8842 264.774 89.3317C265.943 89.7791 266.941 90.4296 267.77 91.283C268.598 92.1282 269.236 93.1557 269.684 94.3654C270.131 95.5752 270.355 96.9382 270.355 98.4545V100.045H253.302V96.267H264.041C264.033 95.7202 263.892 95.2396 263.618 94.8253C263.353 94.4027 262.993 94.0754 262.537 93.8434C262.09 93.6031 261.58 93.483 261.008 93.483C260.453 93.483 259.944 93.6031 259.48 93.8434C259.016 94.0754 258.643 94.3986 258.361 94.8129C258.088 95.2272 257.943 95.7119 257.926 96.267V100.344C257.926 100.957 258.054 101.504 258.311 101.984C258.568 102.465 258.937 102.842 259.417 103.115C259.898 103.389 260.478 103.526 261.158 103.526C261.63 103.526 262.061 103.459 262.45 103.327C262.848 103.194 263.188 103.004 263.469 102.755C263.751 102.498 263.958 102.192 264.091 101.835H270.355C270.14 103.161 269.63 104.313 268.826 105.29C268.022 106.26 266.958 107.014 265.632 107.553C264.314 108.083 262.773 108.348 261.008 108.348ZM278.866 88.9091L281.65 94.8253L284.583 88.9091H291.394L286.273 98.4545L291.643 108H284.881L281.65 101.935L278.518 108H271.657L277.076 98.4545L272.005 88.9091H278.866ZM293.833 115.159V88.9091H300.644V92.2401H300.794C301.042 91.5937 301.407 91.0013 301.887 90.4627C302.368 89.9158 302.964 89.4808 303.677 89.1577C304.39 88.8262 305.218 88.6605 306.163 88.6605C307.422 88.6605 308.62 88.9961 309.755 89.6673C310.898 90.3384 311.826 91.3949 312.539 92.8366C313.26 94.2784 313.62 96.151 313.62 98.4545C313.62 100.659 313.276 102.486 312.589 103.936C311.909 105.386 310.998 106.467 309.854 107.18C308.719 107.892 307.472 108.249 306.113 108.249C305.218 108.249 304.419 108.104 303.714 107.814C303.018 107.515 302.422 107.113 301.925 106.608C301.436 106.094 301.059 105.514 300.794 104.868H300.694V115.159H293.833ZM300.545 98.4545C300.545 99.3826 300.665 100.186 300.905 100.866C301.154 101.537 301.502 102.059 301.949 102.432C302.405 102.796 302.948 102.979 303.578 102.979C304.207 102.979 304.742 102.801 305.181 102.444C305.628 102.08 305.968 101.562 306.2 100.891C306.44 100.211 306.561 99.3991 306.561 98.4545C306.561 97.5099 306.44 96.7021 306.2 96.0309C305.968 95.3514 305.628 94.8336 305.181 94.4773C304.742 94.1127 304.207 93.9304 303.578 93.9304C302.948 93.9304 302.405 94.1127 301.949 94.4773C301.502 94.8336 301.154 95.3514 300.905 96.0309C300.665 96.7021 300.545 97.5099 300.545 98.4545ZM325.642 108.348C323.604 108.348 321.847 107.959 320.372 107.18C318.906 106.393 317.775 105.266 316.979 103.799C316.192 102.324 315.798 100.559 315.798 98.5043C315.798 96.5322 316.196 94.8087 316.992 93.3338C317.787 91.8589 318.91 90.7113 320.36 89.891C321.81 89.0707 323.521 88.6605 325.493 88.6605C326.935 88.6605 328.24 88.8842 329.408 89.3317C330.576 89.7791 331.575 90.4296 332.404 91.283C333.232 92.1282 333.87 93.1557 334.318 94.3654C334.765 95.5752 334.989 96.9382 334.989 98.4545V100.045H317.936V96.267H328.675C328.667 95.7202 328.526 95.2396 328.252 94.8253C327.987 94.4027 327.627 94.0754 327.171 93.8434C326.724 93.6031 326.214 93.483 325.642 93.483C325.087 93.483 324.577 93.6031 324.113 93.8434C323.649 94.0754 323.277 94.3986 322.995 94.8129C322.721 95.2272 322.576 95.7119 322.56 96.267V100.344C322.56 100.957 322.688 101.504 322.945 101.984C323.202 102.465 323.571 102.842 324.051 103.115C324.532 103.389 325.112 103.526 325.791 103.526C326.264 103.526 326.694 103.459 327.084 103.327C327.482 103.194 327.821 103.004 328.103 102.755C328.385 102.498 328.592 102.192 328.725 101.835H334.989C334.773 103.161 334.264 104.313 333.46 105.29C332.656 106.26 331.592 107.014 330.266 107.553C328.948 108.083 327.407 108.348 325.642 108.348ZM337.788 108V88.9091H344.45V92.5384H344.649C344.997 91.196 345.548 90.2141 346.302 89.5927C347.065 88.9712 347.955 88.6605 348.974 88.6605C349.273 88.6605 349.567 88.6854 349.857 88.7351C350.155 88.7765 350.441 88.8387 350.715 88.9215V94.7756C350.375 94.6596 349.956 94.5726 349.459 94.5146C348.962 94.4566 348.535 94.4276 348.179 94.4276C347.508 94.4276 346.903 94.5808 346.364 94.8874C345.834 95.1857 345.416 95.6083 345.109 96.1552C344.802 96.6938 344.649 97.3277 344.649 98.0568V108H337.788ZM365.135 88.9091V93.8807H352.557V88.9091H365.135ZM354.993 84.3352H361.854V101.86C361.854 102.125 361.9 102.349 361.991 102.531C362.082 102.705 362.223 102.838 362.413 102.929C362.604 103.012 362.848 103.053 363.147 103.053C363.354 103.053 363.594 103.028 363.867 102.979C364.149 102.929 364.356 102.888 364.489 102.854L365.483 107.677C365.177 107.768 364.738 107.88 364.166 108.012C363.602 108.145 362.931 108.232 362.152 108.273C360.578 108.356 359.256 108.195 358.187 107.789C357.119 107.374 356.315 106.724 355.776 105.837C355.238 104.951 354.977 103.84 354.993 102.506V84.3352ZM379.985 95.2727V100.443H368.053V95.2727H379.985ZM49.9519 124.545V150H43.0911V124.545H49.9519ZM62.5953 150.348C60.557 150.348 58.8003 149.959 57.3254 149.18C55.8588 148.393 54.7278 147.266 53.9323 145.799C53.1451 144.324 52.7516 142.559 52.7516 140.504C52.7516 138.532 53.1493 136.809 53.9447 135.334C54.7402 133.859 55.8629 132.711 57.313 131.891C58.763 131.071 60.4741 130.661 62.4462 130.661C63.8879 130.661 65.193 130.884 66.3613 131.332C67.5296 131.779 68.5281 132.43 69.3567 133.283C70.1853 134.128 70.8233 135.156 71.2707 136.365C71.7182 137.575 71.9419 138.938 71.9419 140.455V142.045H54.8893V138.267H65.628C65.6197 137.72 65.4788 137.24 65.2054 136.825C64.9402 136.403 64.5798 136.075 64.1241 135.843C63.6766 135.603 63.167 135.483 62.5953 135.483C62.0401 135.483 61.5306 135.603 61.0665 135.843C60.6025 136.075 60.2297 136.399 59.9479 136.813C59.6745 137.227 59.5295 137.712 59.5129 138.267V142.344C59.5129 142.957 59.6414 143.504 59.8982 143.984C60.1551 144.465 60.5238 144.842 61.0044 145.115C61.485 145.389 62.065 145.526 62.7445 145.526C63.2168 145.526 63.6476 145.459 64.0371 145.327C64.4348 145.194 64.7745 145.004 65.0562 144.755C65.338 144.498 65.5451 144.192 65.6777 143.835H71.9419C71.7265 145.161 71.2169 146.313 70.4131 147.29C69.6094 148.26 68.5446 149.014 67.2189 149.553C65.9014 150.083 64.3602 150.348 62.5953 150.348ZM81.652 150.249C80.2931 150.249 79.0419 149.892 77.8985 149.18C76.7633 148.467 75.8518 147.386 75.1641 145.936C74.4847 144.486 74.1449 142.659 74.1449 140.455C74.1449 138.151 74.5012 136.278 75.2138 134.837C75.9347 133.395 76.8627 132.338 77.9979 131.667C79.1414 130.996 80.3428 130.661 81.6023 130.661C82.5469 130.661 83.3755 130.826 84.0881 131.158C84.8007 131.481 85.3973 131.916 85.8779 132.463C86.3585 133.001 86.7231 133.594 86.9716 134.24H87.0711V124.545H93.9319V150H87.1208V146.868H86.9716C86.7065 147.514 86.3253 148.094 85.8282 148.608C85.3393 149.113 84.7427 149.515 84.0384 149.814C83.3424 150.104 82.5469 150.249 81.652 150.249ZM84.1875 144.979C84.8173 144.979 85.3559 144.796 85.8033 144.432C86.259 144.059 86.6071 143.537 86.8473 142.866C87.0959 142.186 87.2202 141.383 87.2202 140.455C87.2202 139.51 87.0959 138.702 86.8473 138.031C86.6071 137.351 86.259 136.834 85.8033 136.477C85.3559 136.113 84.8173 135.93 84.1875 135.93C83.5578 135.93 83.0192 136.113 82.5718 136.477C82.1326 136.834 81.7929 137.351 81.5526 138.031C81.3206 138.702 81.2046 139.51 81.2046 140.455C81.2046 141.399 81.3206 142.211 81.5526 142.891C81.7929 143.562 82.1326 144.08 82.5718 144.444C83.0192 144.801 83.5578 144.979 84.1875 144.979ZM104.273 157.159V130.909H111.084V134.24H111.233C111.482 133.594 111.846 133.001 112.327 132.463C112.807 131.916 113.404 131.481 114.117 131.158C114.829 130.826 115.658 130.661 116.602 130.661C117.862 130.661 119.059 130.996 120.194 131.667C121.338 132.338 122.266 133.395 122.978 134.837C123.699 136.278 124.06 138.151 124.06 140.455C124.06 142.659 123.716 144.486 123.028 145.936C122.349 147.386 121.437 148.467 120.294 149.18C119.159 149.892 117.912 150.249 116.553 150.249C115.658 150.249 114.858 150.104 114.154 149.814C113.458 149.515 112.861 149.113 112.364 148.608C111.875 148.094 111.498 147.514 111.233 146.868H111.134V157.159H104.273ZM110.984 140.455C110.984 141.383 111.105 142.186 111.345 142.866C111.593 143.537 111.941 144.059 112.389 144.432C112.845 144.796 113.387 144.979 114.017 144.979C114.647 144.979 115.181 144.801 115.62 144.444C116.068 144.08 116.408 143.562 116.64 142.891C116.88 142.211 117 141.399 117 140.455C117 139.51 116.88 138.702 116.64 138.031C116.408 137.351 116.068 136.834 115.62 136.477C115.181 136.113 114.647 135.93 114.017 135.93C113.387 135.93 112.845 136.113 112.389 136.477C111.941 136.834 111.593 137.351 111.345 138.031C111.105 138.702 110.984 139.51 110.984 140.455ZM133.795 124.545V150H126.934V124.545H133.795ZM142.61 150.298C141.392 150.298 140.315 150.099 139.378 149.702C138.45 149.296 137.721 148.683 137.191 147.862C136.661 147.042 136.395 145.998 136.395 144.73C136.395 143.686 136.574 142.795 136.93 142.058C137.286 141.312 137.783 140.703 138.421 140.231C139.059 139.759 139.801 139.398 140.646 139.15C141.5 138.901 142.419 138.739 143.405 138.665C144.474 138.582 145.332 138.482 145.978 138.366C146.633 138.242 147.105 138.072 147.395 137.857C147.685 137.633 147.83 137.339 147.83 136.974V136.925C147.83 136.428 147.64 136.046 147.258 135.781C146.877 135.516 146.388 135.384 145.792 135.384C145.137 135.384 144.603 135.529 144.188 135.819C143.782 136.1 143.538 136.535 143.455 137.124H137.141C137.224 135.964 137.593 134.895 138.247 133.917C138.91 132.931 139.876 132.144 141.143 131.555C142.411 130.959 143.994 130.661 145.891 130.661C147.258 130.661 148.485 130.822 149.57 131.145C150.656 131.46 151.58 131.903 152.342 132.475C153.104 133.039 153.684 133.701 154.082 134.464C154.488 135.218 154.691 136.038 154.691 136.925V150H148.278V147.315H148.128C147.747 148.028 147.283 148.604 146.736 149.043C146.198 149.482 145.58 149.801 144.884 150C144.197 150.199 143.439 150.298 142.61 150.298ZM144.847 145.973C145.369 145.973 145.858 145.865 146.314 145.65C146.778 145.434 147.155 145.124 147.445 144.718C147.735 144.312 147.88 143.819 147.88 143.239V141.648C147.698 141.722 147.503 141.793 147.296 141.859C147.097 141.925 146.881 141.987 146.649 142.045C146.426 142.103 146.185 142.157 145.928 142.207C145.68 142.257 145.419 142.302 145.145 142.344C144.615 142.427 144.18 142.563 143.84 142.754C143.509 142.936 143.26 143.164 143.095 143.438C142.937 143.703 142.859 144.001 142.859 144.332C142.859 144.863 143.045 145.269 143.418 145.55C143.791 145.832 144.267 145.973 144.847 145.973ZM161.462 157.159C160.674 157.159 159.925 157.097 159.212 156.973C158.499 156.857 157.874 156.695 157.335 156.488L158.827 151.616C159.39 151.815 159.904 151.943 160.368 152.001C160.84 152.059 161.242 152.026 161.573 151.902C161.913 151.777 162.158 151.541 162.307 151.193L162.456 150.845L155.744 130.909H162.903L165.986 144.134H166.185L169.317 130.909H176.526L169.565 151.591C169.217 152.643 168.712 153.588 168.049 154.425C167.394 155.27 166.533 155.937 165.464 156.426C164.395 156.915 163.061 157.159 161.462 157.159ZM178.377 150V124.545H185.238V134.24H185.338C185.586 133.594 185.951 133.001 186.431 132.463C186.912 131.916 187.509 131.481 188.221 131.158C188.934 130.826 189.762 130.661 190.707 130.661C191.966 130.661 193.164 130.996 194.299 131.667C195.442 132.338 196.37 133.395 197.083 134.837C197.804 136.278 198.164 138.151 198.164 140.455C198.164 142.659 197.821 144.486 197.133 145.936C196.453 147.386 195.542 148.467 194.398 149.18C193.263 149.892 192.016 150.249 190.657 150.249C189.762 150.249 188.963 150.104 188.258 149.814C187.562 149.515 186.966 149.113 186.469 148.608C185.98 148.094 185.603 147.514 185.338 146.868H185.189V150H178.377ZM185.089 140.455C185.089 141.383 185.209 142.186 185.45 142.866C185.698 143.537 186.046 144.059 186.494 144.432C186.949 144.796 187.492 144.979 188.122 144.979C188.751 144.979 189.286 144.801 189.725 144.444C190.173 144.08 190.512 143.562 190.744 142.891C190.985 142.211 191.105 141.399 191.105 140.455C191.105 139.51 190.985 138.702 190.744 138.031C190.512 137.351 190.173 136.834 189.725 136.477C189.286 136.113 188.751 135.93 188.122 135.93C187.492 135.93 186.949 136.113 186.494 136.477C186.046 136.834 185.698 137.351 185.45 138.031C185.209 138.702 185.089 139.51 185.089 140.455ZM210.233 150.348C208.161 150.348 206.388 149.938 204.913 149.118C203.438 148.289 202.307 147.137 201.52 145.662C200.733 144.179 200.339 142.46 200.339 140.504C200.339 138.549 200.733 136.834 201.52 135.359C202.307 133.875 203.438 132.724 204.913 131.903C206.388 131.075 208.161 130.661 210.233 130.661C212.304 130.661 214.078 131.075 215.553 131.903C217.027 132.724 218.158 133.875 218.946 135.359C219.733 136.834 220.126 138.549 220.126 140.504C220.126 142.46 219.733 144.179 218.946 145.662C218.158 147.137 217.027 148.289 215.553 149.118C214.078 149.938 212.304 150.348 210.233 150.348ZM210.283 145.277C210.863 145.277 211.364 145.082 211.787 144.693C212.209 144.303 212.536 143.748 212.768 143.027C213 142.306 213.116 141.449 213.116 140.455C213.116 139.452 213 138.594 212.768 137.882C212.536 137.161 212.209 136.606 211.787 136.216C211.364 135.827 210.863 135.632 210.283 135.632C209.669 135.632 209.143 135.827 208.704 136.216C208.265 136.606 207.929 137.161 207.697 137.882C207.465 138.594 207.349 139.452 207.349 140.455C207.349 141.449 207.465 142.306 207.697 143.027C207.929 143.748 208.265 144.303 208.704 144.693C209.143 145.082 209.669 145.277 210.283 145.277ZM232.108 150.348C230.036 150.348 228.263 149.938 226.788 149.118C225.313 148.289 224.182 147.137 223.395 145.662C222.608 144.179 222.214 142.46 222.214 140.504C222.214 138.549 222.608 136.834 223.395 135.359C224.182 133.875 225.313 132.724 226.788 131.903C228.263 131.075 230.036 130.661 232.108 130.661C234.179 130.661 235.953 131.075 237.428 131.903C238.902 132.724 240.033 133.875 240.821 135.359C241.608 136.834 242.001 138.549 242.001 140.504C242.001 142.46 241.608 144.179 240.821 145.662C240.033 147.137 238.902 148.289 237.428 149.118C235.953 149.938 234.179 150.348 232.108 150.348ZM232.158 145.277C232.738 145.277 233.239 145.082 233.662 144.693C234.084 144.303 234.411 143.748 234.643 143.027C234.875 142.306 234.991 141.449 234.991 140.455C234.991 139.452 234.875 138.594 234.643 137.882C234.411 137.161 234.084 136.606 233.662 136.216C233.239 135.827 232.738 135.632 232.158 135.632C231.544 135.632 231.018 135.827 230.579 136.216C230.14 136.606 229.804 137.161 229.572 137.882C229.34 138.594 229.224 139.452 229.224 140.455C229.224 141.449 229.34 142.306 229.572 143.027C229.804 143.748 230.14 144.303 230.579 144.693C231.018 145.082 231.544 145.277 232.158 145.277ZM250.95 145.476L251 137.322H251.895L256.518 130.909H264.224L256.469 140.902H254.53L250.95 145.476ZM244.785 150V124.545H251.646V150H244.785ZM256.568 150L252.193 142.443L256.668 137.571L264.423 150H256.568ZM283.461 137.124H277.147C277.114 136.734 276.978 136.399 276.737 136.117C276.497 135.835 276.186 135.62 275.805 135.471C275.432 135.313 275.018 135.234 274.562 135.234C273.974 135.234 273.468 135.342 273.046 135.558C272.623 135.773 272.416 136.08 272.424 136.477C272.416 136.759 272.536 137.02 272.785 137.26C273.042 137.501 273.535 137.687 274.264 137.82L278.142 138.516C280.097 138.872 281.551 139.473 282.504 140.318C283.465 141.155 283.95 142.277 283.958 143.686C283.95 145.045 283.544 146.226 282.74 147.228C281.945 148.223 280.855 148.993 279.472 149.54C278.096 150.079 276.526 150.348 274.761 150.348C271.844 150.348 269.562 149.751 267.913 148.558C266.272 147.365 265.356 145.791 265.166 143.835H271.977C272.068 144.44 272.366 144.908 272.872 145.24C273.386 145.563 274.032 145.724 274.811 145.724C275.441 145.724 275.958 145.617 276.364 145.401C276.779 145.186 276.99 144.879 276.998 144.482C276.99 144.117 276.808 143.827 276.451 143.612C276.103 143.396 275.557 143.222 274.811 143.089L271.43 142.493C269.483 142.153 268.025 141.507 267.055 140.554C266.086 139.601 265.605 138.375 265.613 136.875C265.605 135.549 265.953 134.426 266.657 133.507C267.37 132.579 268.385 131.874 269.702 131.394C271.028 130.905 272.598 130.661 274.413 130.661C277.172 130.661 279.347 131.232 280.938 132.376C282.537 133.519 283.378 135.102 283.461 137.124ZM293.249 146.52L293.15 147.912C293.067 149.105 292.868 150.249 292.553 151.342C292.247 152.436 291.919 153.406 291.571 154.251C291.232 155.096 290.962 155.75 290.763 156.214H286.538C286.67 155.75 286.857 155.079 287.097 154.201C287.345 153.331 287.569 152.345 287.768 151.243C287.975 150.149 288.079 149.039 288.079 147.912V146.52H293.249Z" fill="#330AFF"/>
<path d="M311.563 139.261V150H304.702V130.909H311.215V134.538H311.414C311.828 133.329 312.558 132.38 313.602 131.692C314.654 131.004 315.88 130.661 317.281 130.661C318.631 130.661 319.804 130.971 320.798 131.593C321.801 132.206 322.575 133.051 323.122 134.128C323.677 135.205 323.951 136.436 323.943 137.82V150H317.082V139.261C317.09 138.317 316.85 137.575 316.361 137.037C315.88 136.498 315.209 136.229 314.347 136.229C313.784 136.229 313.291 136.353 312.868 136.602C312.454 136.842 312.135 137.19 311.911 137.646C311.688 138.093 311.572 138.632 311.563 139.261ZM336.527 150.348C334.455 150.348 332.682 149.938 331.207 149.118C329.732 148.289 328.601 147.137 327.814 145.662C327.027 144.179 326.633 142.46 326.633 140.504C326.633 138.549 327.027 136.834 327.814 135.359C328.601 133.875 329.732 132.724 331.207 131.903C332.682 131.075 334.455 130.661 336.527 130.661C338.598 130.661 340.372 131.075 341.846 131.903C343.321 132.724 344.452 133.875 345.24 135.359C346.027 136.834 346.42 138.549 346.42 140.504C346.42 142.46 346.027 144.179 345.24 145.662C344.452 147.137 343.321 148.289 341.846 149.118C340.372 149.938 338.598 150.348 336.527 150.348ZM336.577 145.277C337.157 145.277 337.658 145.082 338.08 144.693C338.503 144.303 338.83 143.748 339.062 143.027C339.294 142.306 339.41 141.449 339.41 140.455C339.41 139.452 339.294 138.594 339.062 137.882C338.83 137.161 338.503 136.606 338.08 136.216C337.658 135.827 337.157 135.632 336.577 135.632C335.963 135.632 335.437 135.827 334.998 136.216C334.559 136.606 334.223 137.161 333.991 137.882C333.759 138.594 333.643 139.452 333.643 140.455C333.643 141.449 333.759 142.306 333.991 143.027C334.223 143.748 334.559 144.303 334.998 144.693C335.437 145.082 335.963 145.277 336.577 145.277ZM360.589 130.909V135.881H348.011V130.909H360.589ZM350.447 126.335H357.308V143.86C357.308 144.125 357.354 144.349 357.445 144.531C357.536 144.705 357.677 144.838 357.867 144.929C358.058 145.012 358.302 145.053 358.601 145.053C358.808 145.053 359.048 145.028 359.322 144.979C359.603 144.929 359.81 144.888 359.943 144.854L360.937 149.677C360.631 149.768 360.192 149.88 359.62 150.012C359.056 150.145 358.385 150.232 357.606 150.273C356.032 150.356 354.71 150.195 353.642 149.789C352.573 149.374 351.769 148.724 351.23 147.837C350.692 146.951 350.431 145.84 350.447 144.506V126.335ZM45.2134 199.557C43.2993 199.557 41.6587 199.283 40.2915 198.737C38.9326 198.198 37.8761 197.452 37.1221 196.499C36.3764 195.555 35.9579 194.469 35.8668 193.243H42.479C42.5453 193.649 42.711 193.976 42.9762 194.225C43.2413 194.473 43.581 194.652 43.9953 194.759C44.4179 194.875 44.8902 194.933 45.4122 194.933C46.2988 194.933 47.0322 194.718 47.6122 194.287C48.2005 193.856 48.4946 193.077 48.4946 191.95V188.719H48.2958C48.0472 189.365 47.666 189.916 47.1523 190.372C46.6386 190.819 46.0213 191.163 45.3004 191.403C44.5795 191.635 43.7882 191.751 42.9264 191.751C41.5675 191.751 40.3164 191.437 39.1729 190.807C38.0377 190.177 37.1263 189.179 36.4385 187.811C35.7591 186.444 35.4193 184.659 35.4193 182.455C35.4193 180.151 35.7756 178.278 36.4882 176.837C37.2091 175.395 38.1371 174.338 39.2723 173.667C40.4158 172.996 41.6173 172.661 42.8767 172.661C43.8213 172.661 44.6499 172.826 45.3625 173.158C46.0751 173.481 46.6717 173.916 47.1523 174.463C47.6329 175.001 47.9975 175.594 48.2461 176.24H48.3952V172.909H55.256V191.95C55.256 193.566 54.8376 194.937 54.0007 196.064C53.1721 197.199 52.0037 198.065 50.4957 198.662C48.9876 199.259 47.2269 199.557 45.2134 199.557ZM45.462 186.879C46.0917 186.879 46.6303 186.705 47.0777 186.357C47.5335 186.001 47.8815 185.496 48.1218 184.841C48.3703 184.178 48.4946 183.383 48.4946 182.455C48.4946 181.51 48.3703 180.702 48.1218 180.031C47.8815 179.351 47.5335 178.834 47.0777 178.477C46.6303 178.113 46.0917 177.93 45.462 177.93C44.8322 177.93 44.2936 178.113 43.8462 178.477C43.407 178.834 43.0673 179.351 42.827 180.031C42.595 180.702 42.479 181.51 42.479 182.455C42.479 183.399 42.595 184.203 42.827 184.866C43.0673 185.52 43.407 186.022 43.8462 186.37C44.2936 186.709 44.8322 186.879 45.462 186.879ZM67.8932 192.348C65.8548 192.348 64.0982 191.959 62.6233 191.18C61.1566 190.393 60.0256 189.266 59.2302 187.799C58.443 186.324 58.0494 184.559 58.0494 182.504C58.0494 180.532 58.4471 178.809 59.2426 177.334C60.038 175.859 61.1608 174.711 62.6108 173.891C64.0609 173.071 65.7719 172.661 67.744 172.661C69.1858 172.661 70.4908 172.884 71.6591 173.332C72.8275 173.779 73.8259 174.43 74.6545 175.283C75.4831 176.128 76.1211 177.156 76.5686 178.365C77.016 179.575 77.2397 180.938 77.2397 182.455V184.045H60.1872V180.267H70.9258C70.9175 179.72 70.7767 179.24 70.5032 178.825C70.2381 178.403 69.8776 178.075 69.4219 177.843C68.9745 177.603 68.4649 177.483 67.8932 177.483C67.338 177.483 66.8284 177.603 66.3644 177.843C65.9004 178.075 65.5275 178.399 65.2458 178.813C64.9723 179.227 64.8273 179.712 64.8108 180.267V184.344C64.8108 184.957 64.9392 185.504 65.1961 185.984C65.4529 186.465 65.8217 186.842 66.3022 187.115C66.7828 187.389 67.3629 187.526 68.0423 187.526C68.5146 187.526 68.9455 187.459 69.3349 187.327C69.7326 187.194 70.0724 187.004 70.3541 186.755C70.6358 186.498 70.843 186.192 70.9755 185.835H77.2397C77.0243 187.161 76.5147 188.313 75.711 189.29C74.9072 190.26 73.8425 191.014 72.5167 191.553C71.1993 192.083 69.6581 192.348 67.8932 192.348ZM86.9002 181.261V192H80.0394V172.909H86.5522V176.538H86.751C87.1653 175.329 87.8945 174.38 88.9385 173.692C89.9908 173.004 91.2172 172.661 92.6175 172.661C93.9681 172.661 95.1406 172.971 96.1349 173.593C97.1375 174.206 97.9122 175.051 98.4591 176.128C99.0143 177.205 99.2877 178.436 99.2794 179.82V192H92.4186V181.261C92.4269 180.317 92.1866 179.575 91.6978 179.037C91.2172 178.498 90.546 178.229 89.6843 178.229C89.1208 178.229 88.6278 178.353 88.2052 178.602C87.7909 178.842 87.4719 179.19 87.2482 179.646C87.0245 180.093 86.9085 180.632 86.9002 181.261ZM111.814 192.348C109.776 192.348 108.019 191.959 106.544 191.18C105.078 190.393 103.947 189.266 103.151 187.799C102.364 186.324 101.97 184.559 101.97 182.504C101.97 180.532 102.368 178.809 103.163 177.334C103.959 175.859 105.082 174.711 106.532 173.891C107.982 173.071 109.693 172.661 111.665 172.661C113.107 172.661 114.412 172.884 115.58 173.332C116.748 173.779 117.747 174.43 118.575 175.283C119.404 176.128 120.042 177.156 120.489 178.365C120.937 179.575 121.161 180.938 121.161 182.455V184.045H104.108V180.267H114.847C114.838 179.72 114.698 179.24 114.424 178.825C114.159 178.403 113.799 178.075 113.343 177.843C112.895 177.603 112.386 177.483 111.814 177.483C111.259 177.483 110.749 177.603 110.285 177.843C109.821 178.075 109.448 178.399 109.167 178.813C108.893 179.227 108.748 179.712 108.732 180.267V184.344C108.732 184.957 108.86 185.504 109.117 185.984C109.374 186.465 109.743 186.842 110.223 187.115C110.704 187.389 111.284 187.526 111.963 187.526C112.436 187.526 112.866 187.459 113.256 187.327C113.654 187.194 113.993 187.004 114.275 186.755C114.557 186.498 114.764 186.192 114.896 185.835H121.161C120.945 187.161 120.436 188.313 119.632 189.29C118.828 190.26 117.763 191.014 116.438 191.553C115.12 192.083 113.579 192.348 111.814 192.348ZM123.96 192V172.909H130.622V176.538H130.821C131.169 175.196 131.72 174.214 132.474 173.593C133.236 172.971 134.127 172.661 135.146 172.661C135.445 172.661 135.739 172.685 136.029 172.735C136.327 172.777 136.613 172.839 136.886 172.922V178.776C136.547 178.66 136.128 178.573 135.631 178.515C135.134 178.457 134.707 178.428 134.351 178.428C133.68 178.428 133.075 178.581 132.536 178.887C132.006 179.186 131.588 179.608 131.281 180.155C130.974 180.694 130.821 181.328 130.821 182.057V192H123.96ZM139.136 192V172.909H145.997V192H139.136ZM142.566 170.92C141.638 170.92 140.843 170.614 140.18 170.001C139.517 169.388 139.186 168.65 139.186 167.788C139.186 166.927 139.517 166.189 140.18 165.576C140.843 164.963 141.638 164.656 142.566 164.656C143.503 164.656 144.298 164.963 144.953 165.576C145.616 166.189 145.947 166.927 145.947 167.788C145.947 168.65 145.616 169.388 144.953 170.001C144.298 170.614 143.503 170.92 142.566 170.92ZM158.69 192.348C156.618 192.348 154.845 191.938 153.37 191.118C151.895 190.289 150.764 189.137 149.977 187.662C149.19 186.179 148.796 184.46 148.796 182.504C148.796 180.549 149.19 178.834 149.977 177.359C150.764 175.875 151.895 174.724 153.37 173.903C154.845 173.075 156.618 172.661 158.69 172.661C160.563 172.661 162.182 173 163.55 173.68C164.925 174.351 165.99 175.304 166.744 176.538C167.498 177.765 167.879 179.206 167.887 180.864H161.524C161.433 179.861 161.143 179.099 160.654 178.577C160.173 178.046 159.552 177.781 158.789 177.781C158.193 177.781 157.671 177.955 157.223 178.303C156.776 178.643 156.428 179.161 156.179 179.857C155.931 180.545 155.806 181.411 155.806 182.455C155.806 183.499 155.931 184.369 156.179 185.065C156.428 185.752 156.776 186.27 157.223 186.618C157.671 186.958 158.193 187.128 158.789 187.128C159.295 187.128 159.742 187.012 160.132 186.78C160.521 186.54 160.836 186.192 161.076 185.736C161.325 185.272 161.474 184.708 161.524 184.045H167.887C167.863 185.728 167.477 187.194 166.731 188.445C165.986 189.688 164.929 190.649 163.562 191.329C162.203 192.008 160.579 192.348 158.69 192.348ZM177.691 199.159V172.909H184.502V176.24H184.651C184.9 175.594 185.264 175.001 185.745 174.463C186.225 173.916 186.822 173.481 187.534 173.158C188.247 172.826 189.076 172.661 190.02 172.661C191.28 172.661 192.477 172.996 193.612 173.667C194.756 174.338 195.684 175.395 196.396 176.837C197.117 178.278 197.478 180.151 197.478 182.455C197.478 184.659 197.134 186.486 196.446 187.936C195.767 189.386 194.855 190.467 193.712 191.18C192.577 191.892 191.329 192.249 189.971 192.249C189.076 192.249 188.276 192.104 187.572 191.814C186.876 191.515 186.279 191.113 185.782 190.608C185.293 190.094 184.916 189.514 184.651 188.868H184.552V199.159H177.691ZM184.402 182.455C184.402 183.383 184.523 184.186 184.763 184.866C185.011 185.537 185.359 186.059 185.807 186.432C186.263 186.796 186.805 186.979 187.435 186.979C188.065 186.979 188.599 186.801 189.038 186.444C189.486 186.08 189.826 185.562 190.058 184.891C190.298 184.211 190.418 183.399 190.418 182.455C190.418 181.51 190.298 180.702 190.058 180.031C189.826 179.351 189.486 178.834 189.038 178.477C188.599 178.113 188.065 177.93 187.435 177.93C186.805 177.93 186.263 178.113 185.807 178.477C185.359 178.834 185.011 179.351 184.763 180.031C184.523 180.702 184.402 181.51 184.402 182.455ZM200.352 192V172.909H207.014V176.538H207.213C207.561 175.196 208.112 174.214 208.866 173.593C209.628 172.971 210.519 172.661 211.538 172.661C211.836 172.661 212.13 172.685 212.42 172.735C212.719 172.777 213.005 172.839 213.278 172.922V178.776C212.938 178.66 212.52 178.573 212.023 178.515C211.526 178.457 211.099 178.428 210.742 178.428C210.071 178.428 209.466 178.581 208.928 178.887C208.398 179.186 207.979 179.608 207.673 180.155C207.366 180.694 207.213 181.328 207.213 182.057V192H200.352ZM223.631 192.348C221.56 192.348 219.787 191.938 218.312 191.118C216.837 190.289 215.706 189.137 214.919 187.662C214.131 186.179 213.738 184.46 213.738 182.504C213.738 180.549 214.131 178.834 214.919 177.359C215.706 175.875 216.837 174.724 218.312 173.903C219.787 173.075 221.56 172.661 223.631 172.661C225.703 172.661 227.476 173.075 228.951 173.903C230.426 174.724 231.557 175.875 232.344 177.359C233.131 178.834 233.525 180.549 233.525 182.504C233.525 184.46 233.131 186.179 232.344 187.662C231.557 189.137 230.426 190.289 228.951 191.118C227.476 191.938 225.703 192.348 223.631 192.348ZM223.681 187.277C224.261 187.277 224.762 187.082 225.185 186.693C225.608 186.303 225.935 185.748 226.167 185.027C226.399 184.306 226.515 183.449 226.515 182.455C226.515 181.452 226.399 180.594 226.167 179.882C225.935 179.161 225.608 178.606 225.185 178.216C224.762 177.827 224.261 177.632 223.681 177.632C223.068 177.632 222.542 177.827 222.103 178.216C221.663 178.606 221.328 179.161 221.096 179.882C220.864 180.594 220.748 181.452 220.748 182.455C220.748 183.449 220.864 184.306 221.096 185.027C221.328 185.748 221.663 186.303 222.103 186.693C222.542 187.082 223.068 187.277 223.681 187.277ZM236.309 192V172.909H242.822V176.538H243.021C243.418 175.345 244.098 174.401 245.059 173.705C246.02 173.009 247.164 172.661 248.489 172.661C249.832 172.661 250.988 173.017 251.957 173.729C252.926 174.434 253.511 175.37 253.709 176.538H253.908C254.231 175.37 254.919 174.434 255.972 173.729C257.024 173.017 258.258 172.661 259.675 172.661C261.507 172.661 262.99 173.249 264.125 174.425C265.268 175.602 265.84 177.168 265.84 179.124V192H258.979V180.864C258.979 180.027 258.768 179.372 258.345 178.9C257.923 178.419 257.355 178.179 256.643 178.179C255.938 178.179 255.379 178.419 254.965 178.9C254.559 179.372 254.356 180.027 254.356 180.864V192H247.793V180.864C247.793 180.027 247.582 179.372 247.159 178.9C246.737 178.419 246.169 178.179 245.457 178.179C244.984 178.179 244.578 178.287 244.239 178.502C243.899 178.718 243.634 179.028 243.443 179.434C243.261 179.832 243.17 180.308 243.17 180.864V192H236.309ZM269.224 199.159V172.909H276.035V176.24H276.184C276.433 175.594 276.797 175.001 277.278 174.463C277.759 173.916 278.355 173.481 279.068 173.158C279.78 172.826 280.609 172.661 281.553 172.661C282.813 172.661 284.01 172.996 285.145 173.667C286.289 174.338 287.217 175.395 287.93 176.837C288.65 178.278 289.011 180.151 289.011 182.455C289.011 184.659 288.667 186.486 287.979 187.936C287.3 189.386 286.388 190.467 285.245 191.18C284.11 191.892 282.863 192.249 281.504 192.249C280.609 192.249 279.809 192.104 279.105 191.814C278.409 191.515 277.812 191.113 277.315 190.608C276.826 190.094 276.449 189.514 276.184 188.868H276.085V199.159H269.224ZM275.936 182.455C275.936 183.383 276.056 184.186 276.296 184.866C276.545 185.537 276.893 186.059 277.34 186.432C277.796 186.796 278.339 186.979 278.968 186.979C279.598 186.979 280.132 186.801 280.572 186.444C281.019 186.08 281.359 185.562 281.591 184.891C281.831 184.211 281.951 183.399 281.951 182.455C281.951 181.51 281.831 180.702 281.591 180.031C281.359 179.351 281.019 178.834 280.572 178.477C280.132 178.113 279.598 177.93 278.968 177.93C278.339 177.93 277.796 178.113 277.34 178.477C276.893 178.834 276.545 179.351 276.296 180.031C276.056 180.702 275.936 181.51 275.936 182.455ZM303.27 172.909V177.881H290.692V172.909H303.27ZM293.128 168.335H299.989V185.86C299.989 186.125 300.034 186.349 300.125 186.531C300.217 186.705 300.357 186.838 300.548 186.929C300.739 187.012 300.983 187.053 301.281 187.053C301.489 187.053 301.729 187.028 302.002 186.979C302.284 186.929 302.491 186.888 302.624 186.854L303.618 191.677C303.311 191.768 302.872 191.88 302.301 192.012C301.737 192.145 301.066 192.232 300.287 192.273C298.713 192.356 297.391 192.195 296.322 191.789C295.253 191.374 294.45 190.724 293.911 189.837C293.372 188.951 293.111 187.84 293.128 186.506V168.335ZM323.315 179.124H317.001C316.968 178.734 316.831 178.399 316.591 178.117C316.35 177.835 316.04 177.62 315.659 177.471C315.286 177.313 314.871 177.234 314.416 177.234C313.827 177.234 313.322 177.342 312.899 177.558C312.477 177.773 312.27 178.08 312.278 178.477C312.27 178.759 312.39 179.02 312.638 179.26C312.895 179.501 313.388 179.687 314.117 179.82L317.995 180.516C319.951 180.872 321.405 181.473 322.358 182.318C323.319 183.155 323.804 184.277 323.812 185.686C323.804 187.045 323.398 188.226 322.594 189.228C321.799 190.223 320.709 190.993 319.325 191.54C317.95 192.079 316.379 192.348 314.615 192.348C311.698 192.348 309.415 191.751 307.766 190.558C306.126 189.365 305.21 187.791 305.019 185.835H311.83C311.922 186.44 312.22 186.908 312.725 187.24C313.239 187.563 313.885 187.724 314.664 187.724C315.294 187.724 315.812 187.617 316.218 187.401C316.632 187.186 316.843 186.879 316.852 186.482C316.843 186.117 316.661 185.827 316.305 185.612C315.957 185.396 315.41 185.222 314.664 185.089L311.284 184.493C309.336 184.153 307.878 183.507 306.909 182.554C305.939 181.601 305.459 180.375 305.467 178.875C305.459 177.549 305.807 176.426 306.511 175.507C307.223 174.579 308.239 173.874 309.556 173.394C310.882 172.905 312.452 172.661 314.267 172.661C317.026 172.661 319.201 173.232 320.792 174.376C322.391 175.519 323.232 177.102 323.315 179.124ZM342.611 192.348C340.539 192.348 338.766 191.938 337.291 191.118C335.816 190.289 334.685 189.137 333.898 187.662C333.111 186.179 332.717 184.46 332.717 182.504C332.717 180.549 333.111 178.834 333.898 177.359C334.685 175.875 335.816 174.724 337.291 173.903C338.766 173.075 340.539 172.661 342.611 172.661C344.682 172.661 346.456 173.075 347.93 173.903C349.405 174.724 350.536 175.875 351.324 177.359C352.111 178.834 352.504 180.549 352.504 182.504C352.504 184.46 352.111 186.179 351.324 187.662C350.536 189.137 349.405 190.289 347.93 191.118C346.456 191.938 344.682 192.348 342.611 192.348ZM342.661 187.277C343.241 187.277 343.742 187.082 344.164 186.693C344.587 186.303 344.914 185.748 345.146 185.027C345.378 184.306 345.494 183.449 345.494 182.455C345.494 181.452 345.378 180.594 345.146 179.882C344.914 179.161 344.587 178.606 344.164 178.216C343.742 177.827 343.241 177.632 342.661 177.632C342.047 177.632 341.521 177.827 341.082 178.216C340.643 178.606 340.307 179.161 340.075 179.882C339.843 180.594 339.727 181.452 339.727 182.455C339.727 183.449 339.843 184.306 340.075 185.027C340.307 185.748 340.643 186.303 341.082 186.693C341.521 187.082 342.047 187.277 342.661 187.277ZM355.288 192V172.909H361.95V176.538H362.149C362.497 175.196 363.048 174.214 363.802 173.593C364.565 172.971 365.455 172.661 366.474 172.661C366.773 172.661 367.067 172.685 367.357 172.735C367.655 172.777 367.941 172.839 368.215 172.922V178.776C367.875 178.66 367.456 178.573 366.959 178.515C366.462 178.457 366.035 178.428 365.679 178.428C365.008 178.428 364.403 178.581 363.864 178.887C363.334 179.186 362.916 179.608 362.609 180.155C362.302 180.694 362.149 181.328 362.149 182.057V192H355.288ZM125.758 214.909V219.881H113.18V214.909H125.758ZM115.616 210.335H122.477V227.86C122.477 228.125 122.522 228.349 122.613 228.531C122.704 228.705 122.845 228.838 123.036 228.929C123.226 229.012 123.471 229.053 123.769 229.053C123.976 229.053 124.217 229.028 124.49 228.979C124.772 228.929 124.979 228.888 125.112 228.854L126.106 233.677C125.799 233.768 125.36 233.88 124.788 234.012C124.225 234.145 123.554 234.232 122.775 234.273C121.201 234.356 119.879 234.195 118.81 233.789C117.741 233.374 116.937 232.724 116.399 231.837C115.86 230.951 115.599 229.84 115.616 228.506V210.335ZM137.5 234.348C135.462 234.348 133.705 233.959 132.23 233.18C130.764 232.393 129.633 231.266 128.837 229.799C128.05 228.324 127.656 226.559 127.656 224.504C127.656 222.532 128.054 220.809 128.85 219.334C129.645 217.859 130.768 216.711 132.218 215.891C133.668 215.071 135.379 214.661 137.351 214.661C138.793 214.661 140.098 214.884 141.266 215.332C142.434 215.779 143.433 216.43 144.261 217.283C145.09 218.128 145.728 219.156 146.176 220.365C146.623 221.575 146.847 222.938 146.847 224.455V226.045H129.794V222.267H140.533C140.524 221.72 140.384 221.24 140.11 220.825C139.845 220.403 139.485 220.075 139.029 219.843C138.581 219.603 138.072 219.483 137.5 219.483C136.945 219.483 136.435 219.603 135.971 219.843C135.507 220.075 135.134 220.399 134.853 220.813C134.579 221.227 134.434 221.712 134.418 222.267V226.344C134.418 226.957 134.546 227.504 134.803 227.984C135.06 228.465 135.429 228.842 135.909 229.115C136.39 229.389 136.97 229.526 137.649 229.526C138.122 229.526 138.552 229.459 138.942 229.327C139.34 229.194 139.679 229.004 139.961 228.755C140.243 228.498 140.45 228.192 140.582 227.835H146.847C146.631 229.161 146.122 230.313 145.318 231.29C144.514 232.26 143.449 233.014 142.124 233.553C140.806 234.083 139.265 234.348 137.5 234.348ZM149.646 234V214.909H156.159V218.538H156.358C156.756 217.345 157.435 216.401 158.396 215.705C159.357 215.009 160.501 214.661 161.827 214.661C163.169 214.661 164.325 215.017 165.294 215.729C166.264 216.434 166.848 217.37 167.047 218.538H167.246C167.569 217.37 168.257 216.434 169.309 215.729C170.361 215.017 171.596 214.661 173.013 214.661C174.844 214.661 176.327 215.249 177.462 216.425C178.606 217.602 179.178 219.168 179.178 221.124V234H172.317V222.864C172.317 222.027 172.105 221.372 171.683 220.9C171.26 220.419 170.693 220.179 169.98 220.179C169.276 220.179 168.717 220.419 168.302 220.9C167.896 221.372 167.693 222.027 167.693 222.864V234H161.131V222.864C161.131 222.027 160.919 221.372 160.497 220.9C160.074 220.419 159.507 220.179 158.794 220.179C158.322 220.179 157.916 220.287 157.576 220.502C157.236 220.718 156.971 221.028 156.781 221.434C156.598 221.832 156.507 222.308 156.507 222.864V234H149.646ZM182.561 241.159V214.909H189.372V218.24H189.522C189.77 217.594 190.135 217.001 190.615 216.463C191.096 215.916 191.693 215.481 192.405 215.158C193.118 214.826 193.946 214.661 194.891 214.661C196.15 214.661 197.348 214.996 198.483 215.667C199.626 216.338 200.554 217.395 201.267 218.837C201.988 220.278 202.348 222.151 202.348 224.455C202.348 226.659 202.004 228.486 201.317 229.936C200.637 231.386 199.726 232.467 198.582 233.18C197.447 233.892 196.2 234.249 194.841 234.249C193.946 234.249 193.147 234.104 192.442 233.814C191.746 233.515 191.15 233.113 190.653 232.608C190.164 232.094 189.787 231.514 189.522 230.868H189.422V241.159H182.561ZM189.273 224.455C189.273 225.383 189.393 226.186 189.633 226.866C189.882 227.537 190.23 228.059 190.677 228.432C191.133 228.796 191.676 228.979 192.306 228.979C192.935 228.979 193.47 228.801 193.909 228.444C194.356 228.08 194.696 227.562 194.928 226.891C195.168 226.211 195.289 225.399 195.289 224.455C195.289 223.51 195.168 222.702 194.928 222.031C194.696 221.351 194.356 220.834 193.909 220.477C193.47 220.113 192.935 219.93 192.306 219.93C191.676 219.93 191.133 220.113 190.677 220.477C190.23 220.834 189.882 221.351 189.633 222.031C189.393 222.702 189.273 223.51 189.273 224.455ZM212.083 208.545V234H205.222V208.545H212.083ZM220.899 234.298C219.68 234.298 218.603 234.099 217.667 233.702C216.739 233.296 216.01 232.683 215.479 231.862C214.949 231.042 214.684 229.998 214.684 228.73C214.684 227.686 214.862 226.795 215.218 226.058C215.575 225.312 216.072 224.703 216.71 224.231C217.348 223.759 218.09 223.398 218.935 223.15C219.788 222.901 220.708 222.739 221.694 222.665C222.763 222.582 223.62 222.482 224.267 222.366C224.921 222.242 225.394 222.072 225.684 221.857C225.974 221.633 226.119 221.339 226.119 220.974V220.925C226.119 220.428 225.928 220.046 225.547 219.781C225.166 219.516 224.677 219.384 224.08 219.384C223.426 219.384 222.891 219.529 222.477 219.819C222.071 220.1 221.827 220.535 221.744 221.124H215.43C215.513 219.964 215.881 218.895 216.536 217.917C217.199 216.931 218.164 216.144 219.432 215.555C220.7 214.959 222.282 214.661 224.18 214.661C225.547 214.661 226.773 214.822 227.859 215.145C228.944 215.46 229.868 215.903 230.63 216.475C231.393 217.039 231.973 217.701 232.37 218.464C232.776 219.218 232.979 220.038 232.979 220.925V234H226.566V231.315H226.417C226.036 232.028 225.572 232.604 225.025 233.043C224.486 233.482 223.869 233.801 223.173 234C222.485 234.199 221.727 234.298 220.899 234.298ZM223.136 229.973C223.658 229.973 224.147 229.865 224.602 229.65C225.066 229.434 225.443 229.124 225.733 228.718C226.023 228.312 226.168 227.819 226.168 227.239V225.648C225.986 225.722 225.791 225.793 225.584 225.859C225.385 225.925 225.17 225.987 224.938 226.045C224.714 226.103 224.474 226.157 224.217 226.207C223.968 226.257 223.707 226.302 223.434 226.344C222.904 226.427 222.469 226.563 222.129 226.754C221.798 226.936 221.549 227.164 221.383 227.438C221.226 227.703 221.147 228.001 221.147 228.332C221.147 228.863 221.334 229.269 221.706 229.55C222.079 229.832 222.556 229.973 223.136 229.973ZM247.643 214.909V219.881H235.064V214.909H247.643ZM237.501 210.335H244.361V227.86C244.361 228.125 244.407 228.349 244.498 228.531C244.589 228.705 244.73 228.838 244.921 228.929C245.111 229.012 245.356 229.053 245.654 229.053C245.861 229.053 246.101 229.028 246.375 228.979C246.657 228.929 246.864 228.888 246.996 228.854L247.991 233.677C247.684 233.768 247.245 233.88 246.673 234.012C246.11 234.145 245.439 234.232 244.66 234.273C243.085 234.356 241.764 234.195 240.695 233.789C239.626 233.374 238.822 232.724 238.284 231.837C237.745 230.951 237.484 229.84 237.501 228.506V210.335ZM259.385 234.348C257.347 234.348 255.59 233.959 254.115 233.18C252.648 232.393 251.517 231.266 250.722 229.799C249.935 228.324 249.541 226.559 249.541 224.504C249.541 222.532 249.939 220.809 250.734 219.334C251.53 217.859 252.652 216.711 254.103 215.891C255.553 215.071 257.264 214.661 259.236 214.661C260.677 214.661 261.983 214.884 263.151 215.332C264.319 215.779 265.318 216.43 266.146 217.283C266.975 218.128 267.613 219.156 268.06 220.365C268.508 221.575 268.731 222.938 268.731 224.455V226.045H251.679V222.267H262.418C262.409 221.72 262.268 221.24 261.995 220.825C261.73 220.403 261.369 220.075 260.914 219.843C260.466 219.603 259.957 219.483 259.385 219.483C258.83 219.483 258.32 219.603 257.856 219.843C257.392 220.075 257.019 220.399 256.737 220.813C256.464 221.227 256.319 221.712 256.302 222.267V226.344C256.302 226.957 256.431 227.504 256.688 227.984C256.945 228.465 257.313 228.842 257.794 229.115C258.275 229.389 258.855 229.526 259.534 229.526C260.006 229.526 260.437 229.459 260.827 229.327C261.224 229.194 261.564 229.004 261.846 228.755C262.128 228.498 262.335 228.192 262.467 227.835H268.731C268.516 229.161 268.006 230.313 267.203 231.29C266.399 232.26 265.334 233.014 264.008 233.553C262.691 234.083 261.15 234.348 259.385 234.348ZM288.981 221.124H282.667C282.634 220.734 282.498 220.399 282.257 220.117C282.017 219.835 281.706 219.62 281.325 219.471C280.952 219.313 280.538 219.234 280.082 219.234C279.494 219.234 278.988 219.342 278.566 219.558C278.143 219.773 277.936 220.08 277.944 220.477C277.936 220.759 278.056 221.02 278.305 221.26C278.562 221.501 279.055 221.687 279.784 221.82L283.662 222.516C285.617 222.872 287.071 223.473 288.024 224.318C288.985 225.155 289.47 226.277 289.479 227.686C289.47 229.045 289.064 230.226 288.26 231.228C287.465 232.223 286.375 232.993 284.992 233.54C283.616 234.079 282.046 234.348 280.281 234.348C277.364 234.348 275.082 233.751 273.433 232.558C271.792 231.365 270.876 229.791 270.686 227.835H277.497C277.588 228.44 277.886 228.908 278.392 229.24C278.906 229.563 279.552 229.724 280.331 229.724C280.961 229.724 281.478 229.617 281.884 229.401C282.299 229.186 282.51 228.879 282.518 228.482C282.51 228.117 282.328 227.827 281.971 227.612C281.623 227.396 281.077 227.222 280.331 227.089L276.95 226.493C275.003 226.153 273.545 225.507 272.575 224.554C271.606 223.601 271.125 222.375 271.133 220.875C271.125 219.549 271.473 218.426 272.177 217.507C272.89 216.579 273.905 215.874 275.222 215.394C276.548 214.905 278.118 214.661 279.933 214.661C282.692 214.661 284.867 215.232 286.458 216.376C288.057 217.519 288.898 219.102 288.981 221.124Z" fill="white"/>
<path d="M210.351 52.426C209.443 50.9876 208.973 49.3157 209 47.6146C209.027 45.9136 209.549 44.2574 210.503 42.8486C211.457 41.4397 212.8 40.3395 214.369 39.6824C215.939 39.0253 217.665 38.84 219.338 39.149C221.011 39.458 222.558 40.248 223.789 41.4223C225.02 42.5966 225.882 44.1042 226.269 45.7608C226.656 47.4173 226.553 49.1508 225.97 50.7492C225.388 52.3477 224.352 53.7416 222.989 54.7605C227.242 57.1055 230 61.61 230 67V72.25C230 72.7141 229.816 73.1592 229.487 73.4874C229.159 73.8156 228.714 74 228.25 74C227.786 74 227.341 73.8156 227.013 73.4874C226.684 73.1592 226.5 72.7141 226.5 72.25V67C226.5 60.966 222.034 56.5 216 56.5C212.815 56.5 211.457 56.43 209.682 56.073C205.307 55.184 201.517 52.573 197.135 47.092C196.979 46.9143 196.86 46.7067 196.786 46.4818C196.712 46.2568 196.684 46.0192 196.705 45.7834C196.726 45.5475 196.794 45.3183 196.906 45.1095C197.017 44.9008 197.17 44.7169 197.355 44.569C197.54 44.4211 197.753 44.3123 197.981 44.2491C198.209 44.1859 198.448 44.1696 198.683 44.2013C198.917 44.233 199.143 44.312 199.346 44.4334C199.55 44.5549 199.726 44.7164 199.865 44.908C203.015 48.842 205.651 50.998 208.384 52.0585C208.927 52.2405 209.591 52.349 210.351 52.426ZM216.598 52.874C216.89 52.909 217.183 52.9487 217.477 52.993L217.75 53C219.092 52.997 220.382 52.4802 221.355 51.5558C222.328 50.6313 222.91 49.3694 222.981 48.0293C223.052 46.6892 222.608 45.3726 221.739 44.35C220.87 43.3274 219.642 42.6765 218.308 42.531C216.974 42.3854 215.634 42.7563 214.565 43.5675C213.496 44.3786 212.778 45.5683 212.559 46.8923C212.34 48.2163 212.636 49.574 213.386 50.6865C214.137 51.799 215.289 52.5817 216.598 52.874ZM208.23 59.895C208.694 59.895 209.139 60.0794 209.467 60.4076C209.796 60.7358 209.98 61.1809 209.98 61.645C209.954 61.9205 209.895 62.1919 209.805 62.4535C209.178 63.7835 209 65.1625 209 67.0105V72.2605C209 72.7246 208.816 73.1697 208.487 73.4979C208.159 73.8261 207.714 74.0105 207.25 74.0105C206.786 74.0105 206.341 73.8261 206.013 73.4979C205.684 73.1697 205.5 72.7246 205.5 72.2605V67.0105C205.5 64.711 205.752 62.8595 206.575 61.0745C206.693 60.73 206.917 60.4312 207.213 60.2197C207.51 60.0083 207.866 59.8948 208.23 59.895ZM194.853 38.202C195.126 38.5655 195.247 39.021 195.19 39.4721C195.133 39.9232 194.903 40.3345 194.548 40.6188C194.193 40.9031 193.742 41.0381 193.289 40.9953C192.836 40.9525 192.418 40.7353 192.123 40.3895L184.885 31.342C184.729 31.1643 184.61 30.9567 184.536 30.7318C184.462 30.5068 184.434 30.2692 184.455 30.0334C184.476 29.7975 184.544 29.5683 184.656 29.3595C184.767 29.1508 184.92 28.9669 185.105 28.819C185.29 28.6711 185.503 28.5623 185.731 28.4991C185.959 28.4359 186.198 28.4196 186.433 28.4513C186.667 28.483 186.893 28.562 187.096 28.6834C187.3 28.8049 187.476 28.9664 187.615 29.158L194.853 38.202ZM177.5 56.5H196.75C197.214 56.5 197.659 56.6844 197.987 57.0126C198.316 57.3408 198.5 57.7859 198.5 58.25C198.5 58.7141 198.316 59.1592 197.987 59.4874C197.659 59.8156 197.214 60 196.75 60H175.75C175.286 60 174.841 59.8156 174.513 59.4874C174.184 59.1592 174 58.7141 174 58.25V19.75C174 19.2859 174.184 18.8408 174.513 18.5126C174.841 18.1844 175.286 18 175.75 18H217.75C218.214 18 218.659 18.1844 218.987 18.5126C219.316 18.8408 219.5 19.2859 219.5 19.75V30.25C219.5 30.7141 219.316 31.1592 218.987 31.4874C218.659 31.8156 218.214 32 217.75 32C217.286 32 216.841 31.8156 216.513 31.4874C216.184 31.1592 216 30.7141 216 30.25V21.5H177.5V56.5Z" fill="white"/>
</g>
<defs>
<clipPath id="clip0_2_23">
<rect width="404" height="299" fill="white"/>
</clipPath>
</defs>
</svg>
