<svg width="404" height="299" viewBox="0 0 404 299" fill="none" xmlns="http://www.w3.org/2000/svg">
<g clip-path="url(#clip0_1_2)">
<rect width="404" height="299" fill="black"/>
<path d="M41.6773 82.5455V108H34.7668V88.9091H34.6177L29.0495 92.2401V86.3736L35.3137 82.5455H41.6773ZM57.9904 108.696C55.6786 108.688 53.6817 108.153 51.9996 107.093C50.3175 106.032 49.0208 104.503 48.1093 102.506C47.1979 100.509 46.7463 98.1148 46.7546 95.3224C46.7629 92.5218 47.2186 90.1437 48.1218 88.1882C49.0332 86.2327 50.3258 84.7454 51.9996 83.7262C53.6817 82.707 55.6786 82.1974 57.9904 82.1974C60.3022 82.1974 62.2991 82.7112 63.9811 83.7386C65.6632 84.7578 66.9599 86.2451 67.8714 88.2006C68.7829 90.1561 69.2344 92.5301 69.2262 95.3224C69.2262 98.1314 68.7704 100.534 67.859 102.531C66.9475 104.528 65.6508 106.057 63.9687 107.118C62.2949 108.17 60.3022 108.696 57.9904 108.696ZM57.9904 103.078C59.1835 103.078 60.1613 102.457 60.9236 101.214C61.6942 99.9626 62.0754 97.9988 62.0671 95.3224C62.0671 93.5741 61.8931 92.1448 61.5451 91.0344C61.197 89.9241 60.7165 89.1038 60.1033 88.5735C59.4901 88.0349 58.7858 87.7656 57.9904 87.7656C56.7972 87.7656 55.8236 88.3705 55.0696 89.5803C54.3155 90.79 53.9302 92.7041 53.9137 95.3224C53.9054 97.1039 54.0752 98.5705 54.4233 99.7223C54.7713 100.866 55.2519 101.711 55.865 102.258C56.4865 102.805 57.1949 103.078 57.9904 103.078ZM83.5568 108.696C81.245 108.688 79.2481 108.153 77.566 107.093C75.884 106.032 74.5872 104.503 73.6757 102.506C72.7643 100.509 72.3127 98.1148 72.321 95.3224C72.3293 92.5218 72.785 90.1437 73.6882 88.1882C74.5996 86.2327 75.8922 84.7454 77.566 83.7262C79.2481 82.707 81.245 82.1974 83.5568 82.1974C85.8686 82.1974 87.8655 82.7112 89.5475 83.7386C91.2296 84.7578 92.5264 86.2451 93.4378 88.2006C94.3493 90.1561 94.8009 92.5301 94.7926 95.3224C94.7926 98.1314 94.3368 100.534 93.4254 102.531C92.5139 104.528 91.2172 106.057 89.5351 107.118C87.8613 108.17 85.8686 108.696 83.5568 108.696ZM83.5568 103.078C84.75 103.078 85.7277 102.457 86.49 101.214C87.2606 99.9626 87.6418 97.9988 87.6335 95.3224C87.6335 93.5741 87.4595 92.1448 87.1115 91.0344C86.7635 89.9241 86.2829 89.1038 85.6697 88.5735C85.0565 88.0349 84.3522 87.7656 83.5568 87.7656C82.3636 87.7656 81.39 88.3705 80.636 89.5803C79.8819 90.79 79.4966 92.7041 79.4801 95.3224C79.4718 97.1039 79.6416 98.5705 79.9897 99.7223C80.3377 100.866 80.8183 101.711 81.4314 102.258C82.0529 102.805 82.7613 103.078 83.5568 103.078ZM105.693 104.52V86.125H111.261V104.52H105.693ZM99.2794 98.1065V92.5384H117.674V98.1065H99.2794ZM129.227 108V82.5455H140.264C142.203 82.5455 143.831 82.8065 145.149 83.3285C146.474 83.8505 147.473 84.5879 148.144 85.5408C148.823 86.4937 149.163 87.6165 149.163 88.9091C149.163 89.8454 148.956 90.6989 148.542 91.4695C148.136 92.2401 147.564 92.8864 146.826 93.4084C146.089 93.9221 145.227 94.2784 144.241 94.4773V94.7259C145.335 94.7673 146.329 95.0449 147.224 95.5586C148.119 96.064 148.832 96.7642 149.362 97.6591C149.892 98.5457 150.157 99.5897 150.157 100.791C150.157 102.183 149.793 103.422 149.064 104.507C148.343 105.593 147.315 106.446 145.981 107.068C144.647 107.689 143.056 108 141.209 108H129.227ZM136.138 102.482H139.369C140.529 102.482 141.399 102.266 141.979 101.835C142.559 101.396 142.849 100.75 142.849 99.8963C142.849 99.2997 142.712 98.7943 142.439 98.38C142.166 97.9657 141.776 97.6508 141.271 97.4354C140.774 97.2199 140.173 97.1122 139.469 97.1122H136.138V102.482ZM136.138 92.8366H138.971C139.576 92.8366 140.111 92.7414 140.575 92.5508C141.039 92.3602 141.399 92.0868 141.656 91.7305C141.921 91.3659 142.054 90.9226 142.054 90.4006C142.054 89.6134 141.772 89.0127 141.209 88.5984C140.645 88.1758 139.933 87.9645 139.071 87.9645H136.138V92.8366ZM152.656 108V103.028L162.151 95.1733C162.781 94.6513 163.32 94.1624 163.767 93.7067C164.223 93.2427 164.571 92.7662 164.811 92.2773C165.06 91.7885 165.184 91.2457 165.184 90.6491C165.184 89.9946 165.043 89.4353 164.761 88.9712C164.488 88.5072 164.107 88.1509 163.618 87.9023C163.129 87.6455 162.566 87.517 161.928 87.517C161.29 87.517 160.726 87.6455 160.237 87.9023C159.757 88.1592 159.384 88.5362 159.119 89.0334C158.854 89.5305 158.721 90.1354 158.721 90.848H152.159C152.159 89.0582 152.56 87.517 153.364 86.2244C154.168 84.9318 155.303 83.9375 156.77 83.2415C158.236 82.5455 159.956 82.1974 161.928 82.1974C163.966 82.1974 165.731 82.5247 167.222 83.1793C168.722 83.8256 169.878 84.7371 170.69 85.9137C171.51 87.0903 171.921 88.4699 171.921 90.0526C171.921 91.0303 171.718 92.0039 171.312 92.9734C170.906 93.9345 170.176 94.9993 169.124 96.1676C168.072 97.3359 166.576 98.728 164.637 100.344L162.251 102.332V102.482H172.194V108H152.656ZM175.233 108V82.5455H186.27C188.209 82.5455 189.837 82.8065 191.154 83.3285C192.48 83.8505 193.479 84.5879 194.15 85.5408C194.829 86.4937 195.169 87.6165 195.169 88.9091C195.169 89.8454 194.962 90.6989 194.548 91.4695C194.142 92.2401 193.57 92.8864 192.832 93.4084C192.095 93.9221 191.233 94.2784 190.247 94.4773V94.7259C191.341 94.7673 192.335 95.0449 193.23 95.5586C194.125 96.064 194.838 96.7642 195.368 97.6591C195.898 98.5457 196.163 99.5897 196.163 100.791C196.163 102.183 195.799 103.422 195.07 104.507C194.349 105.593 193.321 106.446 191.987 107.068C190.653 107.689 189.062 108 187.214 108H175.233ZM182.143 102.482H185.375C186.535 102.482 187.405 102.266 187.985 101.835C188.565 101.396 188.855 100.75 188.855 99.8963C188.855 99.2997 188.718 98.7943 188.445 98.38C188.171 97.9657 187.782 97.6508 187.277 97.4354C186.779 97.2199 186.179 97.1122 185.474 97.1122H182.143V102.482ZM182.143 92.8366H184.977C185.582 92.8366 186.117 92.7414 186.581 92.5508C187.045 92.3602 187.405 92.0868 187.662 91.7305C187.927 91.3659 188.06 90.9226 188.06 90.4006C188.06 89.6134 187.778 89.0127 187.214 88.5984C186.651 88.1758 185.938 87.9645 185.077 87.9645H182.143V92.8366ZM214.881 108.348C212.81 108.348 211.037 107.938 209.562 107.118C208.087 106.289 206.956 105.137 206.169 103.662C205.381 102.179 204.988 100.46 204.988 98.5043C204.988 96.5488 205.381 94.8336 206.169 93.3587C206.956 91.8755 208.087 90.7237 209.562 89.9034C211.037 89.0748 212.81 88.6605 214.881 88.6605C216.953 88.6605 218.726 89.0748 220.201 89.9034C221.676 90.7237 222.807 91.8755 223.594 93.3587C224.381 94.8336 224.775 96.5488 224.775 98.5043C224.775 100.46 224.381 102.179 223.594 103.662C222.807 105.137 221.676 106.289 220.201 107.118C218.726 107.938 216.953 108.348 214.881 108.348ZM214.931 103.277C215.511 103.277 216.012 103.082 216.435 102.693C216.858 102.303 217.185 101.748 217.417 101.027C217.649 100.306 217.765 99.4489 217.765 98.4545C217.765 97.4519 217.649 96.5943 217.417 95.8817C217.185 95.1609 216.858 94.6057 216.435 94.2163C216.012 93.8268 215.511 93.6321 214.931 93.6321C214.318 93.6321 213.792 93.8268 213.353 94.2163C212.913 94.6057 212.578 95.1609 212.346 95.8817C212.114 96.5943 211.998 97.4519 211.998 98.4545C211.998 99.4489 212.114 100.306 212.346 101.027C212.578 101.748 212.913 102.303 213.353 102.693C213.792 103.082 214.318 103.277 214.931 103.277ZM239.938 99.6477V88.9091H246.799V108H240.286V104.371H240.087C239.673 105.589 238.948 106.542 237.912 107.229C236.876 107.909 235.646 108.249 234.221 108.249C232.887 108.249 231.718 107.942 230.716 107.329C229.722 106.716 228.947 105.871 228.392 104.793C227.845 103.716 227.567 102.482 227.559 101.089V88.9091H234.42V99.6477C234.428 100.592 234.668 101.334 235.141 101.873C235.621 102.411 236.292 102.68 237.154 102.68C237.726 102.68 238.219 102.56 238.633 102.32C239.056 102.071 239.379 101.723 239.603 101.276C239.835 100.82 239.946 100.277 239.938 99.6477ZM261.673 88.9091V93.8807H249.095V88.9091H261.673ZM251.531 84.3352H258.392V101.86C258.392 102.125 258.438 102.349 258.529 102.531C258.62 102.705 258.761 102.838 258.951 102.929C259.142 103.012 259.386 103.053 259.685 103.053C259.892 103.053 260.132 103.028 260.406 102.979C260.687 102.929 260.894 102.888 261.027 102.854L262.021 107.677C261.715 107.768 261.276 107.88 260.704 108.012C260.14 108.145 259.469 108.232 258.69 108.273C257.116 108.356 255.794 108.195 254.726 107.789C253.657 107.374 252.853 106.724 252.314 105.837C251.776 104.951 251.515 103.84 251.531 102.506V84.3352ZM264.784 108V82.5455H271.644V92.2401H271.744C271.992 91.5937 272.357 91.0013 272.838 90.4627C273.318 89.9158 273.915 89.4808 274.627 89.1577C275.34 88.8262 276.169 88.6605 277.113 88.6605C278.373 88.6605 279.57 88.9961 280.705 89.6673C281.849 90.3384 282.777 91.3949 283.489 92.8366C284.21 94.2784 284.571 96.151 284.571 98.4545C284.571 100.659 284.227 102.486 283.539 103.936C282.86 105.386 281.948 106.467 280.805 107.18C279.669 107.892 278.422 108.249 277.064 108.249C276.169 108.249 275.369 108.104 274.665 107.814C273.969 107.515 273.372 107.113 272.875 106.608C272.386 106.094 272.009 105.514 271.744 104.868H271.595V108H264.784ZM271.495 98.4545C271.495 99.3826 271.615 100.186 271.856 100.866C272.104 101.537 272.452 102.059 272.9 102.432C273.356 102.796 273.898 102.979 274.528 102.979C275.158 102.979 275.692 102.801 276.131 102.444C276.579 102.08 276.919 101.562 277.151 100.891C277.391 100.211 277.511 99.3991 277.511 98.4545C277.511 97.5099 277.391 96.7021 277.151 96.0309C276.919 95.3514 276.579 94.8336 276.131 94.4773C275.692 94.1127 275.158 93.9304 274.528 93.9304C273.898 93.9304 273.356 94.1127 272.9 94.4773C272.452 94.8336 272.104 95.3514 271.856 96.0309C271.615 96.7021 271.495 97.5099 271.495 98.4545ZM296.639 108.348C294.568 108.348 292.794 107.938 291.32 107.118C289.845 106.289 288.714 105.137 287.926 103.662C287.139 102.179 286.746 100.46 286.746 98.5043C286.746 96.5488 287.139 94.8336 287.926 93.3587C288.714 91.8755 289.845 90.7237 291.32 89.9034C292.794 89.0748 294.568 88.6605 296.639 88.6605C298.711 88.6605 300.484 89.0748 301.959 89.9034C303.434 90.7237 304.565 91.8755 305.352 93.3587C306.139 94.8336 306.533 96.5488 306.533 98.5043C306.533 100.46 306.139 102.179 305.352 103.662C304.565 105.137 303.434 106.289 301.959 107.118C300.484 107.938 298.711 108.348 296.639 108.348ZM296.689 103.277C297.269 103.277 297.77 103.082 298.193 102.693C298.615 102.303 298.943 101.748 299.175 101.027C299.407 100.306 299.523 99.4489 299.523 98.4545C299.523 97.4519 299.407 96.5943 299.175 95.8817C298.943 95.1609 298.615 94.6057 298.193 94.2163C297.77 93.8268 297.269 93.6321 296.689 93.6321C296.076 93.6321 295.55 93.8268 295.11 94.2163C294.671 94.6057 294.336 95.1609 294.104 95.8817C293.872 96.5943 293.756 97.4519 293.756 98.4545C293.756 99.4489 293.872 100.306 294.104 101.027C294.336 101.748 294.671 102.303 295.11 102.693C295.55 103.082 296.076 103.277 296.689 103.277ZM321.696 99.6477V88.9091H328.557V108H322.044V104.371H321.845C321.431 105.589 320.706 106.542 319.67 107.229C318.634 107.909 317.404 108.249 315.979 108.249C314.645 108.249 313.476 107.942 312.474 107.329C311.479 106.716 310.705 105.871 310.149 104.793C309.603 103.716 309.325 102.482 309.317 101.089V88.9091H316.178V99.6477C316.186 100.592 316.426 101.334 316.898 101.873C317.379 102.411 318.05 102.68 318.912 102.68C319.484 102.68 319.977 102.56 320.391 102.32C320.814 102.071 321.137 101.723 321.36 101.276C321.592 100.82 321.704 100.277 321.696 99.6477ZM338.907 97.2614V108H332.046V88.9091H338.559V92.5384H338.758C339.172 91.3286 339.901 90.3799 340.945 89.6921C341.998 89.0044 343.224 88.6605 344.624 88.6605C345.975 88.6605 347.147 88.9712 348.142 89.5927C349.144 90.2058 349.919 91.051 350.466 92.1282C351.021 93.2054 351.295 94.4358 351.286 95.8196V108H344.425V97.2614C344.434 96.3168 344.193 95.5752 343.705 95.0366C343.224 94.498 342.553 94.2287 341.691 94.2287C341.128 94.2287 340.635 94.353 340.212 94.6016C339.798 94.8419 339.479 95.1899 339.255 95.6456C339.031 96.093 338.915 96.6316 338.907 97.2614ZM361.584 108.249C360.225 108.249 358.974 107.892 357.83 107.18C356.695 106.467 355.783 105.386 355.096 103.936C354.416 102.486 354.077 100.659 354.077 98.4545C354.077 96.151 354.433 94.2784 355.145 92.8366C355.866 91.3949 356.794 90.3384 357.93 89.6673C359.073 88.9961 360.274 88.6605 361.534 88.6605C362.479 88.6605 363.307 88.8262 364.02 89.1577C364.732 89.4808 365.329 89.9158 365.81 90.4627C366.29 91.0013 366.655 91.5937 366.903 92.2401H367.003V82.5455H373.864V108H367.052V104.868H366.903C366.638 105.514 366.257 106.094 365.76 106.608C365.271 107.113 364.674 107.515 363.97 107.814C363.274 108.104 362.479 108.249 361.584 108.249ZM364.119 102.979C364.749 102.979 365.288 102.796 365.735 102.432C366.191 102.059 366.539 101.537 366.779 100.866C367.028 100.186 367.152 99.3826 367.152 98.4545C367.152 97.5099 367.028 96.7021 366.779 96.0309C366.539 95.3514 366.191 94.8336 365.735 94.4773C365.288 94.1127 364.749 93.9304 364.119 93.9304C363.489 93.9304 362.951 94.1127 362.503 94.4773C362.064 94.8336 361.725 95.3514 361.484 96.0309C361.252 96.7021 361.136 97.5099 361.136 98.4545C361.136 99.3991 361.252 100.211 361.484 100.891C361.725 101.562 362.064 102.08 362.503 102.444C362.951 102.801 363.489 102.979 364.119 102.979ZM72.7948 137.124H66.4809C66.4478 136.734 66.3111 136.399 66.0708 136.117C65.8305 135.835 65.5197 135.62 65.1386 135.471C64.7657 135.313 64.3514 135.234 63.8957 135.234C63.3074 135.234 62.8019 135.342 62.3794 135.558C61.9568 135.773 61.7496 136.08 61.7579 136.477C61.7496 136.759 61.8698 137.02 62.1183 137.26C62.3752 137.501 62.8682 137.687 63.5974 137.82L67.4752 138.516C69.4307 138.872 70.8849 139.473 71.8378 140.318C72.799 141.155 73.2837 142.277 73.292 143.686C73.2837 145.045 72.8777 146.226 72.074 147.228C71.2785 148.223 70.1889 148.993 68.8051 149.54C67.4297 150.079 65.8595 150.348 64.0945 150.348C61.1779 150.348 58.8951 149.751 57.2462 148.558C55.6056 147.365 54.69 145.791 54.4994 143.835H61.3105C61.4016 144.44 61.6999 144.908 62.2053 145.24C62.7191 145.563 63.3654 145.724 64.1443 145.724C64.774 145.724 65.2919 145.617 65.6979 145.401C66.1122 145.186 66.3235 144.879 66.3318 144.482C66.3235 144.117 66.1412 143.827 65.7849 143.612C65.4369 143.396 64.89 143.222 64.1443 143.089L60.7636 142.493C58.8164 142.153 57.358 141.507 56.3886 140.554C55.4191 139.601 54.9385 138.375 54.9468 136.875C54.9385 135.549 55.2865 134.426 55.9909 133.507C56.7035 132.579 57.7185 131.874 59.036 131.394C60.3617 130.905 61.9319 130.661 63.7465 130.661C66.5058 130.661 68.6808 131.232 70.2718 132.376C71.8709 133.519 72.712 135.102 72.7948 137.124ZM80.0969 157.159C79.3097 157.159 78.5598 157.097 77.8472 156.973C77.1346 156.857 76.509 156.695 75.9704 156.488L77.4619 151.616C78.0254 151.815 78.5391 151.943 79.0031 152.001C79.4754 152.059 79.8773 152.026 80.2087 151.902C80.5484 151.777 80.7929 151.541 80.942 151.193L81.0912 150.845L74.3795 130.909H81.5386L84.621 144.134H84.8199L87.952 130.909H95.1608L88.2006 151.591C87.8525 152.643 87.3471 153.588 86.6842 154.425C86.0296 155.27 85.1679 155.937 84.099 156.426C83.0301 156.915 81.6961 157.159 80.0969 157.159ZM114.562 137.124H108.248C108.215 136.734 108.079 136.399 107.838 136.117C107.598 135.835 107.287 135.62 106.906 135.471C106.533 135.313 106.119 135.234 105.663 135.234C105.075 135.234 104.57 135.342 104.147 135.558C103.724 135.773 103.517 136.08 103.525 136.477C103.517 136.759 103.637 137.02 103.886 137.26C104.143 137.501 104.636 137.687 105.365 137.82L109.243 138.516C111.198 138.872 112.652 139.473 113.605 140.318C114.567 141.155 115.051 142.277 115.06 143.686C115.051 145.045 114.645 146.226 113.842 147.228C113.046 148.223 111.956 148.993 110.573 149.54C109.197 150.079 107.627 150.348 105.862 150.348C102.945 150.348 100.663 149.751 99.0138 148.558C97.3731 147.365 96.4575 145.791 96.267 143.835H103.078C103.169 144.44 103.467 144.908 103.973 145.24C104.487 145.563 105.133 145.724 105.912 145.724C106.542 145.724 107.059 145.617 107.465 145.401C107.88 145.186 108.091 144.879 108.099 144.482C108.091 144.117 107.909 143.827 107.552 143.612C107.204 143.396 106.658 143.222 105.912 143.089L102.531 142.493C100.584 142.153 99.1256 141.507 98.1562 140.554C97.1867 139.601 96.7061 138.375 96.7144 136.875C96.7061 135.549 97.0541 134.426 97.7584 133.507C98.471 132.579 99.4861 131.874 100.804 131.394C102.129 130.905 103.699 130.661 105.514 130.661C108.273 130.661 110.448 131.232 112.039 132.376C113.639 133.519 114.48 135.102 114.562 137.124ZM129.073 130.909V135.881H116.495V130.909H129.073ZM118.931 126.335H125.792V143.86C125.792 144.125 125.838 144.349 125.929 144.531C126.02 144.705 126.161 144.838 126.351 144.929C126.542 145.012 126.786 145.053 127.085 145.053C127.292 145.053 127.532 145.028 127.805 144.979C128.087 144.929 128.294 144.888 128.427 144.854L129.421 149.677C129.115 149.768 128.676 149.88 128.104 150.012C127.54 150.145 126.869 150.232 126.09 150.273C124.516 150.356 123.194 150.195 122.125 149.789C121.057 149.374 120.253 148.724 119.714 147.837C119.176 146.951 118.915 145.84 118.931 144.506V126.335ZM140.816 150.348C138.777 150.348 137.021 149.959 135.546 149.18C134.079 148.393 132.948 147.266 132.153 145.799C131.365 144.324 130.972 142.559 130.972 140.504C130.972 138.532 131.369 136.809 132.165 135.334C132.96 133.859 134.083 132.711 135.533 131.891C136.983 131.071 138.694 130.661 140.666 130.661C142.108 130.661 143.413 130.884 144.581 131.332C145.75 131.779 146.748 132.43 147.577 133.283C148.405 134.128 149.044 135.156 149.491 136.365C149.938 137.575 150.162 138.938 150.162 140.455V142.045H133.11V138.267H143.848C143.84 137.72 143.699 137.24 143.426 136.825C143.16 136.403 142.8 136.075 142.344 135.843C141.897 135.603 141.387 135.483 140.816 135.483C140.26 135.483 139.751 135.603 139.287 135.843C138.823 136.075 138.45 136.399 138.168 136.813C137.895 137.227 137.75 137.712 137.733 138.267V142.344C137.733 142.957 137.862 143.504 138.118 143.984C138.375 144.465 138.744 144.842 139.225 145.115C139.705 145.389 140.285 145.526 140.965 145.526C141.437 145.526 141.868 145.459 142.257 145.327C142.655 145.194 142.995 145.004 143.276 144.755C143.558 144.498 143.765 144.192 143.898 143.835H150.162C149.947 145.161 149.437 146.313 148.633 147.29C147.83 148.26 146.765 149.014 145.439 149.553C144.122 150.083 142.58 150.348 140.816 150.348ZM152.962 150V130.909H159.475V134.538H159.673C160.071 133.345 160.751 132.401 161.712 131.705C162.673 131.009 163.816 130.661 165.142 130.661C166.484 130.661 167.64 131.017 168.61 131.729C169.579 132.434 170.163 133.37 170.362 134.538H170.561C170.884 133.37 171.572 132.434 172.624 131.729C173.677 131.017 174.911 130.661 176.328 130.661C178.159 130.661 179.643 131.249 180.778 132.425C181.921 133.602 182.493 135.168 182.493 137.124V150H175.632V138.864C175.632 138.027 175.421 137.372 174.998 136.9C174.576 136.419 174.008 136.179 173.296 136.179C172.591 136.179 172.032 136.419 171.618 136.9C171.212 137.372 171.009 138.027 171.009 138.864V150H164.446V138.864C164.446 138.027 164.235 137.372 163.812 136.9C163.39 136.419 162.822 136.179 162.109 136.179C161.637 136.179 161.231 136.287 160.891 136.502C160.552 136.718 160.287 137.028 160.096 137.434C159.914 137.832 159.823 138.308 159.823 138.864V150H152.962ZM203.327 137.124H197.013C196.98 136.734 196.843 136.399 196.603 136.117C196.363 135.835 196.052 135.62 195.671 135.471C195.298 135.313 194.884 135.234 194.428 135.234C193.84 135.234 193.334 135.342 192.912 135.558C192.489 135.773 192.282 136.08 192.29 136.477C192.282 136.759 192.402 137.02 192.651 137.26C192.907 137.501 193.4 137.687 194.13 137.82L198.007 138.516C199.963 138.872 201.417 139.473 202.37 140.318C203.331 141.155 203.816 142.277 203.824 143.686C203.816 145.045 203.41 146.226 202.606 147.228C201.811 148.223 200.721 148.993 199.337 149.54C197.962 150.079 196.392 150.348 194.627 150.348C191.71 150.348 189.427 149.751 187.778 148.558C186.138 147.365 185.222 145.791 185.032 143.835H191.843C191.934 144.44 192.232 144.908 192.738 145.24C193.251 145.563 193.898 145.724 194.676 145.724C195.306 145.724 195.824 145.617 196.23 145.401C196.644 145.186 196.856 144.879 196.864 144.482C196.856 144.117 196.673 143.827 196.317 143.612C195.969 143.396 195.422 143.222 194.676 143.089L191.296 142.493C189.349 142.153 187.89 141.507 186.921 140.554C185.951 139.601 185.471 138.375 185.479 136.875C185.471 135.549 185.819 134.426 186.523 133.507C187.236 132.579 188.251 131.874 189.568 131.394C190.894 130.905 192.464 130.661 194.279 130.661C197.038 130.661 199.213 131.232 200.804 132.376C202.403 133.519 203.244 135.102 203.327 137.124ZM213.326 150V124.545H220.187V134.24H220.286C220.535 133.594 220.9 133.001 221.38 132.463C221.861 131.916 222.457 131.481 223.17 131.158C223.883 130.826 224.711 130.661 225.656 130.661C226.915 130.661 228.113 130.996 229.248 131.667C230.391 132.338 231.319 133.395 232.032 134.837C232.753 136.278 233.113 138.151 233.113 140.455C233.113 142.659 232.769 144.486 232.081 145.936C231.402 147.386 230.491 148.467 229.347 149.18C228.212 149.892 226.965 150.249 225.606 150.249C224.711 150.249 223.912 150.104 223.207 149.814C222.511 149.515 221.915 149.113 221.417 148.608C220.929 148.094 220.552 147.514 220.286 146.868H220.137V150H213.326ZM220.038 140.455C220.038 141.383 220.158 142.186 220.398 142.866C220.647 143.537 220.995 144.059 221.442 144.432C221.898 144.796 222.441 144.979 223.07 144.979C223.7 144.979 224.235 144.801 224.674 144.444C225.121 144.08 225.461 143.562 225.693 142.891C225.933 142.211 226.053 141.399 226.053 140.455C226.053 139.51 225.933 138.702 225.693 138.031C225.461 137.351 225.121 136.834 224.674 136.477C224.235 136.113 223.7 135.93 223.07 135.93C222.441 135.93 221.898 136.113 221.442 136.477C220.995 136.834 220.647 137.351 220.398 138.031C220.158 138.702 220.038 139.51 220.038 140.455ZM248.363 141.648V130.909H255.224V150H248.711V146.371H248.513C248.098 147.589 247.373 148.542 246.338 149.229C245.302 149.909 244.071 150.249 242.646 150.249C241.312 150.249 240.144 149.942 239.141 149.329C238.147 148.716 237.372 147.871 236.817 146.793C236.27 145.716 235.992 144.482 235.984 143.089V130.909H242.845V141.648C242.853 142.592 243.094 143.334 243.566 143.873C244.046 144.411 244.718 144.68 245.579 144.68C246.151 144.68 246.644 144.56 247.058 144.32C247.481 144.071 247.804 143.723 248.028 143.276C248.26 142.82 248.372 142.277 248.363 141.648ZM258.714 150V130.909H265.574V150H258.714ZM262.144 128.92C261.216 128.92 260.421 128.614 259.758 128.001C259.095 127.388 258.763 126.65 258.763 125.788C258.763 124.927 259.095 124.189 259.758 123.576C260.421 122.963 261.216 122.656 262.144 122.656C263.08 122.656 263.876 122.963 264.53 123.576C265.193 124.189 265.525 124.927 265.525 125.788C265.525 126.65 265.193 127.388 264.53 128.001C263.876 128.614 263.08 128.92 262.144 128.92ZM275.931 124.545V150H269.07V124.545H275.931ZM290.812 130.909V135.881H278.233V130.909H290.812ZM280.669 126.335H287.53V143.86C287.53 144.125 287.576 144.349 287.667 144.531C287.758 144.705 287.899 144.838 288.09 144.929C288.28 145.012 288.525 145.053 288.823 145.053C289.03 145.053 289.27 145.028 289.544 144.979C289.825 144.929 290.033 144.888 290.165 144.854L291.16 149.677C290.853 149.768 290.414 149.88 289.842 150.012C289.279 150.145 288.607 150.232 287.829 150.273C286.254 150.356 284.933 150.195 283.864 149.789C282.795 149.374 281.991 148.724 281.453 147.837C280.914 146.951 280.653 145.84 280.669 144.506V126.335Z" fill="#330AFF"/>
<path d="M312.018 130.909V135.881H299.241V130.909H312.018ZM301.678 150V130.362C301.678 128.788 301.959 127.483 302.523 126.447C303.086 125.411 303.882 124.637 304.909 124.123C305.937 123.609 307.146 123.352 308.538 123.352C309.408 123.352 310.254 123.419 311.074 123.551C311.902 123.684 312.516 123.8 312.913 123.899L311.919 128.821C311.67 128.746 311.38 128.688 311.049 128.647C310.718 128.597 310.428 128.572 310.179 128.572C309.533 128.572 309.098 128.709 308.874 128.983C308.65 129.256 308.538 129.616 308.538 130.064V150H301.678ZM323.282 150.348C321.211 150.348 319.438 149.938 317.963 149.118C316.488 148.289 315.357 147.137 314.57 145.662C313.782 144.179 313.389 142.46 313.389 140.504C313.389 138.549 313.782 136.834 314.57 135.359C315.357 133.875 316.488 132.724 317.963 131.903C319.438 131.075 321.211 130.661 323.282 130.661C325.354 130.661 327.127 131.075 328.602 131.903C330.077 132.724 331.208 133.875 331.995 135.359C332.782 136.834 333.176 138.549 333.176 140.504C333.176 142.46 332.782 144.179 331.995 145.662C331.208 147.137 330.077 148.289 328.602 149.118C327.127 149.938 325.354 150.348 323.282 150.348ZM323.332 145.277C323.912 145.277 324.413 145.082 324.836 144.693C325.258 144.303 325.586 143.748 325.818 143.027C326.05 142.306 326.166 141.449 326.166 140.455C326.166 139.452 326.05 138.594 325.818 137.882C325.586 137.161 325.258 136.606 324.836 136.216C324.413 135.827 323.912 135.632 323.332 135.632C322.719 135.632 322.193 135.827 321.753 136.216C321.314 136.606 320.979 137.161 320.747 137.882C320.515 138.594 320.399 139.452 320.399 140.455C320.399 141.449 320.515 142.306 320.747 143.027C320.979 143.748 321.314 144.303 321.753 144.693C322.193 145.082 322.719 145.277 323.332 145.277ZM335.96 150V130.909H342.622V134.538H342.821C343.169 133.196 343.72 132.214 344.474 131.593C345.236 130.971 346.127 130.661 347.146 130.661C347.444 130.661 347.738 130.685 348.028 130.735C348.327 130.777 348.612 130.839 348.886 130.922V136.776C348.546 136.66 348.128 136.573 347.631 136.515C347.133 136.457 346.707 136.428 346.35 136.428C345.679 136.428 345.074 136.581 344.536 136.887C344.005 137.186 343.587 137.608 343.28 138.155C342.974 138.694 342.821 139.328 342.821 140.057V150H335.96ZM32.8046 179.124H26.4907C26.4575 178.734 26.3208 178.399 26.0805 178.117C25.8402 177.835 25.5295 177.62 25.1483 177.471C24.7755 177.313 24.3612 177.234 23.9055 177.234C23.3171 177.234 22.8117 177.342 22.3891 177.558C21.9665 177.773 21.7594 178.08 21.7677 178.477C21.7594 178.759 21.8795 179.02 22.1281 179.26C22.385 179.501 22.878 179.687 23.6072 179.82L27.485 180.516C29.4405 180.872 30.8947 181.473 31.8476 182.318C32.8087 183.155 33.2935 184.277 33.3018 185.686C33.2935 187.045 32.8875 188.226 32.0837 189.228C31.2883 190.223 30.1987 190.993 28.8149 191.54C27.4394 192.079 25.8692 192.348 24.1043 192.348C21.1876 192.348 18.9049 191.751 17.2559 190.558C15.6153 189.365 14.6997 187.791 14.5091 185.835H21.3202C21.4114 186.44 21.7097 186.908 22.2151 187.24C22.7288 187.563 23.3751 187.724 24.154 187.724C24.7838 187.724 25.3016 187.617 25.7077 187.401C26.122 187.186 26.3332 186.879 26.3415 186.482C26.3332 186.117 26.151 185.827 25.7947 185.612C25.4466 185.396 24.8998 185.222 24.154 185.089L20.7733 184.493C18.8261 184.153 17.3678 183.507 16.3983 182.554C15.4289 181.601 14.9483 180.375 14.9566 178.875C14.9483 177.549 15.2963 176.426 16.0006 175.507C16.7132 174.579 17.7282 173.874 19.0457 173.394C20.3715 172.905 21.9417 172.661 23.7563 172.661C26.5155 172.661 28.6906 173.232 30.2815 174.376C31.8807 175.519 32.7217 177.102 32.8046 179.124ZM47.3154 172.909V177.881H34.7373V172.909H47.3154ZM37.1734 168.335H44.0342V185.86C44.0342 186.125 44.0798 186.349 44.1709 186.531C44.262 186.705 44.4029 186.838 44.5935 186.929C44.7841 187.012 45.0285 187.053 45.3268 187.053C45.5339 187.053 45.7742 187.028 46.0477 186.979C46.3294 186.929 46.5365 186.888 46.6691 186.854L47.6634 191.677C47.3569 191.768 46.9177 191.88 46.346 192.012C45.7825 192.145 45.1114 192.232 44.3325 192.273C42.7581 192.356 41.4365 192.195 40.3676 191.789C39.2987 191.374 38.495 190.724 37.9564 189.837C37.4178 188.951 37.1568 187.84 37.1734 186.506V168.335ZM55.4347 192.298C54.2166 192.298 53.1394 192.099 52.2031 191.702C51.2751 191.296 50.5459 190.683 50.0156 189.862C49.4853 189.042 49.2202 187.998 49.2202 186.73C49.2202 185.686 49.3983 184.795 49.7546 184.058C50.1109 183.312 50.6081 182.703 51.2461 182.231C51.8841 181.759 52.6257 181.398 53.4709 181.15C54.3243 180.901 55.2441 180.739 56.2301 180.665C57.299 180.582 58.1566 180.482 58.8029 180.366C59.4575 180.242 59.9298 180.072 60.2198 179.857C60.5098 179.633 60.6548 179.339 60.6548 178.974V178.925C60.6548 178.428 60.4643 178.046 60.0831 177.781C59.7019 177.516 59.2131 177.384 58.6165 177.384C57.9619 177.384 57.4274 177.529 57.0131 177.819C56.6071 178.1 56.3627 178.535 56.2798 179.124H49.9659C50.0488 177.964 50.4175 176.895 51.0721 175.917C51.735 174.931 52.7003 174.144 53.968 173.555C55.2358 172.959 56.8184 172.661 58.7159 172.661C60.0831 172.661 61.3094 172.822 62.3949 173.145C63.4804 173.46 64.4042 173.903 65.1665 174.475C65.9289 175.039 66.5089 175.701 66.9066 176.464C67.3126 177.218 67.5156 178.038 67.5156 178.925V192H61.1023V189.315H60.9531C60.572 190.028 60.108 190.604 59.5611 191.043C59.0225 191.482 58.4052 191.801 57.7092 192C57.0214 192.199 56.2633 192.298 55.4347 192.298ZM57.6719 187.973C58.1939 187.973 58.6828 187.865 59.1385 187.65C59.6025 187.434 59.9795 187.124 60.2695 186.718C60.5595 186.312 60.7045 185.819 60.7045 185.239V183.648C60.5223 183.722 60.3275 183.793 60.1204 183.859C59.9215 183.925 59.7061 183.987 59.4741 184.045C59.2504 184.103 59.0101 184.157 58.7532 184.207C58.5046 184.257 58.2436 184.302 57.9702 184.344C57.4399 184.427 57.0049 184.563 56.6651 184.754C56.3337 184.936 56.0851 185.164 55.9194 185.438C55.762 185.703 55.6832 186.001 55.6832 186.332C55.6832 186.863 55.8697 187.269 56.2425 187.55C56.6154 187.832 57.0919 187.973 57.6719 187.973ZM70.7938 192V172.909H77.4557V176.538H77.6546C78.0026 175.196 78.5536 174.214 79.3076 173.593C80.0699 172.971 80.9607 172.661 81.9798 172.661C82.2781 172.661 82.5723 172.685 82.8623 172.735C83.1606 172.777 83.4465 172.839 83.7199 172.922V178.776C83.3802 178.66 82.9617 178.573 82.4646 178.515C81.9674 178.457 81.5407 178.428 81.1844 178.428C80.5132 178.428 79.9084 178.581 79.3698 178.887C78.8395 179.186 78.421 179.608 78.1144 180.155C77.8079 180.694 77.6546 181.328 77.6546 182.057V192H70.7938ZM98.1406 172.909V177.881H85.5625V172.909H98.1406ZM87.9986 168.335H94.8594V185.86C94.8594 186.125 94.9049 186.349 94.9961 186.531C95.0872 186.705 95.2281 186.838 95.4187 186.929C95.6093 187.012 95.8537 187.053 96.152 187.053C96.3591 187.053 96.5994 187.028 96.8729 186.979C97.1546 186.929 97.3617 186.888 97.4943 186.854L98.4886 191.677C98.1821 191.768 97.7429 191.88 97.1712 192.012C96.6077 192.145 95.9366 192.232 95.1577 192.273C93.5833 192.356 92.2617 192.195 91.1928 191.789C90.1239 191.374 89.3202 190.724 88.7816 189.837C88.243 188.951 87.982 187.84 87.9986 186.506V168.335ZM113.32 183.648V172.909H120.18V192H113.668V188.371H113.469C113.054 189.589 112.329 190.542 111.294 191.229C110.258 191.909 109.027 192.249 107.602 192.249C106.268 192.249 105.1 191.942 104.097 191.329C103.103 190.716 102.328 189.871 101.773 188.793C101.226 187.716 100.949 186.482 100.94 185.089V172.909H107.801V183.648C107.809 184.592 108.05 185.334 108.522 185.873C109.003 186.411 109.674 186.68 110.535 186.68C111.107 186.68 111.6 186.56 112.014 186.32C112.437 186.071 112.76 185.723 112.984 185.276C113.216 184.82 113.328 184.277 113.32 183.648ZM123.67 199.159V172.909H130.481V176.24H130.63C130.879 175.594 131.243 175.001 131.724 174.463C132.204 173.916 132.801 173.481 133.513 173.158C134.226 172.826 135.055 172.661 135.999 172.661C137.259 172.661 138.456 172.996 139.591 173.667C140.735 174.338 141.663 175.395 142.375 176.837C143.096 178.278 143.457 180.151 143.457 182.455C143.457 184.659 143.113 186.486 142.425 187.936C141.746 189.386 140.834 190.467 139.691 191.18C138.556 191.892 137.308 192.249 135.95 192.249C135.055 192.249 134.255 192.104 133.551 191.814C132.855 191.515 132.258 191.113 131.761 190.608C131.272 190.094 130.895 189.514 130.63 188.868H130.531V199.159H123.67ZM130.381 182.455C130.381 183.383 130.502 184.186 130.742 184.866C130.99 185.537 131.338 186.059 131.786 186.432C132.242 186.796 132.784 186.979 133.414 186.979C134.044 186.979 134.578 186.801 135.017 186.444C135.465 186.08 135.805 185.562 136.037 184.891C136.277 184.211 136.397 183.399 136.397 182.455C136.397 181.51 136.277 180.702 136.037 180.031C135.805 179.351 135.465 178.834 135.017 178.477C134.578 178.113 134.044 177.93 133.414 177.93C132.784 177.93 132.242 178.113 131.786 178.477C131.338 178.834 130.99 179.351 130.742 180.031C130.502 180.702 130.381 181.51 130.381 182.455ZM163.781 179.124H157.467C157.434 178.734 157.297 178.399 157.057 178.117C156.817 177.835 156.506 177.62 156.125 177.471C155.752 177.313 155.338 177.234 154.882 177.234C154.294 177.234 153.788 177.342 153.366 177.558C152.943 177.773 152.736 178.08 152.744 178.477C152.736 178.759 152.856 179.02 153.105 179.26C153.362 179.501 153.855 179.687 154.584 179.82L158.462 180.516C160.417 180.872 161.871 181.473 162.824 182.318C163.785 183.155 164.27 184.277 164.278 185.686C164.27 187.045 163.864 188.226 163.06 189.228C162.265 190.223 161.175 190.993 159.791 191.54C158.416 192.079 156.846 192.348 155.081 192.348C152.164 192.348 149.881 191.751 148.233 190.558C146.592 189.365 145.676 187.791 145.486 185.835H152.297C152.388 186.44 152.686 186.908 153.192 187.24C153.705 187.563 154.352 187.724 155.131 187.724C155.76 187.724 156.278 187.617 156.684 187.401C157.099 187.186 157.31 186.879 157.318 186.482C157.31 186.117 157.128 185.827 156.771 185.612C156.423 185.396 155.876 185.222 155.131 185.089L151.75 184.493C149.803 184.153 148.344 183.507 147.375 182.554C146.405 181.601 145.925 180.375 145.933 178.875C145.925 177.549 146.273 176.426 146.977 175.507C147.69 174.579 148.705 173.874 150.022 173.394C151.348 172.905 152.918 172.661 154.733 172.661C157.492 172.661 159.667 173.232 161.258 174.376C162.857 175.519 163.698 177.102 163.781 179.124ZM173.569 188.52L173.47 189.912C173.387 191.105 173.188 192.249 172.873 193.342C172.566 194.436 172.239 195.406 171.891 196.251C171.551 197.096 171.282 197.75 171.083 198.214H166.857C166.99 197.75 167.176 197.079 167.417 196.201C167.665 195.331 167.889 194.345 168.088 193.243C168.295 192.149 168.399 191.039 168.399 189.912V188.52H173.569ZM200.49 179.124H194.176C194.143 178.734 194.006 178.399 193.766 178.117C193.526 177.835 193.215 177.62 192.834 177.471C192.461 177.313 192.047 177.234 191.591 177.234C191.003 177.234 190.497 177.342 190.075 177.558C189.652 177.773 189.445 178.08 189.453 178.477C189.445 178.759 189.565 179.02 189.814 179.26C190.071 179.501 190.564 179.687 191.293 179.82L195.171 180.516C197.126 180.872 198.58 181.473 199.533 182.318C200.494 183.155 200.979 184.277 200.987 185.686C200.979 187.045 200.573 188.226 199.769 189.228C198.974 190.223 197.884 190.993 196.5 191.54C195.125 192.079 193.555 192.348 191.79 192.348C188.873 192.348 186.59 191.751 184.941 190.558C183.301 189.365 182.385 187.791 182.195 185.835H189.006C189.097 186.44 189.395 186.908 189.901 187.24C190.414 187.563 191.061 187.724 191.84 187.724C192.469 187.724 192.987 187.617 193.393 187.401C193.807 187.186 194.019 186.879 194.027 186.482C194.019 186.117 193.836 185.827 193.48 185.612C193.132 185.396 192.585 185.222 191.84 185.089L188.459 184.493C186.512 184.153 185.053 183.507 184.084 182.554C183.114 181.601 182.634 180.375 182.642 178.875C182.634 177.549 182.982 176.426 183.686 175.507C184.399 174.579 185.414 173.874 186.731 173.394C188.057 172.905 189.627 172.661 191.442 172.661C194.201 172.661 196.376 173.232 197.967 174.376C199.566 175.519 200.407 177.102 200.49 179.124ZM212.813 192.348C210.742 192.348 208.969 191.938 207.494 191.118C206.019 190.289 204.888 189.137 204.101 187.662C203.314 186.179 202.92 184.46 202.92 182.504C202.92 180.549 203.314 178.834 204.101 177.359C204.888 175.875 206.019 174.724 207.494 173.903C208.969 173.075 210.742 172.661 212.813 172.661C214.686 172.661 216.306 173 217.673 173.68C219.049 174.351 220.113 175.304 220.867 176.538C221.621 177.765 222.003 179.206 222.011 180.864H215.647C215.556 179.861 215.266 179.099 214.777 178.577C214.297 178.046 213.675 177.781 212.913 177.781C212.316 177.781 211.794 177.955 211.347 178.303C210.899 178.643 210.551 179.161 210.303 179.857C210.054 180.545 209.93 181.411 209.93 182.455C209.93 183.499 210.054 184.369 210.303 185.065C210.551 185.752 210.899 186.27 211.347 186.618C211.794 186.958 212.316 187.128 212.913 187.128C213.418 187.128 213.866 187.012 214.255 186.78C214.645 186.54 214.96 186.192 215.2 185.736C215.448 185.272 215.598 184.708 215.647 184.045H222.011C221.986 185.728 221.601 187.194 220.855 188.445C220.109 189.688 219.053 190.649 217.686 191.329C216.327 192.008 214.703 192.348 212.813 192.348ZM230.161 192.298C228.943 192.298 227.866 192.099 226.93 191.702C226.002 191.296 225.272 190.683 224.742 189.862C224.212 189.042 223.947 187.998 223.947 186.73C223.947 185.686 224.125 184.795 224.481 184.058C224.837 183.312 225.335 182.703 225.973 182.231C226.611 181.759 227.352 181.398 228.197 181.15C229.051 180.901 229.971 180.739 230.957 180.665C232.026 180.582 232.883 180.482 233.529 180.366C234.184 180.242 234.656 180.072 234.946 179.857C235.236 179.633 235.381 179.339 235.381 178.974V178.925C235.381 178.428 235.191 178.046 234.81 177.781C234.429 177.516 233.94 177.384 233.343 177.384C232.688 177.384 232.154 177.529 231.74 177.819C231.334 178.1 231.089 178.535 231.006 179.124H224.692C224.775 177.964 225.144 176.895 225.799 175.917C226.462 174.931 227.427 174.144 228.695 173.555C229.962 172.959 231.545 172.661 233.442 172.661C234.81 172.661 236.036 172.822 237.121 173.145C238.207 173.46 239.131 173.903 239.893 174.475C240.655 175.039 241.235 175.701 241.633 176.464C242.039 177.218 242.242 178.038 242.242 178.925V192H235.829V189.315H235.68C235.299 190.028 234.835 190.604 234.288 191.043C233.749 191.482 233.132 191.801 232.436 192C231.748 192.199 230.99 192.298 230.161 192.298ZM232.398 187.973C232.92 187.973 233.409 187.865 233.865 187.65C234.329 187.434 234.706 187.124 234.996 186.718C235.286 186.312 235.431 185.819 235.431 185.239V183.648C235.249 183.722 235.054 183.793 234.847 183.859C234.648 183.925 234.433 183.987 234.201 184.045C233.977 184.103 233.737 184.157 233.48 184.207C233.231 184.257 232.97 184.302 232.697 184.344C232.166 184.427 231.731 184.563 231.392 184.754C231.06 184.936 230.812 185.164 230.646 185.438C230.489 185.703 230.41 186.001 230.41 186.332C230.41 186.863 230.596 187.269 230.969 187.55C231.342 187.832 231.818 187.973 232.398 187.973ZM252.381 166.545V192H245.52V166.545H252.381ZM265.025 192.348C262.986 192.348 261.23 191.959 259.755 191.18C258.288 190.393 257.157 189.266 256.362 187.799C255.574 186.324 255.181 184.559 255.181 182.504C255.181 180.532 255.578 178.809 256.374 177.334C257.169 175.859 258.292 174.711 259.742 173.891C261.192 173.071 262.903 172.661 264.875 172.661C266.317 172.661 267.622 172.884 268.79 173.332C269.959 173.779 270.957 174.43 271.786 175.283C272.614 176.128 273.252 177.156 273.7 178.365C274.147 179.575 274.371 180.938 274.371 182.455V184.045H257.319V180.267H268.057C268.049 179.72 267.908 179.24 267.635 178.825C267.369 178.403 267.009 178.075 266.553 177.843C266.106 177.603 265.596 177.483 265.025 177.483C264.469 177.483 263.96 177.603 263.496 177.843C263.032 178.075 262.659 178.399 262.377 178.813C262.104 179.227 261.959 179.712 261.942 180.267V184.344C261.942 184.957 262.071 185.504 262.327 185.984C262.584 186.465 262.953 186.842 263.434 187.115C263.914 187.389 264.494 187.526 265.174 187.526C265.646 187.526 266.077 187.459 266.466 187.327C266.864 187.194 267.204 187.004 267.485 186.755C267.767 186.498 267.974 186.192 268.107 185.835H274.371C274.156 187.161 273.646 188.313 272.842 189.29C272.039 190.26 270.974 191.014 269.648 191.553C268.331 192.083 266.789 192.348 265.025 192.348ZM289.699 179.273V184.443H277.767V179.273H289.699ZM306.161 183.648V172.909H313.022V192H306.509V188.371H306.31C305.896 189.589 305.171 190.542 304.135 191.229C303.1 191.909 301.869 192.249 300.444 192.249C299.11 192.249 297.942 191.942 296.939 191.329C295.945 190.716 295.17 189.871 294.615 188.793C294.068 187.716 293.79 186.482 293.782 185.089V172.909H300.643V183.648C300.651 184.592 300.891 185.334 301.364 185.873C301.844 186.411 302.515 186.68 303.377 186.68C303.949 186.68 304.442 186.56 304.856 186.32C305.279 186.071 305.602 185.723 305.826 185.276C306.058 184.82 306.17 184.277 306.161 183.648ZM316.512 199.159V172.909H323.323V176.24H323.472C323.72 175.594 324.085 175.001 324.566 174.463C325.046 173.916 325.643 173.481 326.355 173.158C327.068 172.826 327.896 172.661 328.841 172.661C330.101 172.661 331.298 172.996 332.433 173.667C333.577 174.338 334.505 175.395 335.217 176.837C335.938 178.278 336.298 180.151 336.298 182.455C336.298 184.659 335.955 186.486 335.267 187.936C334.587 189.386 333.676 190.467 332.532 191.18C331.397 191.892 330.15 192.249 328.791 192.249C327.896 192.249 327.097 192.104 326.393 191.814C325.697 191.515 325.1 191.113 324.603 190.608C324.114 190.094 323.737 189.514 323.472 188.868H323.372V199.159H316.512ZM323.223 182.455C323.223 183.383 323.343 184.186 323.584 184.866C323.832 185.537 324.18 186.059 324.628 186.432C325.083 186.796 325.626 186.979 326.256 186.979C326.886 186.979 327.42 186.801 327.859 186.444C328.307 186.08 328.646 185.562 328.878 184.891C329.119 184.211 329.239 183.399 329.239 182.455C329.239 181.51 329.119 180.702 328.878 180.031C328.646 179.351 328.307 178.834 327.859 178.477C327.42 178.113 326.886 177.93 326.256 177.93C325.626 177.93 325.083 178.113 324.628 178.477C324.18 178.834 323.832 179.351 323.584 180.031C323.343 180.702 323.223 181.51 323.223 182.455ZM356.623 179.124H350.309C350.276 178.734 350.139 178.399 349.899 178.117C349.659 177.835 349.348 177.62 348.967 177.471C348.594 177.313 348.18 177.234 347.724 177.234C347.136 177.234 346.63 177.342 346.207 177.558C345.785 177.773 345.578 178.08 345.586 178.477C345.578 178.759 345.698 179.02 345.946 179.26C346.203 179.501 346.696 179.687 347.426 179.82L351.303 180.516C353.259 180.872 354.713 181.473 355.666 182.318C356.627 183.155 357.112 184.277 357.12 185.686C357.112 187.045 356.706 188.226 355.902 189.228C355.107 190.223 354.017 190.993 352.633 191.54C351.258 192.079 349.688 192.348 347.923 192.348C345.006 192.348 342.723 191.751 341.074 190.558C339.434 189.365 338.518 187.791 338.328 185.835H345.139C345.23 186.44 345.528 186.908 346.033 187.24C346.547 187.563 347.194 187.724 347.972 187.724C348.602 187.724 349.12 187.617 349.526 187.401C349.94 187.186 350.152 186.879 350.16 186.482C350.152 186.117 349.969 185.827 349.613 185.612C349.265 185.396 348.718 185.222 347.972 185.089L344.592 184.493C342.645 184.153 341.186 183.507 340.217 182.554C339.247 181.601 338.767 180.375 338.775 178.875C338.767 177.549 339.115 176.426 339.819 175.507C340.532 174.579 341.547 173.874 342.864 173.394C344.19 172.905 345.76 172.661 347.575 172.661C350.334 172.661 352.509 173.232 354.1 174.376C355.699 175.519 356.54 177.102 356.623 179.124ZM374.925 192.398C373.102 192.398 371.532 192.075 370.214 191.428C368.897 190.782 367.886 189.916 367.181 188.831C366.477 187.745 366.125 186.548 366.125 185.239C366.125 184.286 366.307 183.445 366.672 182.716C367.036 181.978 367.546 181.303 368.201 180.69C368.855 180.076 369.622 179.472 370.5 178.875L376.267 175.295C376.847 174.931 377.241 174.554 377.448 174.164C377.655 173.767 377.758 173.415 377.758 173.108C377.758 172.702 377.609 172.342 377.311 172.027C377.013 171.712 376.549 171.558 375.919 171.567C375.53 171.567 375.194 171.641 374.912 171.79C374.63 171.931 374.411 172.13 374.253 172.387C374.104 172.644 374.03 172.951 374.03 173.307C374.03 173.796 374.171 174.297 374.452 174.811C374.734 175.316 375.119 175.863 375.608 176.451C376.097 177.04 376.648 177.698 377.261 178.428L389.591 192H382.73L372.389 181.062C371.884 180.524 371.324 179.865 370.711 179.086C370.098 178.299 369.568 177.413 369.12 176.426C368.681 175.44 368.462 174.367 368.462 173.207C368.462 171.915 368.772 170.734 369.394 169.665C370.015 168.596 370.885 167.743 372.004 167.105C373.122 166.467 374.427 166.148 375.919 166.148C377.344 166.148 378.57 166.442 379.598 167.03C380.634 167.618 381.429 168.402 381.984 169.379C382.548 170.357 382.829 171.434 382.829 172.611C382.829 173.796 382.535 174.902 381.947 175.929C381.367 176.957 380.534 177.856 379.449 178.626L374.179 182.355C373.773 182.637 373.421 182.96 373.122 183.325C372.832 183.689 372.687 184.161 372.687 184.741C372.687 185.222 372.799 185.632 373.023 185.972C373.247 186.312 373.562 186.573 373.968 186.755C374.382 186.937 374.867 187.028 375.422 187.028C376.267 187.028 377.112 186.825 377.957 186.419C378.811 186.005 379.59 185.429 380.294 184.692C380.998 183.946 381.562 183.068 381.984 182.057C382.415 181.038 382.631 179.927 382.631 178.726H388.05C388.05 180.201 387.896 181.622 387.59 182.989C387.283 184.356 386.79 185.607 386.111 186.743C385.431 187.878 384.536 188.835 383.426 189.614C383.078 189.788 382.738 189.953 382.407 190.111C382.075 190.268 381.736 190.434 381.388 190.608C380.369 191.263 379.304 191.727 378.193 192C377.083 192.265 375.994 192.398 374.925 192.398ZM61.963 234.348C59.9246 234.348 58.168 233.959 56.6931 233.18C55.2265 232.393 54.0954 231.266 53.3 229.799C52.5128 228.324 52.1192 226.559 52.1192 224.504C52.1192 222.532 52.517 220.809 53.3124 219.334C54.1079 217.859 55.2306 216.711 56.6807 215.891C58.1307 215.071 59.8418 214.661 61.8138 214.661C63.2556 214.661 64.5606 214.884 65.729 215.332C66.8973 215.779 67.8957 216.43 68.7243 217.283C69.5529 218.128 70.191 219.156 70.6384 220.365C71.0858 221.575 71.3096 222.938 71.3096 224.455V226.045H54.257V222.267H64.9957C64.9874 221.72 64.8465 221.24 64.5731 220.825C64.3079 220.403 63.9475 220.075 63.4917 219.843C63.0443 219.603 62.5347 219.483 61.963 219.483C61.4078 219.483 60.8982 219.603 60.4342 219.843C59.9702 220.075 59.5973 220.399 59.3156 220.813C59.0422 221.227 58.8972 221.712 58.8806 222.267V226.344C58.8806 226.957 59.009 227.504 59.2659 227.984C59.5228 228.465 59.8915 228.842 60.3721 229.115C60.8527 229.389 61.4327 229.526 62.1121 229.526C62.5844 229.526 63.0153 229.459 63.4047 229.327C63.8025 229.194 64.1422 229.004 64.4239 228.755C64.7056 228.498 64.9128 228.192 65.0454 227.835H71.3096C71.0941 229.161 70.5845 230.313 69.7808 231.29C68.9771 232.26 67.9123 233.014 66.5866 233.553C65.2691 234.083 63.7279 234.348 61.963 234.348ZM80.97 223.261V234H74.1092V214.909H80.622V218.538H80.8208C81.2351 217.329 81.9643 216.38 83.0083 215.692C84.0607 215.004 85.287 214.661 86.6873 214.661C88.0379 214.661 89.2104 214.971 90.2047 215.593C91.2073 216.206 91.9821 217.051 92.5289 218.128C93.0841 219.205 93.3575 220.436 93.3493 221.82V234H86.4885V223.261C86.4967 222.317 86.2565 221.575 85.7676 221.037C85.287 220.498 84.6158 220.229 83.7541 220.229C83.1906 220.229 82.6976 220.353 82.275 220.602C81.8607 220.842 81.5417 221.19 81.318 221.646C81.0943 222.093 80.9783 222.632 80.97 223.261ZM108.121 214.909V219.881H95.543V214.909H108.121ZM97.979 210.335H104.84V227.86C104.84 228.125 104.885 228.349 104.977 228.531C105.068 228.705 105.209 228.838 105.399 228.929C105.59 229.012 105.834 229.053 106.132 229.053C106.34 229.053 106.58 229.028 106.853 228.979C107.135 228.929 107.342 228.888 107.475 228.854L108.469 233.677C108.163 233.768 107.723 233.88 107.152 234.012C106.588 234.145 105.917 234.232 105.138 234.273C103.564 234.356 102.242 234.195 101.173 233.789C100.104 233.374 99.3007 232.724 98.7621 231.837C98.2235 230.951 97.9625 229.84 97.979 228.506V210.335ZM119.863 234.348C117.825 234.348 116.068 233.959 114.593 233.18C113.127 232.393 111.996 231.266 111.2 229.799C110.413 228.324 110.02 226.559 110.02 224.504C110.02 222.532 110.417 220.809 111.213 219.334C112.008 217.859 113.131 216.711 114.581 215.891C116.031 215.071 117.742 214.661 119.714 214.661C121.156 214.661 122.461 214.884 123.629 215.332C124.798 215.779 125.796 216.43 126.625 217.283C127.453 218.128 128.091 219.156 128.539 220.365C128.986 221.575 129.21 222.938 129.21 224.455V226.045H112.157V222.267H122.896C122.888 221.72 122.747 221.24 122.473 220.825C122.208 220.403 121.848 220.075 121.392 219.843C120.945 219.603 120.435 219.483 119.863 219.483C119.308 219.483 118.799 219.603 118.335 219.843C117.871 220.075 117.498 220.399 117.216 220.813C116.943 221.227 116.798 221.712 116.781 222.267V226.344C116.781 226.957 116.909 227.504 117.166 227.984C117.423 228.465 117.792 228.842 118.272 229.115C118.753 229.389 119.333 229.526 120.013 229.526C120.485 229.526 120.916 229.459 121.305 229.327C121.703 229.194 122.043 229.004 122.324 228.755C122.606 228.498 122.813 228.192 122.946 227.835H129.21C128.995 229.161 128.485 230.313 127.681 231.29C126.877 232.26 125.813 233.014 124.487 233.553C123.169 234.083 121.628 234.348 119.863 234.348ZM132.01 234V214.909H138.672V218.538H138.87C139.218 217.196 139.769 216.214 140.523 215.593C141.286 214.971 142.176 214.661 143.196 214.661C143.494 214.661 143.788 214.685 144.078 214.735C144.376 214.777 144.662 214.839 144.936 214.922V220.776C144.596 220.66 144.178 220.573 143.68 220.515C143.183 220.457 142.757 220.428 142.4 220.428C141.729 220.428 141.124 220.581 140.586 220.887C140.055 221.186 139.637 221.608 139.33 222.155C139.024 222.694 138.87 223.328 138.87 224.057V234H132.01ZM147.185 241.159V214.909H153.996V218.24H154.146C154.394 217.594 154.759 217.001 155.239 216.463C155.72 215.916 156.317 215.481 157.029 215.158C157.742 214.826 158.57 214.661 159.515 214.661C160.774 214.661 161.972 214.996 163.107 215.667C164.25 216.338 165.178 217.395 165.891 218.837C166.612 220.278 166.972 222.151 166.972 224.455C166.972 226.659 166.628 228.486 165.941 229.936C165.261 231.386 164.35 232.467 163.206 233.18C162.071 233.892 160.824 234.249 159.465 234.249C158.57 234.249 157.771 234.104 157.066 233.814C156.37 233.515 155.774 233.113 155.277 232.608C154.788 232.094 154.411 231.514 154.146 230.868H154.046V241.159H147.185ZM153.897 224.455C153.897 225.383 154.017 226.186 154.257 226.866C154.506 227.537 154.854 228.059 155.301 228.432C155.757 228.796 156.3 228.979 156.93 228.979C157.559 228.979 158.094 228.801 158.533 228.444C158.98 228.08 159.32 227.562 159.552 226.891C159.792 226.211 159.913 225.399 159.913 224.455C159.913 223.51 159.792 222.702 159.552 222.031C159.32 221.351 158.98 220.834 158.533 220.477C158.094 220.113 157.559 219.93 156.93 219.93C156.3 219.93 155.757 220.113 155.301 220.477C154.854 220.834 154.506 221.351 154.257 222.031C154.017 222.702 153.897 223.51 153.897 224.455ZM169.847 234V214.909H176.508V218.538H176.707C177.055 217.196 177.606 216.214 178.36 215.593C179.123 214.971 180.013 214.661 181.033 214.661C181.331 214.661 181.625 214.685 181.915 214.735C182.213 214.777 182.499 214.839 182.773 214.922V220.776C182.433 220.66 182.014 220.573 181.517 220.515C181.02 220.457 180.593 220.428 180.237 220.428C179.566 220.428 178.961 220.581 178.422 220.887C177.892 221.186 177.474 221.608 177.167 222.155C176.861 222.694 176.707 223.328 176.707 224.057V234H169.847ZM185.022 234V214.909H191.883V234H185.022ZM188.453 212.92C187.525 212.92 186.729 212.614 186.066 212.001C185.403 211.388 185.072 210.65 185.072 209.788C185.072 208.927 185.403 208.189 186.066 207.576C186.729 206.963 187.525 206.656 188.453 206.656C189.389 206.656 190.184 206.963 190.839 207.576C191.502 208.189 191.833 208.927 191.833 209.788C191.833 210.65 191.502 211.388 190.839 212.001C190.184 212.614 189.389 212.92 188.453 212.92ZM212.829 221.124H206.515C206.482 220.734 206.345 220.399 206.105 220.117C205.865 219.835 205.554 219.62 205.173 219.471C204.8 219.313 204.386 219.234 203.93 219.234C203.342 219.234 202.836 219.342 202.414 219.558C201.991 219.773 201.784 220.08 201.792 220.477C201.784 220.759 201.904 221.02 202.153 221.26C202.409 221.501 202.902 221.687 203.632 221.82L207.509 222.516C209.465 222.872 210.919 223.473 211.872 224.318C212.833 225.155 213.318 226.277 213.326 227.686C213.318 229.045 212.912 230.226 212.108 231.228C211.313 232.223 210.223 232.993 208.839 233.54C207.464 234.079 205.894 234.348 204.129 234.348C201.212 234.348 198.929 233.751 197.28 232.558C195.64 231.365 194.724 229.791 194.534 227.835H201.345C201.436 228.44 201.734 228.908 202.24 229.24C202.753 229.563 203.4 229.724 204.178 229.724C204.808 229.724 205.326 229.617 205.732 229.401C206.146 229.186 206.358 228.879 206.366 228.482C206.358 228.117 206.175 227.827 205.819 227.612C205.471 227.396 204.924 227.222 204.178 227.089L200.798 226.493C198.851 226.153 197.392 225.507 196.423 224.554C195.453 223.601 194.973 222.375 194.981 220.875C194.973 219.549 195.321 218.426 196.025 217.507C196.738 216.579 197.753 215.874 199.07 215.394C200.396 214.905 201.966 214.661 203.781 214.661C206.54 214.661 208.715 215.232 210.306 216.376C211.905 217.519 212.746 219.102 212.829 221.124ZM225.103 234.348C223.064 234.348 221.308 233.959 219.833 233.18C218.366 232.393 217.235 231.266 216.44 229.799C215.652 228.324 215.259 226.559 215.259 224.504C215.259 222.532 215.657 220.809 216.452 219.334C217.248 217.859 218.37 216.711 219.82 215.891C221.27 215.071 222.981 214.661 224.953 214.661C226.395 214.661 227.7 214.884 228.869 215.332C230.037 215.779 231.035 216.43 231.864 217.283C232.693 218.128 233.331 219.156 233.778 220.365C234.225 221.575 234.449 222.938 234.449 224.455V226.045H217.397V222.267H228.135C228.127 221.72 227.986 221.24 227.713 220.825C227.448 220.403 227.087 220.075 226.631 219.843C226.184 219.603 225.674 219.483 225.103 219.483C224.547 219.483 224.038 219.603 223.574 219.843C223.11 220.075 222.737 220.399 222.455 220.813C222.182 221.227 222.037 221.712 222.02 222.267V226.344C222.02 226.957 222.149 227.504 222.406 227.984C222.662 228.465 223.031 228.842 223.512 229.115C223.992 229.389 224.572 229.526 225.252 229.526C225.724 229.526 226.155 229.459 226.544 229.327C226.942 229.194 227.282 229.004 227.564 228.755C227.845 228.498 228.052 228.192 228.185 227.835H234.449C234.234 229.161 233.724 230.313 232.92 231.29C232.117 232.26 231.052 233.014 229.726 233.553C228.409 234.083 226.868 234.348 225.103 234.348ZM255.606 214.909V219.881H243.028V214.909H255.606ZM245.464 210.335H252.325V227.86C252.325 228.125 252.371 228.349 252.462 228.531C252.553 228.705 252.694 228.838 252.884 228.929C253.075 229.012 253.32 229.053 253.618 229.053C253.825 229.053 254.065 229.028 254.339 228.979C254.62 228.929 254.828 228.888 254.96 228.854L255.954 233.677C255.648 233.768 255.209 233.88 254.637 234.012C254.074 234.145 253.402 234.232 252.623 234.273C251.049 234.356 249.728 234.195 248.659 233.789C247.59 233.374 246.786 232.724 246.247 231.837C245.709 230.951 245.448 229.84 245.464 228.506V210.335ZM267.349 234.348C265.31 234.348 263.554 233.959 262.079 233.18C260.612 232.393 259.481 231.266 258.686 229.799C257.899 228.324 257.505 226.559 257.505 224.504C257.505 222.532 257.903 220.809 258.698 219.334C259.494 217.859 260.616 216.711 262.066 215.891C263.516 215.071 265.228 214.661 267.2 214.661C268.641 214.661 269.946 214.884 271.115 215.332C272.283 215.779 273.281 216.43 274.11 217.283C274.939 218.128 275.577 219.156 276.024 220.365C276.472 221.575 276.695 222.938 276.695 224.455V226.045H259.643V222.267H270.381C270.373 221.72 270.232 221.24 269.959 220.825C269.694 220.403 269.333 220.075 268.877 219.843C268.43 219.603 267.92 219.483 267.349 219.483C266.794 219.483 266.284 219.603 265.82 219.843C265.356 220.075 264.983 220.399 264.701 220.813C264.428 221.227 264.283 221.712 264.266 222.267V226.344C264.266 226.957 264.395 227.504 264.652 227.984C264.908 228.465 265.277 228.842 265.758 229.115C266.238 229.389 266.818 229.526 267.498 229.526C267.97 229.526 268.401 229.459 268.79 229.327C269.188 229.194 269.528 229.004 269.81 228.755C270.091 228.498 270.299 228.192 270.431 227.835H276.695C276.48 229.161 275.97 230.313 275.167 231.29C274.363 232.26 273.298 233.014 271.972 233.553C270.655 234.083 269.114 234.348 267.349 234.348ZM284.815 234.298C283.597 234.298 282.519 234.099 281.583 233.702C280.655 233.296 279.926 232.683 279.396 231.862C278.865 231.042 278.6 229.998 278.6 228.73C278.6 227.686 278.778 226.795 279.134 226.058C279.491 225.312 279.988 224.703 280.626 224.231C281.264 223.759 282.006 223.398 282.851 223.15C283.704 222.901 284.624 222.739 285.61 222.665C286.679 222.582 287.536 222.482 288.183 222.366C288.837 222.242 289.31 222.072 289.6 221.857C289.89 221.633 290.035 221.339 290.035 220.974V220.925C290.035 220.428 289.844 220.046 289.463 219.781C289.082 219.516 288.593 219.384 287.996 219.384C287.342 219.384 286.807 219.529 286.393 219.819C285.987 220.1 285.743 220.535 285.66 221.124H279.346C279.429 219.964 279.797 218.895 280.452 217.917C281.115 216.931 282.08 216.144 283.348 215.555C284.616 214.959 286.198 214.661 288.096 214.661C289.463 214.661 290.689 214.822 291.775 215.145C292.86 215.46 293.784 215.903 294.546 216.475C295.309 217.039 295.889 217.701 296.286 218.464C296.693 219.218 296.896 220.038 296.896 220.925V234H290.482V231.315H290.333C289.952 232.028 289.488 232.604 288.941 233.043C288.402 233.482 287.785 233.801 287.089 234C286.401 234.199 285.643 234.298 284.815 234.298ZM287.052 229.973C287.574 229.973 288.063 229.865 288.518 229.65C288.982 229.434 289.359 229.124 289.649 228.718C289.939 228.312 290.084 227.819 290.084 227.239V225.648C289.902 225.722 289.707 225.793 289.5 225.859C289.301 225.925 289.086 225.987 288.854 226.045C288.63 226.103 288.39 226.157 288.133 226.207C287.885 226.257 287.623 226.302 287.35 226.344C286.82 226.427 286.385 226.563 286.045 226.754C285.714 226.936 285.465 227.164 285.299 227.438C285.142 227.703 285.063 228.001 285.063 228.332C285.063 228.863 285.25 229.269 285.622 229.55C285.995 229.832 286.472 229.973 287.052 229.973ZM300.174 234V214.909H306.686V218.538H306.885C307.283 217.345 307.962 216.401 308.924 215.705C309.885 215.009 311.028 214.661 312.354 214.661C313.696 214.661 314.852 215.017 315.822 215.729C316.791 216.434 317.375 217.37 317.574 218.538H317.773C318.096 217.37 318.784 216.434 319.836 215.729C320.889 215.017 322.123 214.661 323.54 214.661C325.371 214.661 326.855 215.249 327.99 216.425C329.133 217.602 329.705 219.168 329.705 221.124V234H322.844V222.864C322.844 222.027 322.633 221.372 322.21 220.9C321.788 220.419 321.22 220.179 320.507 220.179C319.803 220.179 319.244 220.419 318.83 220.9C318.424 221.372 318.221 222.027 318.221 222.864V234H311.658V222.864C311.658 222.027 311.447 221.372 311.024 220.9C310.602 220.419 310.034 220.179 309.321 220.179C308.849 220.179 308.443 220.287 308.103 220.502C307.764 220.718 307.498 221.028 307.308 221.434C307.126 221.832 307.034 222.308 307.034 222.864V234H300.174ZM350.539 221.124H344.225C344.192 220.734 344.055 220.399 343.815 220.117C343.575 219.835 343.264 219.62 342.883 219.471C342.51 219.313 342.096 219.234 341.64 219.234C341.052 219.234 340.546 219.342 340.123 219.558C339.701 219.773 339.494 220.08 339.502 220.477C339.494 220.759 339.614 221.02 339.862 221.26C340.119 221.501 340.612 221.687 341.342 221.82L345.219 222.516C347.175 222.872 348.629 223.473 349.582 224.318C350.543 225.155 351.028 226.277 351.036 227.686C351.028 229.045 350.622 230.226 349.818 231.228C349.023 232.223 347.933 232.993 346.549 233.54C345.174 234.079 343.604 234.348 341.839 234.348C338.922 234.348 336.639 233.751 334.99 232.558C333.35 231.365 332.434 229.791 332.244 227.835H339.055C339.146 228.44 339.444 228.908 339.949 229.24C340.463 229.563 341.11 229.724 341.888 229.724C342.518 229.724 343.036 229.617 343.442 229.401C343.856 229.186 344.068 228.879 344.076 228.482C344.068 228.117 343.885 227.827 343.529 227.612C343.181 227.396 342.634 227.222 341.888 227.089L338.508 226.493C336.561 226.153 335.102 225.507 334.133 224.554C333.163 223.601 332.683 222.375 332.691 220.875C332.683 219.549 333.031 218.426 333.735 217.507C334.448 216.579 335.463 215.874 336.78 215.394C338.106 214.905 339.676 214.661 341.491 214.661C344.25 214.661 346.425 215.232 348.016 216.376C349.615 217.519 350.456 219.102 350.539 221.124Z" fill="white"/>
<path d="M198.502 58.2447L205.502 65.243L198.502 72.243L196.027 69.7667L198.803 66.9913H191.5C191.194 66.9874 190.895 66.9026 190.632 66.7456C190.37 66.5885 190.153 66.3647 190.005 66.097L182.981 53.861L186.021 52.1233L192.517 63.4913H198.801L196.027 60.7175L198.502 58.2447ZM223 40.75C222.72 40.75 222.449 40.7902 222.179 40.8322L214.037 25.9048C213.886 25.6284 213.664 25.3978 213.394 25.237C213.123 25.0763 212.815 24.9914 212.5 24.9912H205.204L207.978 22.2175L205.5 19.743L198.503 26.743L205.5 33.7395L207.976 31.265L205.202 28.4913H211.461L219.106 42.507C218.237 43.4631 217.754 44.7079 217.75 46C217.75 47.344 218.27 48.5585 219.103 49.486L212.5 61.5872L193.037 25.9048C192.886 25.6291 192.664 25.3991 192.394 25.2388C192.123 25.0786 191.815 24.994 191.501 24.994C191.187 24.994 190.878 25.0786 190.608 25.2388C190.338 25.3991 190.116 25.6291 189.965 25.9048L183.228 38.2545L186.259 40.0045L191.5 30.397L210.965 66.0795C211.116 66.3552 211.338 66.5852 211.608 66.7454C211.878 66.9057 212.187 66.9902 212.501 66.9902C212.815 66.9902 213.123 66.9057 213.394 66.7454C213.664 66.5852 213.886 66.3552 214.037 66.0795L222.172 51.166C222.444 51.2097 222.715 51.25 223 51.25C224.392 51.25 225.728 50.6969 226.712 49.7123C227.697 48.7277 228.25 47.3924 228.25 46C228.25 44.6076 227.697 43.2723 226.712 42.2877C225.728 41.3031 224.392 40.75 223 40.75ZM186.25 45.993C186.25 43.0968 183.896 40.743 181 40.743C178.104 40.743 175.75 43.0968 175.75 45.993C175.75 48.8892 178.105 51.243 181 51.243C183.895 51.243 186.25 48.8875 186.25 45.993ZM182.75 45.993C182.75 46.4571 182.565 46.9021 182.236 47.2299C181.908 47.5578 181.462 47.7417 180.998 47.7413C180.534 47.7408 180.089 47.556 179.761 47.2274C179.433 46.8989 179.25 46.4536 179.25 45.9895C179.25 45.7597 179.296 45.5322 179.384 45.3199C179.472 45.1077 179.601 44.9149 179.764 44.7526C179.926 44.5902 180.12 44.4615 180.332 44.3738C180.544 44.2861 180.772 44.241 181.002 44.2412C181.232 44.2415 181.459 44.287 181.671 44.3751C181.884 44.4633 182.076 44.5924 182.239 44.755C182.401 44.9177 182.53 45.1108 182.617 45.3232C182.705 45.5356 182.75 45.7632 182.75 45.993Z" fill="white"/>
</g>
<defs>
<clipPath id="clip0_1_2">
<rect width="404" height="299" fill="white"/>
</clipPath>
</defs>
</svg>
