<svg width="100" height="100" viewBox="0 0 100 100" fill="none" xmlns="http://www.w3.org/2000/svg">
<rect width="100" height="100" fill="#2B75FF"/>
<path d="M47.2574 36.3286C46.9727 35.5197 46.444 34.8191 45.7443 34.3234C45.0446 33.8277 44.2082 33.5614 43.3507 33.5612H40.14C39.2292 33.5637 38.3513 33.9022 37.6745 34.5118C36.9977 35.1213 36.5696 35.9591 36.4721 36.8648C36.3746 37.7704 36.6146 38.6801 37.1462 39.4197C37.6777 40.1594 38.4634 40.677 39.3529 40.8733L44.2331 41.9422C45.2317 42.1601 46.1145 42.7395 46.7118 43.569C47.309 44.3984 47.5785 45.4194 47.4685 46.4356C47.3585 47.4517 46.8768 48.3914 46.1159 49.0738C45.355 49.7563 44.3687 50.1334 43.3466 50.1326H40.5833C39.7268 50.133 38.8912 49.8678 38.1916 49.3737C37.4919 48.8796 36.9627 48.1808 36.6766 47.3734M41.9711 33.5612V29.4183M41.9711 54.2754V50.1326M49.8716 76.9244V55.1744C49.8716 53.801 50.4172 52.4838 51.3883 51.5126C52.3595 50.5415 53.6767 49.9959 55.0501 49.9959C56.4236 49.9959 57.7408 50.5415 58.7119 51.5126C59.6831 52.4838 60.2287 53.801 60.2287 55.1744V66.5673H68.5144C70.7119 66.5673 72.8194 67.4403 74.3733 68.9941C75.9272 70.548 76.8001 72.6555 76.8001 74.853V76.9244" stroke="white" stroke-linecap="round" stroke-linejoin="round"/>
<path d="M41.9753 60.6223C38.153 60.6218 34.422 59.4544 31.281 57.2763C28.14 55.0981 25.7389 52.013 24.3985 48.4334C23.0582 44.8538 22.8426 40.9504 23.7805 37.245C24.7184 33.5395 26.7651 30.2087 29.647 27.6978C32.529 25.187 36.1087 23.6158 39.9077 23.1942C43.7067 22.7727 47.5438 23.521 50.9061 25.339C54.2683 27.157 56.9955 29.9581 58.7229 33.3678C60.4503 36.7775 61.0956 40.6332 60.5726 44.4196" stroke="white" stroke-linecap="round"/>
</svg>
