<svg width="100" height="100" viewBox="0 0 100 100" fill="none" xmlns="http://www.w3.org/2000/svg">
<rect width="100" height="100" fill="#2B75FF"/>
<path d="M50 50V69.3333M50 50V52.4167H57.25C61.0956 52.4167 64.7838 50.889 67.5031 48.1697C70.2223 45.4504 71.75 41.7623 71.75 37.9167V35.5H64.5C60.6544 35.5 56.9662 37.0277 54.247 39.7469C51.5277 42.4662 50 46.1544 50 50ZM50 45.1667V47.5833H42.75C38.9044 47.5833 35.2162 46.0556 32.497 43.3364C29.7777 40.6171 28.25 36.929 28.25 33.0833V30.6667H35.5C39.3456 30.6667 43.0338 32.1943 45.753 34.9136C48.4723 37.6329 50 41.321 50 45.1667Z" stroke="white" stroke-width="1.5" stroke-linecap="round" stroke-linejoin="round"/>
</svg>
