<svg width="100" height="100" viewBox="0 0 100 100" fill="none" xmlns="http://www.w3.org/2000/svg">
<g clip-path="url(#clip0_50_17)">
<rect width="100" height="100" fill="#6944FF"/>
<path d="M37.9458 22.7C40.4374 15.4083 50.5124 15.1875 53.4666 22.0375L53.7166 22.7042L57.0791 32.5375C57.8497 34.7926 59.095 36.8563 60.7309 38.5893C62.3668 40.3222 64.3554 41.6842 66.5624 42.5833L67.4666 42.9208L77.2999 46.2792C84.5916 48.7708 84.8124 58.8458 77.9666 61.8L77.2999 62.05L67.4666 65.4125C65.2107 66.1826 63.1462 67.4276 61.4125 69.0636C59.6788 70.6995 58.3162 72.6884 57.4166 74.8958L57.0791 75.7958L53.7208 85.6333C51.2291 92.925 41.1541 93.1458 38.2041 86.3L37.9458 85.6333L34.5874 75.8C33.8174 73.5441 32.5723 71.4796 30.9364 69.7459C29.3004 68.0122 27.3116 66.6496 25.1041 65.75L24.2041 65.4125L14.3708 62.0542C7.07495 59.5625 6.85411 49.4875 13.7041 46.5375L14.3708 46.2792L24.2041 42.9208C26.4593 42.1502 28.5229 40.905 30.2559 39.2691C31.9888 37.6331 33.3508 35.6446 34.2499 33.4375L34.5874 32.5375L37.9458 22.7ZM45.8333 25.3917L42.4749 35.225C41.3016 38.6638 39.3927 41.8054 36.8813 44.4312C34.37 47.057 31.3164 49.1039 27.9333 50.4292L26.8916 50.8083L17.0583 54.1667L26.8916 57.525C30.3304 58.6984 33.472 60.6072 36.0978 63.1186C38.7236 65.63 40.7705 68.6836 42.0958 72.0667L42.4749 73.1083L45.8333 82.9417L49.1916 73.1083C50.365 69.6696 52.2738 66.5279 54.7852 63.9021C57.2966 61.2763 60.3502 59.2295 63.7333 57.9042L64.7749 57.5292L74.6083 54.1667L64.7749 50.8083C61.3362 49.635 58.1945 47.7261 55.5687 45.2147C52.9429 42.7034 50.8961 39.6498 49.5708 36.2667L49.1958 35.225L45.8333 25.3917ZM79.1666 8.33334C79.9461 8.33334 80.71 8.552 81.3714 8.96447C82.0328 9.37695 82.5653 9.96669 82.9083 10.6667L83.1083 11.1542L84.5666 15.4292L88.8458 16.8875C89.627 17.1529 90.3118 17.6442 90.8134 18.2992C91.315 18.9542 91.6109 19.7434 91.6636 20.5668C91.7163 21.3901 91.5233 22.2106 91.1092 22.9241C90.6951 23.6377 90.0784 24.2123 89.3374 24.575L88.8458 24.775L84.5708 26.2333L83.1124 30.5125C82.8466 31.2935 82.3549 31.9779 81.6996 32.4791C81.0444 32.9804 80.2551 33.2758 79.4318 33.328C78.6085 33.3802 77.7882 33.1869 77.0749 32.7724C76.3616 32.358 75.7873 31.7411 75.4249 31L75.2249 30.5125L73.7666 26.2375L69.4874 24.7792C68.7063 24.5138 68.0215 24.0224 67.5198 23.3674C67.0182 22.7124 66.7223 21.9233 66.6696 21.0999C66.617 20.2766 66.8099 19.4561 67.224 18.7426C67.6382 18.029 68.2548 17.4544 68.9958 17.0917L69.4874 16.8917L73.7624 15.4333L75.2208 11.1542C75.5017 10.331 76.0333 9.6163 76.7409 9.11042C77.4486 8.60455 78.2968 8.33282 79.1666 8.33334Z" fill="white"/>
</g>
<defs>
<clipPath id="clip0_50_17">
<rect width="100" height="100" fill="white"/>
</clipPath>
</defs>
</svg>
