<svg width="100" height="100" viewBox="0 0 100 100" fill="none" xmlns="http://www.w3.org/2000/svg">
<g clip-path="url(#clip0_50_16)">
<rect width="100" height="100" fill="#6944FF"/>
<path d="M37.9458 22.7C40.4374 15.4083 50.5124 15.1875 53.4666 22.0375L53.7166 22.7041L57.0791 32.5375C57.8497 34.7926 59.095 36.8563 60.7309 38.5892C62.3668 40.3222 64.3554 41.6842 66.5624 42.5833L67.4666 42.9208L77.2999 46.2791C84.5916 48.7708 84.8124 58.8458 77.9666 61.8L77.2999 62.05L67.4666 65.4125C65.2107 66.1826 63.1462 67.4276 61.4125 69.0636C59.6788 70.6995 58.3162 72.6883 57.4166 74.8958L57.0791 75.7958L53.7208 85.6333C51.2291 92.925 41.1541 93.1458 38.2041 86.3L37.9458 85.6333L34.5874 75.8C33.8174 73.5441 32.5723 71.4796 30.9364 69.7459C29.3004 68.0122 27.3116 66.6495 25.1041 65.75L24.2041 65.4125L14.3708 62.0541C7.07495 59.5625 6.85411 49.4875 13.7041 46.5375L14.3708 46.2791L24.2041 42.9208C26.4593 42.1502 28.5229 40.905 30.2559 39.269C31.9888 37.6331 33.3508 35.6445 34.2499 33.4375L34.5874 32.5375L37.9458 22.7ZM79.1666 8.33331C79.9461 8.33331 80.71 8.55197 81.3714 8.96444C82.0328 9.37692 82.5653 9.96666 82.9083 10.6666L83.1083 11.1541L84.5666 15.4291L88.8458 16.8875C89.627 17.1529 90.3118 17.6442 90.8134 18.2992C91.315 18.9542 91.6109 19.7434 91.6636 20.5667C91.7163 21.3901 91.5233 22.2105 91.1092 22.9241C90.6951 23.6377 90.0784 24.2122 89.3374 24.575L88.8458 24.775L84.5708 26.2333L83.1124 30.5125C82.8466 31.2934 82.3549 31.9779 81.6996 32.4791C81.0444 32.9803 80.2551 33.2758 79.4318 33.328C78.6085 33.3802 77.7882 33.1868 77.0749 32.7724C76.3616 32.358 75.7873 31.7411 75.4249 31L75.2249 30.5125L73.7666 26.2375L69.4874 24.7791C68.7063 24.5137 68.0215 24.0224 67.5198 23.3674C67.0182 22.7124 66.7223 21.9232 66.6696 21.0999C66.617 20.2765 66.8099 19.4561 67.224 18.7425C67.6382 18.029 68.2548 17.4544 68.9958 17.0916L69.4874 16.8916L73.7624 15.4333L75.2208 11.1541C75.5017 10.3309 76.0333 9.61627 76.7409 9.11039C77.4486 8.60452 78.2968 8.33279 79.1666 8.33331Z" fill="white"/>
</g>
<defs>
<clipPath id="clip0_50_16">
<rect width="100" height="100" fill="white"/>
</clipPath>
</defs>
</svg>
